<svg xmlns="http://www.w3.org/2000/svg" xmlns:xlink="http://www.w3.org/1999/xlink" width="80" height="24" viewBox="0 0 80 24">
  <defs>
    <clipPath id="clip-abc">
      <rect width="80" height="24"/>
    </clipPath>
  </defs>
  <g id="abc" clip-path="url(#clip-abc)">
    <rect width="80" height="24" fill="#fff"/>
    <path id="Path_406" data-name="Path 406" d="M13.381,5.174H6.824L5.913,7.728H.016L7.041-7.744h6.3L20.365,7.728H14.316Zm-1.2-3.346L10.12-3.734,8.079,1.828Zm10.03-9.573H33.025a6.716,6.716,0,0,1,4.15,1.108,3.341,3.341,0,0,1,1.447,2.744,3.133,3.133,0,0,1-1.033,2.354A4.812,4.812,0,0,1,35.575-.5,5.563,5.563,0,0,1,38.539.873a3.377,3.377,0,0,1,.95,2.454,3.67,3.67,0,0,1-.676,2.164,4.653,4.653,0,0,1-1.849,1.52,7.087,7.087,0,0,1-2.193.507q-1.951.211-2.588.211h-9.97ZM28.04-1.676h2.512a3.347,3.347,0,0,0,1.881-.385,1.292,1.292,0,0,0,.529-1.113,1.227,1.227,0,0,0-.529-1.055,3.293,3.293,0,0,0-1.842-.38H28.04Zm0,6.079h2.945a3.755,3.755,0,0,0,2.1-.438A1.376,1.376,0,0,0,33.7,2.789a1.281,1.281,0,0,0-.606-1.1,3.939,3.939,0,0,0-2.123-.417H28.04ZM54.954,1.4l5.062,1.266A7.186,7.186,0,0,1,58.41,5.606,6.923,6.923,0,0,1,55.688,7.39a12.075,12.075,0,0,1-4.137.6,14.238,14.238,0,0,1-4.979-.733A7.522,7.522,0,0,1,43.238,4.68a7.593,7.593,0,0,1-1.4-4.725,7.259,7.259,0,0,1,2.467-5.9q2.467-2.062,6.98-2.062a11.015,11.015,0,0,1,5.552,1.182,7.1,7.1,0,0,1,3,3.631l-5.1.939a3.363,3.363,0,0,0-.561-1.034,3.232,3.232,0,0,0-1.186-.844,4,4,0,0,0-1.568-.3,3.627,3.627,0,0,0-3.009,1.307,4.792,4.792,0,0,0-.79,3.046q0,2.572.943,3.526a3.563,3.563,0,0,0,2.652.954,3.611,3.611,0,0,0,2.505-.77A4.454,4.454,0,0,0,54.954,1.4Z" transform="translate(9.984 12.008)" fill="#fa0"/>
  </g>
</svg>
