<svg xmlns="http://www.w3.org/2000/svg" xmlns:xlink="http://www.w3.org/1999/xlink" width="80" height="24" viewBox="0 0 80 24">
  <defs>
    <clipPath id="clip-ace">
      <rect width="80" height="24"/>
    </clipPath>
  </defs>
  <g id="ace" clip-path="url(#clip-ace)">
    <rect width="80" height="24" fill="#fff"/>
    <path id="Path_404" data-name="Path 404" d="M13.9,5.174H7.087L6.141,7.728H.016l7.3-15.472h6.543L21.151,7.728H14.869ZM12.653,1.828,10.51-3.734,8.39,1.828ZM35.492,1.4l5.257,1.266A7.113,7.113,0,0,1,39.08,5.606,7.219,7.219,0,0,1,36.253,7.39a12.987,12.987,0,0,1-4.3.6,15.312,15.312,0,0,1-5.171-.733A7.783,7.783,0,0,1,23.322,4.68,7.4,7.4,0,0,1,21.866-.045a7.136,7.136,0,0,1,2.562-5.9q2.562-2.062,7.25-2.062a11.808,11.808,0,0,1,5.767,1.182A7.168,7.168,0,0,1,40.563-3.2l-5.3.939a3.329,3.329,0,0,0-.583-1.034,3.357,3.357,0,0,0-1.232-.844,4.3,4.3,0,0,0-1.629-.3A3.832,3.832,0,0,0,28.7-3.123a4.661,4.661,0,0,0-.821,3.046q0,2.572.98,3.526a3.784,3.784,0,0,0,2.754.954,3.848,3.848,0,0,0,2.6-.77A4.413,4.413,0,0,0,35.492,1.4Zm8.157-9.14H59.725v3.3H49.661v2.459H59V1.174H49.661v3.05H60.016v3.5H43.649Z" transform="translate(9.984 12.008)" fill="#0036b5"/>
  </g>
</svg>
