<svg xmlns="http://www.w3.org/2000/svg" xmlns:xlink="http://www.w3.org/1999/xlink" width="80" height="24" viewBox="0 0 80 24">
  <defs>
    <clipPath id="clip-agc">
      <rect width="80" height="24"/>
    </clipPath>
  </defs>
  <g id="agc" clip-path="url(#clip-agc)">
    <rect width="80" height="24" fill="#fff"/>
    <g id="Group_10" data-name="Group 10" transform="translate(173.275 0)">
      <path id="Path_44" data-name="Path 44" d="M-163.275,19.989c.341-.42.639-.789.939-1.157q5.463-6.708,10.933-13.414a5.467,5.467,0,0,1,.924-.871,3.075,3.075,0,0,1,3.415-.057,8,8,0,0,1,1.406,1.443c1.284,1.589,2.524,3.194,3.786,4.791q1.807,2.287,3.622,4.573c.064.08.118.164.2.281H-153.1c.309-.377.6-.734.894-1.089.427-.513.871-1.02,1.282-1.539a.7.7,0,0,1,.64-.256c1.6.015,3.2.014,4.807.018.091,0,.183-.008.339-.015l-3.641-4.679c-.124.141-.209.231-.284.323q-4.557,5.613-9.1,11.229a1.135,1.135,0,0,1-1.068.429C-160.548,19.967-161.862,19.989-163.275,19.989Z" fill="#1a1a1a"/>
      <path id="Path_45" data-name="Path 45" d="M-132.869,11l1.261-1.333c.3-.318.609-.633.9-.954a.678.678,0,0,1,.563-.214q3.861.025,7.721.032c.277,0,.408.054.389.25a4.3,4.3,0,0,0,0,.468c.021,2.012.035,4.023.072,6.034,0,.27-.121.335-.508.334-2.78-.01-5.587,0-8.339,0-4.319.058-7.244-1.972-7.953-4.534a4.482,4.482,0,0,1,.952-4.324,7.838,7.838,0,0,1,6.074-2.518c3.118-.069,6.242-.009,9.364-.009.25,0,.339.066.338.228,0,.818-.007,1.636,0,2.453,0,.233-.22.21-.442.21-2.711.007-5.422.019-8.133.017a6.522,6.522,0,0,0-2.416.345,2.618,2.618,0,0,0-1.887,3.012c.364,1.377,1.8,2.2,3.885,2.2,1.479.005,2.958,0,4.436.006.337,0,.462-.067.448-.3a10.122,10.122,0,0,1,0-1.129c.011-.215-.1-.286-.424-.284-1.931.009-3.861,0-5.792,0Z" fill="#1a1a1a"/>
      <path id="Path_46" data-name="Path 46" d="M-103.275,15.608h-.566q-4.128,0-8.257,0c-3.465.008-5.932-1.062-7.312-3.168a4.444,4.444,0,0,1,.191-5.515c1.353-1.791,3.645-2.674,6.614-2.708s5.943,0,8.915-.013c.338,0,.413.083.41.29-.014.781-.021,1.562,0,2.343.007.245-.1.31-.463.309-2.821-.01-5.642-.006-8.463,0-2.305,0-3.931,1.058-4.017,2.6a2.45,2.45,0,0,0,1.67,2.52,5.423,5.423,0,0,0,2.3.433q4.21-.006,8.422-.009c.558,0,.559,0,.559.373v2.544Z" fill="#1a1a1a"/>
    </g>
  </g>
</svg>
