<svg xmlns="http://www.w3.org/2000/svg" xmlns:xlink="http://www.w3.org/1999/xlink" width="80" height="24" viewBox="0 0 80 24">
  <defs>
    <clipPath id="clip-ap_bumper">
      <rect width="80" height="24"/>
    </clipPath>
  </defs>
  <g id="ap_bumper" data-name="ap bumper" clip-path="url(#clip-ap_bumper)">
    <rect width="80" height="24" fill="#fff"/>
    <g id="Group_22" data-name="Group 22" transform="translate(-260.905)">
      <g id="Group_20" data-name="Group 20">
        <path id="Path_87" data-name="Path 87" d="M285.251,16.715h-5.564l-.776,2.513H273.9L279.864,4h5.353l5.962,15.228h-5.136Zm-1.018-3.294-1.75-5.472-1.734,5.472Z" fill="#2e3190"/>
        <path id="Path_88" data-name="Path 88" d="M292.715,4h8.149a5.726,5.726,0,0,1,3.986,1.215,4.475,4.475,0,0,1,1.325,3.461,4.608,4.608,0,0,1-1.443,3.605,6.448,6.448,0,0,1-4.409,1.3h-2.686v5.648h-4.922Zm4.922,6.492h1.2a3.215,3.215,0,0,0,1.99-.47,1.5,1.5,0,0,0,.575-1.21,1.66,1.66,0,0,0-.5-1.218,2.667,2.667,0,0,0-1.875-.5h-1.392Z" fill="#2e3190"/>
      </g>
      <g id="Group_21" data-name="Group 21">
        <path id="Path_89" data-name="Path 89" d="M300.306,14.759h2.382a1.236,1.236,0,0,1,.917.319,1.082,1.082,0,0,1,.318.794,1.059,1.059,0,0,1-.228.677.987.987,0,0,1-.443.291,1.048,1.048,0,0,1,.86,1.1,1.334,1.334,0,0,1-.146.628,1.179,1.179,0,0,1-.409.437,1.427,1.427,0,0,1-.482.147c-.288.036-.476.057-.572.057h-2.2Zm1.283,1.75h.555a.611.611,0,0,0,.414-.112.428.428,0,0,0,.12-.323.406.406,0,0,0-.12-.3.6.6,0,0,0-.4-.1h-.564Zm0,1.747h.65a.7.7,0,0,0,.464-.125.444.444,0,0,0,.135-.338.408.408,0,0,0-.135-.318.7.7,0,0,0-.466-.119h-.648Z" fill="#df1b22"/>
        <path id="Path_90" data-name="Path 90" d="M307.312,14.759h1.27v2.654a2.393,2.393,0,0,1-.115.746,1.636,1.636,0,0,1-.355.615,1.394,1.394,0,0,1-.513.367,2.38,2.38,0,0,1-.888.15,4.9,4.9,0,0,1-.657-.047,1.551,1.551,0,0,1-.6-.18,1.569,1.569,0,0,1-.435-.384,1.368,1.368,0,0,1-.272-.513,2.869,2.869,0,0,1-.118-.754V14.759H305.9v2.72a.814.814,0,0,0,.19.567.658.658,0,0,0,.519.2.672.672,0,0,0,.515-.2.81.81,0,0,0,.187-.571Z" fill="#df1b22"/>
        <path id="Path_91" data-name="Path 91" d="M309.411,14.759h1.672l.648,2.712.639-2.712h1.673v4.455H313v-3.4l-.8,3.4h-.944l-.8-3.4v3.4h-1.043Z" fill="#df1b22"/>
        <path id="Path_92" data-name="Path 92" d="M314.849,14.759h2.117a1.369,1.369,0,0,1,1.034.356,1.386,1.386,0,0,1,.344,1.014,1.436,1.436,0,0,1-.371,1.05,1.555,1.555,0,0,1-1.148.383h-.7v1.652h-1.28Zm1.28,1.9h.313a.743.743,0,0,0,.515-.14.463.463,0,0,0,.15-.354.525.525,0,0,0-.13-.357.633.633,0,0,0-.484-.143h-.364Z" fill="#df1b22"/>
        <path id="Path_93" data-name="Path 93" d="M319.01,14.759h3.41v.952h-2.137v.707h1.985v.91h-1.985V18.2h2.2v1.011H319.01Z" fill="#df1b22"/>
        <path id="Path_94" data-name="Path 94" d="M323.185,19.214V14.759h2.122a2.935,2.935,0,0,1,.9.111.959.959,0,0,1,.5.4,1.469,1.469,0,0,1,.045,1.363,1.153,1.153,0,0,1-.4.434,1.47,1.47,0,0,1-.445.179,1.247,1.247,0,0,1,.333.164,1.356,1.356,0,0,1,.2.232,2.044,2.044,0,0,1,.177.279l.618,1.29H325.8l-.679-1.361a1.071,1.071,0,0,0-.234-.342.512.512,0,0,0-.311-.108h-.112v1.811Zm1.279-2.652H325a1.968,1.968,0,0,0,.338-.058.333.333,0,0,0,.206-.143.418.418,0,0,0,.082-.255.432.432,0,0,0-.127-.332.712.712,0,0,0-.476-.116h-.559Z" fill="#df1b22"/>
      </g>
      <rect id="Rectangle_3" data-name="Rectangle 3" width="53.324" height="1.199" transform="translate(273.905 18.801)" fill="#df1b22"/>
    </g>
  </g>
</svg>
