<svg xmlns="http://www.w3.org/2000/svg" xmlns:xlink="http://www.w3.org/1999/xlink" width="80" height="24" viewBox="0 0 80 24">
  <defs>
    <clipPath id="clip-art">
      <rect width="80" height="24"/>
    </clipPath>
  </defs>
  <g id="art" clip-path="url(#clip-art)">
    <rect width="80" height="24" fill="#fff"/>
    <path id="Path_452" data-name="Path 452" d="M9.153,2.795H4.671L4.048,4.9H.016l4.8-12.778H9.126L13.928,4.9H9.793ZM8.334.032,6.924-4.562,5.528.032Zm6.9,4.873V-7.874h6.581a9.56,9.56,0,0,1,2.8.314A2.979,2.979,0,0,1,26.174-6.4a3.529,3.529,0,0,1,.593,2.07,3.556,3.556,0,0,1-.454,1.835,3.545,3.545,0,0,1-1.247,1.251,4.778,4.778,0,0,1-1.387.506,3.933,3.933,0,0,1,1.028.471,3.982,3.982,0,0,1,.632.672,5.013,5.013,0,0,1,.553.794L27.8,4.9H23.343L21.232,1a2.976,2.976,0,0,0-.715-.985,1.657,1.657,0,0,0-.968-.3H19.2V4.9ZM19.2-2.7h1.665a5.95,5.95,0,0,0,1.046-.174,1.044,1.044,0,0,0,.641-.4,1.181,1.181,0,0,0,.248-.741,1.174,1.174,0,0,0-.392-.95,2.373,2.373,0,0,0-1.473-.331H19.2Zm8.812-5.178h12v3.155H35.989V4.9H32.041V-4.719H28.013Z" transform="translate(19.984 13.874)" fill="#bf0000"/>
  </g>
</svg>
