<svg xmlns="http://www.w3.org/2000/svg" xmlns:xlink="http://www.w3.org/1999/xlink" width="80" height="24" viewBox="0 0 80 24">
  <defs>
    <clipPath id="clip-bahman_disel">
      <rect width="80" height="24"/>
    </clipPath>
  </defs>
  <g id="bahman_disel" data-name="bahman disel" clip-path="url(#clip-bahman_disel)">
    <rect width="80" height="24" fill="#fff"/>
    <g id="Group_19" data-name="Group 19" transform="translate(-263.905 -91.121)">
      <path id="Path_67" data-name="Path 67" d="M321.454,101.659l-.132.048-.12.048-.24.076-.109.038-.11.019-.1.029-.109.019-.1.019-.087.009-.1.01H320l-.076-.01-.076-.019-.066-.009-.077-.029-.054-.019-.066-.029-.054-.038-.055-.038-.1-.086-.033-.048-.088-.114-.033-.057-.022-.077-.033-.066-.01-.077-.023-.076,6.22-3.417.153-.077.142-.076.12-.086.109-.086.1-.1.087-.086.066-.1.065-.105.055-.1.033-.1.033-.105.011-.1v-.1l-.011-.1-.023-.105-.021-.095-.044-.105-.054-.086-.055-.1-.065-.086-.076-.076-.088-.086-.1-.076-.1-.067-.109-.067-.12-.057-.132-.048-.142-.048-.132-.038-.153-.028-.153-.019-.163-.01h-6.4l-12.57,6.061-.12.076-.109.077-.241.114-.1.057-.1.039-.1.038-.1.038-.1.029-.077.009-.1.019-.076.01-.077.009h-.153l-.065-.009-.066-.01-.131-.038-.055-.019-.065-.029-.055-.028-.054-.029-.055-.038-.044-.038-.054-.038-.044-.048-.055-.038-.087-.1-.088-.1,6.274-3.464.176-.067.142-.077.142-.086.12-.076.109-.086.1-.086.087-.1.077-.1.055-.095.055-.105.021-.1.033-.1.011-.1v-.1l-.011-.105-.021-.1-.033-.095-.044-.105-.044-.086-.077-.1-.065-.086-.076-.085-.1-.077-.109-.086-.109-.067-.12-.066-.132-.067-.142-.057-.142-.048-.164-.048-.164-.038-.164-.029h-6.515l-11.958,6.2-.153.048-.143.038-.142.048-.142.029-.143.028-.13.029-.132.029-.13.019-.12.019-.12.009-.109.01H288.9l-.11.009-.1-.009h-.1l-.1-.019-.088-.01-.087-.019-.076-.029-.078-.028-.065-.029-.065-.038-.055-.038-.054-.048-.044-.048-.044-.057-.033-.057-.033-.067-.023-.067-.01-.076-.022-.153,6.614-3.274-.11-2.052-12.746,6.319-.579.172-.557.124-.537.067-.513.009-.492-.029-.449-.076-.437-.114-.394-.153-.383-.181-.34-.211-.295-.238-.273-.258-.229-.277-.186-.286-.153-.305-.109-.306-.066-.305-.021-.315.021-.306.077-.305.12-.286.164-.277.23-.248.273-.239.327-.21.394-.172.449-.153.5-.1.568-.076.623-.029.7.029.754.067,3.641-1.823h-4.088l-1.1.3-.995.334-.885.363-.765.4-.667.43-.557.449-.449.458-.36.477-.263.477-.163.487-.088.487v.467l.088.468.163.449.241.429.306.4.383.372.438.344.514.305.557.258.612.21.667.162.721.105.765.039.8-.02.842-.1.885-.172.9-.248.939-.334.952-.42.983-.515.995-.611.055.372.076.324.1.3.132.258.153.229.186.191.2.162.218.134.231.1.262.086.262.048.285.029h.284l.306-.019.306-.029.317-.057.317-.067.317-.086.327-.1.317-.115.317-.114.316-.134.306-.143.306-.143.3-.162.273-.153.273-.162.251-.163.241-.152.218-.163.208-.152.174-.153.12.391.153.334.164.306.186.257.208.23.229.19.241.153.262.124.273.086.284.067.285.048.306.009.295-.009.317-.029.317-.048.317-.057.306-.076.316-.1.317-.105.306-.1.3-.114.295-.124.273-.124.273-.134.262-.124.241-.124.218-.124.208-.115.35-.2.262-.153.054.315.078.286.1.258.12.22.142.2.164.172.174.143.187.115.207.1.218.076.23.058.252.028.262.01.262-.01.285-.028.285-.039.295-.057.306-.076.306-.086.306-.1.317-.115.317-.124.327-.133.317-.143.317-.144.317-.162.316-.172.317-.162.317-.172.306-.181.295-.172.3-.181.043.391.066.344.1.305.132.277.153.229.186.191.2.162.229.134.241.105.262.067.285.047.284.019h.306l.306-.019.329-.038.316-.057.329-.077.328-.1.327-.105.317-.114.327-.115.306-.134.306-.133.285-.144.285-.143.262-.143.251-.133.219-.144.207-.133.186-.124.164-.115.132-.114.054.171.066.163.077.162.065.143.088.143.087.134.088.133.1.125.1.114.109.105.109.1.12.1.12.085.12.077.132.076.142.067.132.067.153.048.142.047.153.038.164.029.163.019.164.019.176.01h.349l.187-.019.2-.019.2-.029.2-.038.2-.048.208-.048,11.522-5.717V95.694ZM297.1,102.2l-.044.019-.044.019-.044.019-.044.01-.044.009-.043.02h-.055l-.044.009-.044.01h-.13l-.044-.01h-.055l-.044-.009-.043-.01-.088-.019-.044-.019-.044-.01-.033-.019-.044-.019-.044-.019-.033-.029-.033-.028-.044-.019-.033-.029-.033-.029-.033-.038-.022-.028-.033-.039-.021-.028-.034-.038-.01-.039-.044-.076-.011-.038-.011-.038-.01-.048V101.6l-.023-.077v-.038l.011-.047V101.4l.011-.038v-.038l.01-.038.011-.038.023-.039.01-.038.022-.038.021-.038.023-.029.021-.038.033-.029.022-.028.033-.038.033-.029.033-.029.033-.028.033-.029.044-.019.044-.019,9.434-4.916.044-.028.044-.01.044-.019.044-.019.088-.019.043-.01.055-.009h.273l.033.009.055.01.044.009.043.02.044.009.088.038.033.019.044.019.033.02.033.028.044.029.033.019.033.038.034.029.021.028.033.039.023.038.021.038.021.038.022.038.021.038.011.039.011.038.01.038.011.038v.2l-.011.038v.048l-.01.028-.011.048-.021.028-.011.048-.022.029-.021.038-.021.029-.023.047-.021.029-.066.057-.033.038-.033.02-.065.057-.044.028-.044.02Zm21.2-2.911-.021.105v.048l-5.3,2.758-.044.019-.054.019-.033.019-.044.01-.044.009-.055.02h-.044l-.043.009-.044.01h-.143l-.044-.01h-.043l-.044-.009-.044-.01-.044-.01-.044-.009-.044-.019-.044-.01-.043-.019L312,102.2l-.044-.019-.033-.029-.033-.028-.044-.019-.033-.029-.033-.029-.033-.038-.023-.028-.033-.039-.021-.028-.033-.038-.023-.039-.01-.038-.022-.038-.011-.038-.01-.038-.011-.048-.011-.038v-.038l-.01-.039v-.085l.01-.039v-.038l.011-.038.011-.038.01-.038.023-.039.011-.038.021-.038.011-.038.033-.029.021-.038.023-.029.033-.028.033-.038.023-.029.043-.029.033-.028.034-.029.043-.019.034-.019,4.9-2.549.12-.009.163.009h.143l.142.02.12.028.109.029.109.038.088.038.087.048.066.048.065.057.055.067.043.067.034.076.021.086.023.086.01.086.011.1Zm.82-1.231V97.8l.01-.1.011-.086.011-.086.044-.191.021-.086.033-.1.022-.1.044-.1v-.01l2.121-1.1.043-.028.044-.01.044-.019.044-.019.044-.01.088-.019.054-.009h.273l.044.009.044.01.044.009.044.02.033.009.044.019.043.019.044.019.034.019.043.02.034.028.033.029.033.019.044.038.021.029.033.028.033.039.023.038.021.038.022.038.021.038.011.038.021.039.011.038.011.038.01.038v.086l.011.038-.011.038V96.7l-.01.048-.011.028-.021.048-.011.028-.011.048-.021.029-.022.038-.021.029-.023.047-.033.029-.021.029-.033.028-.034.038-.033.02-.033.028-.033.029-.044.028-.044.02-2.972,1.546-.044-.038-.044-.048-.033-.057-.044-.058-.033-.066-.023-.067-.033-.067-.021-.067-.011-.076-.022-.077v-.076Z" fill="#2d286c" fill-rule="evenodd"/>
      <path id="Path_68" data-name="Path 68" d="M283.411,96.564l.01-.074.01-.083.019-.074.019-.065.029-.074.029-.074.038-.065.038-.074.038-.055.057-.065.048-.065.057-.065.115-.111.057-.046.077-.055.067-.046.077-.046.077-.037.076-.046.086-.037.077-.028.086-.037.1-.028.086-.019.1-.018.1-.019.1-.009.1-.009.105-.009.1-.009.1.009.105.009.1.009.1.009.1.019.086.018.1.019.086.028.086.037.086.028.077.037.086.046.077.037.077.046.067.046.067.055.067.046.067.055.048.055.057.065.048.065.048.065.048.055.038.074.038.065.029.074.029.074.019.065.019.074.01.083.01.074v.157l-.01.074-.01.074-.019.074-.019.074-.029.074-.029.065-.038.074-.038.065-.1.129-.048.065-.057.055-.048.065-.067.046-.067.055-.067.055-.067.046-.077.037-.077.046-.086.037-.077.037-.086.037-.086.028-.086.028-.1.028-.086.019-.1.018-.1.009-.1.009-.105.009h-.192l-.105-.009-.1-.009-.1-.009-.1-.018-.1-.019-.086-.028-.1-.028-.086-.028-.077-.037-.086-.037-.076-.037-.077-.046-.077-.037-.067-.046-.077-.055-.057-.055-.057-.046-.057-.065-.057-.055-.048-.065-.057-.065-.076-.129-.038-.074-.029-.065-.029-.074-.019-.074-.019-.074-.01-.074-.01-.074Z" transform="translate(1.282)" fill="#2d286c" fill-rule="evenodd"/>
      <path id="Path_69" data-name="Path 69" d="M324.646,100.813l.1,0,.1.007.1.01.1.012.1.016.092.023.09.022.09.03.086.029.086.034.082.035.08.041.075.042.071.044.077.05.064.049.065.052.062.054.058.06.054.059.052.061.047.063.045.064.037.068.036.07.032.071.026.07.022.073.017.078.013.072.006.079.006.079-.006.076-.006.078-.013.079-.017.07-.022.075-.026.073-.032.07-.036.065-.037.069-.045.068-.047.06-.052.063-.054.058-.058.057-.062.055-.065.054-.064.052-.077.044-.071.047-.075.042-.08.036-.082.041-.086.032-.086.033-.09.024-.09.028-.092.017-.1.017-.1.015-.1.009-.1,0-.1,0-.1,0-.1,0-.1-.009-.1-.015-.093-.017-.094-.017-.092-.028-.088-.024-.086-.033-.084-.032-.082-.041-.08-.036-.079-.042-.071-.047-.073-.044-.067-.052-.065-.054-.062-.055-.058-.057-.052-.058-.052-.063-.045-.06-.047-.068-.037-.069-.036-.065-.032-.07-.026-.073-.019-.075-.02-.07-.009-.079-.009-.078v-.154l.009-.079.009-.072.02-.078.019-.073.026-.07.032-.071.036-.07.037-.068.047-.064.045-.063.052-.061.052-.059.058-.06.062-.054.065-.052.067-.049.073-.05.071-.044.079-.042.08-.041.082-.035.084-.034.086-.029.088-.03.092-.022.094-.023.093-.016.1-.012.1-.01.1-.007Z" transform="translate(6.667)" fill="#2d286c" fill-rule="evenodd"/>
      <path id="Path_70" data-name="Path 70" d="M277.878,105.368v4.116a.827.827,0,0,1-.354.657,1.246,1.246,0,0,1-.776.258h-.938a1.355,1.355,0,0,1-.8-.249.79.79,0,0,1-.374-.666v-1.4H273.9v1.332a1.519,1.519,0,0,0,.526,1.128,1.743,1.743,0,0,0,1.254.509H276.8a1.829,1.829,0,0,0,1.311-.49,1.6,1.6,0,0,0,.489-1.193v-4.005Z" fill="#2d286c"/>
      <path id="Path_71" data-name="Path 71" d="M281.985,108.374v-.925h-.718v2.044a.843.843,0,0,1-.354.666,1.282,1.282,0,0,1-.795.268h-1l.115.629h.938a1.724,1.724,0,0,0,1.379-.583,1.985,1.985,0,0,0,.45-1.322.714.714,0,0,0,.507.277v-.61h.268C282.253,108.818,281.985,108.67,281.985,108.374Zm-.546-2.987c-.354,0-.526.12-.526.37,0,.3.181.444.555.444a.491.491,0,0,0,.354-.13.406.406,0,0,0,.143-.314C281.965,105.507,281.784,105.387,281.439,105.387Z" fill="#2d286c"/>
      <path id="Path_72" data-name="Path 72" d="M282.779,109.447a2.268,2.268,0,0,1-.268-.019" fill="none"/>
      <path id="Path_73" data-name="Path 73" d="M284.962,110.668a.321.321,0,0,1-.144.268.46.46,0,0,1-.315.1.6.6,0,0,1-.345-.093.314.314,0,0,1-.153-.277c0-.232.143-.352.45-.352C284.79,110.316,284.962,110.436,284.962,110.668Z" transform="translate(1.286)" fill="#2d286c"/>
      <path id="Path_74" data-name="Path 74" d="M283.574,110.668a.338.338,0,0,1-.134.268.473.473,0,0,1-.326.1.546.546,0,0,1-.335-.093.3.3,0,0,1-.162-.277c0-.232.153-.352.459-.352C283.411,110.316,283.574,110.436,283.574,110.668Z" fill="#2d286c"/>
      <path id="Path_75" data-name="Path 75" d="M285.077,107.449v.962a1,1,0,0,1-.268.712.965.965,0,0,1-.756.324h-1.274a2.253,2.253,0,0,1-.268-.019v-.61h1.321a.6.6,0,0,0,.412-.111.5.5,0,0,0,.115-.379v-.879Z" transform="translate(1.13)" fill="#2d286c"/>
      <path id="Path_76" data-name="Path 76" d="M288.82,107.893l-1.618-1.507-.488.425,1.628,1.526a.33.33,0,0,1,.1.231q0,.25-.4.25h-2.288l.1.629h2.241a1.283,1.283,0,0,0,.746-.213.742.742,0,0,0,.326-.619A.963.963,0,0,0,288.82,107.893Z" transform="translate(1.583)" fill="#2d286c"/>
      <path id="Path_77" data-name="Path 77" d="M293.636,106.931c-.345,0-.527.121-.527.379,0,.287.191.435.546.435a.52.52,0,0,0,.354-.129.374.374,0,0,0,.153-.306C294.162,107.052,293.99,106.931,293.636,106.931Z" transform="translate(2.449)" fill="#2d286c"/>
      <path id="Path_78" data-name="Path 78" d="M300.079,109.428v.019h.325A2.732,2.732,0,0,1,300.079,109.428Z" transform="translate(3.292)" fill="#2d286c"/>
      <path id="Path_79" data-name="Path 79" d="M304.2,110.252q-.518,0-.517.388c0,.287.182.435.545.435a.561.561,0,0,0,.355-.13.391.391,0,0,0,.143-.305C304.731,110.381,304.559,110.252,304.2,110.252Z" transform="translate(3.797)" fill="#2d286c"/>
      <path id="Path_80" data-name="Path 80" d="M304.846,107.449v.379c.01.167.01.3.01.38,0,.323-.077.517-.24.573a9.857,9.857,0,0,1-.986.037h-.938a1.049,1.049,0,0,0,.488-.888.913.913,0,0,0-.344-.749,1.367,1.367,0,0,0-.872-.259c-.9,0-1.349.388-1.349,1.184,0,.037.019.277.057.712H300.4a1.922,1.922,0,0,1-.431-.046.313.313,0,0,1-.2-.287v-.268a1.42,1.42,0,0,0-.316-.9,1.1,1.1,0,0,0-.919-.407,1.27,1.27,0,0,0-.986.379,1.373,1.373,0,0,0-.306.925c0,.3-.019.462-.058.49a.712.712,0,0,1-.392.1h-.019c-.4-.047-.6-.185-.6-.435v-.925h-.718v2.044a.784.784,0,0,1-.335.666,1.249,1.249,0,0,1-.8.268h-.928a1.326,1.326,0,0,1-.814-.259.807.807,0,0,1-.354-.675v-1.406h-.7v1.332a1.546,1.546,0,0,0,.478,1.138,1.73,1.73,0,0,0,1.255.5h1.11a1.712,1.712,0,0,0,1.379-.583,1.984,1.984,0,0,0,.44-1.322.6.6,0,0,0,.3.213.734.734,0,0,0,.3.064.758.758,0,0,0,.21-.018c.354-.046.546-.167.584-.333a1.31,1.31,0,0,0,.948.462,1.093,1.093,0,0,0,.986-.462.856.856,0,0,0,.383.314.827.827,0,0,0,.192.037,2.732,2.732,0,0,0,.325.019h.3l.076.694c.077.656.546.98,1.408.98.708,0,1.062-.25,1.062-.74a1.044,1.044,0,0,0-.526-.934h1.809a.965.965,0,0,0,.756-.324.952.952,0,0,0,.3-.712v-.962Zm-6.338,1.452c-.421,0-.631-.212-.631-.656,0-.481.21-.713.631-.713q.6,0,.6.666C299.112,108.67,298.91,108.9,298.508,108.9Zm2.825-.582c0-.546.229-.814.689-.814.316,0,.478.138.478.416a.8.8,0,0,1-.354.657,1.341,1.341,0,0,1-.794.24C301.342,108.513,301.333,108.346,301.333,108.319Zm.775,2.256c-.5,0-.737-.388-.737-1.174a1.944,1.944,0,0,1,.833.185.694.694,0,0,1,.44.6C302.644,110.446,302.462,110.575,302.108,110.575Z" transform="translate(2.991)" fill="#2d286c"/>
      <path id="Path_81" data-name="Path 81" d="M310.293,106.043c-.316,0-.469.121-.469.352,0,.25.172.37.517.37a.463.463,0,0,0,.316-.1.351.351,0,0,0,.134-.268C310.791,106.164,310.628,106.043,310.293,106.043Zm1.388,0c-.316,0-.469.121-.469.352,0,.25.173.37.517.37a.461.461,0,0,0,.316-.1.322.322,0,0,0,.134-.268C312.179,106.164,312.016,106.043,311.681,106.043Z" transform="translate(4.698)" fill="#2d286c"/>
      <path id="Path_82" data-name="Path 82" d="M314.458,109.438v.009h.268A2.57,2.57,0,0,1,314.458,109.438Z" transform="translate(5.095)" fill="#2d286c"/>
      <path id="Path_83" data-name="Path 83" d="M317.808,108.587c0,.573-.363.86-1.1.86h-1.981a2.57,2.57,0,0,1-.268-.009,1.477,1.477,0,0,1-.881-.241,1.265,1.265,0,0,1-.7.25h-3.8a1.011,1.011,0,0,1-.756-.324,1.026,1.026,0,0,1-.278-.712v-.962h.728v.879a.5.5,0,0,0,.115.379.63.63,0,0,0,.421.111h3.351a.6.6,0,0,0,.421-.111.5.5,0,0,0,.115-.379v-.879h.737v.879c0,.323.259.481.8.481v.009h1.981a.259.259,0,0,0,.288-.3.271.271,0,0,0-.1-.222l-1.867-1.739-.124-.712,2.651-.851.106.639-1.867.619,1.474,1.461a3.68,3.68,0,0,1,.4.5A.605.605,0,0,1,317.808,108.587Z" transform="translate(5.224)" fill="#2d286c"/>
      <path id="Path_84" data-name="Path 84" d="M327.219,107.449v.981a1.13,1.13,0,0,1-.249.749.914.914,0,0,1-.766.333,1.327,1.327,0,0,1-.995-.435,1.2,1.2,0,0,1-.881.435,1.313,1.313,0,0,1-.977-.509,1.438,1.438,0,0,1-.948.444h-.641a1.258,1.258,0,0,1-.278-.028.785.785,0,0,1-.5-.268,1.985,1.985,0,0,1-.45,1.322,1.691,1.691,0,0,1-1.369.583h-.938l-.115-.629h.986a1.3,1.3,0,0,0,.8-.259.844.844,0,0,0,.354-.675v-2.044h.718v.925c0,.287.259.435.785.444h.584c.335,0,.5-.157.5-.462v-.907h.708v.934a.446.446,0,0,0,.182.379.664.664,0,0,0,.431.139q.518,0,.517-.388v-1.064h.7v.934a.455.455,0,0,0,.182.379.707.707,0,0,0,.44.139c.335,0,.508-.129.508-.388v-1.064Z" transform="translate(6.667)" fill="#2d286c"/>
      <path id="Path_85" data-name="Path 85" d="M321.484,109.419v.028h.278A1.258,1.258,0,0,1,321.484,109.419Zm2.719-3.135c-.306,0-.469.111-.469.342a.351.351,0,0,0,.153.278.584.584,0,0,0,.355.111.471.471,0,0,0,.315-.111.37.37,0,0,0,.135-.278C324.692,106.395,324.529,106.284,324.2,106.284Zm.67-.9c-.306,0-.459.111-.459.342a.324.324,0,0,0,.153.277.593.593,0,0,0,.354.111.571.571,0,0,0,.326-.111.327.327,0,0,0,.134-.277C325.381,105.5,325.209,105.387,324.873,105.387Zm.7.9c-.3,0-.45.111-.45.342a.324.324,0,0,0,.154.278.579.579,0,0,0,.354.111.516.516,0,0,0,.325-.111.357.357,0,0,0,.134-.278C326.089,106.395,325.917,106.284,325.572,106.284Z" transform="translate(6.667)" fill="#2d286c"/>
    </g>
  </g>
</svg>
