<svg xmlns="http://www.w3.org/2000/svg" xmlns:xlink="http://www.w3.org/1999/xlink" width="80" height="24" viewBox="0 0 80 24">
  <defs>
    <clipPath id="clip-BFS">
      <rect width="80" height="24"/>
    </clipPath>
  </defs>
  <g id="BFS" clip-path="url(#clip-BFS)">
    <rect width="80" height="24" fill="#fff"/>
    <g id="Group_11" data-name="Group 11" transform="translate(173.275 -30.593)">
      <path id="Path_47" data-name="Path 47" d="M-118.883,49.616c-.134-.045-.216-.126-.216-.214V45.8c0-.091.088-.175.231-.219a.739.739,0,0,1,.212-.03.713.713,0,0,1,.239.039,21.267,21.267,0,0,0,3.313.9,17.039,17.039,0,0,0,3.111.32,3.632,3.632,0,0,0,1.572-.246.7.7,0,0,0,.453-.62.555.555,0,0,0-.179-.412,2.386,2.386,0,0,0-.661-.4c-.23-.1-.9-.348-2.769-.941a16.085,16.085,0,0,1-3.217-1.337,4.76,4.76,0,0,1-1.634-1.522,3.73,3.73,0,0,1-.526-2,3.778,3.778,0,0,1,2.27-3.4,13.085,13.085,0,0,1,6.171-1.227,23.168,23.168,0,0,1,6.937,1.107c.184.057.271.18.207.293l-1.756,3.123a.391.391,0,0,1-.261.157.722.722,0,0,1-.161.017.725.725,0,0,1-.221-.033,16.535,16.535,0,0,0-4.918-.929,3,3,0,0,0-1.318.206.583.583,0,0,0-.373.507c0,.224.166.423.509.608a27.313,27.313,0,0,0,3.417,1.232,10.825,10.825,0,0,1,3.973,1.958,3.484,3.484,0,0,1,1.13,2.642,3.719,3.719,0,0,1-1.052,2.589,6.984,6.984,0,0,1-3.064,1.781,15.472,15.472,0,0,1-4.645.631,26.261,26.261,0,0,1-3.668-.217A17.911,17.911,0,0,1-118.883,49.616Z" fill="#1a1a1a"/>
      <path id="Path_48" data-name="Path 48" d="M-103.275,35.824l-.153.268-.191-.033-.191-.029a22.6,22.6,0,0,0-6.7-1.063,12.405,12.405,0,0,0-5.853,1.155,3.555,3.555,0,0,0-2.124,3.216,3.554,3.554,0,0,0,.5,1.908,4.386,4.386,0,0,0,1.531,1.43,15.562,15.562,0,0,0,3.109,1.29c1.526.484,2.479.809,2.824.962a2.882,2.882,0,0,1,.778.471.746.746,0,0,1,.244.544.95.95,0,0,1-.6.809,4.236,4.236,0,0,1-1.891.317,17.585,17.585,0,0,1-3.258-.335,21.989,21.989,0,0,1-3.416-.926l.037,3.981-.265-.051a.444.444,0,0,1-.095-.027c-.18-.06-.3-.179-.3-.308V45.8c0-.135.122-.257.328-.32l.074-.015a.971.971,0,0,1,.583.033,21.231,21.231,0,0,0,3.268.884,16.625,16.625,0,0,0,3.046.313,3.5,3.5,0,0,0,1.441-.215.615.615,0,0,0,.392-.537.479.479,0,0,0-.154-.356,2.279,2.279,0,0,0-.614-.367c-.217-.1-.869-.334-2.744-.931a15.852,15.852,0,0,1-3.263-1.359,4.835,4.835,0,0,1-1.679-1.559,3.843,3.843,0,0,1-.535-2.033,3.876,3.876,0,0,1,2.33-3.488,13.383,13.383,0,0,1,6.309-1.257,23.494,23.494,0,0,1,7.03,1.12.545.545,0,0,1,.143.063Z" fill="#fff"/>
      <path id="Path_49" data-name="Path 49" d="M-146.042,45.756a3.789,3.789,0,0,1-2.307,3.391,13.215,13.215,0,0,1-6.222,1.242h-8.261c-.244,0-.443-.112-.443-.25V35.168c0-.137.2-.249.443-.249h7.4a17.865,17.865,0,0,1,6.693.957,3.222,3.222,0,0,1,2.271,3.02,3.077,3.077,0,0,1-.974,2.275,4.549,4.549,0,0,1-1.852,1.068,5.168,5.168,0,0,1,2.3,1.16A3.157,3.157,0,0,1-146.042,45.756Zm-9.328-5.093a3.485,3.485,0,0,0,1.6-.29.928.928,0,0,0,.537-.883c0-.47-.257-1.01-2.257-1.01h-1.169v2.183Zm1.945,3.786a3.762,3.762,0,0,0-1.771-.327h-1.458v2.644h1.575c1.55,0,2.243-.416,2.243-1.348A1.041,1.041,0,0,0-153.425,44.449Z" fill="#1a1a1a"/>
      <path id="Rectangle_1" data-name="Rectangle 1" d="M.574,0h.1a0,0,0,0,1,0,0V15.47a0,0,0,0,1,0,0H.256A.256.256,0,0,1,0,15.214V.574A.574.574,0,0,1,.574,0Z" transform="translate(-163.275 34.919)" fill="#fff"/>
      <path id="Path_50" data-name="Path 50" d="M-139.382,50.139V35.168c0-.137.2-.249.443-.249H-126.4c.244,0,.442.112.442.249v3.246c0,.138-.2.25-.442.25h-6.452v2.358h5.915c.244,0,.443.111.443.249v3.246c0,.138-.2.25-.443.25h-5.915v5.372c0,.138-.2.25-.443.25h-5.648C-139.184,50.389-139.382,50.277-139.382,50.139Z" fill="#1a1a1a"/>
      <path id="Rectangle_2" data-name="Rectangle 2" d="M.574,0h.1a0,0,0,0,1,0,0V15.47a0,0,0,0,1,0,0H.256A.256.256,0,0,1,0,15.214V.574A.574.574,0,0,1,.574,0Z" transform="translate(-139.382 34.919)" fill="#fff"/>
    </g>
  </g>
</svg>
