<svg xmlns="http://www.w3.org/2000/svg" xmlns:xlink="http://www.w3.org/1999/xlink" width="80" height="24" viewBox="0 0 80 24">
  <defs>
    <clipPath id="clip-BTK">
      <rect width="80" height="24"/>
    </clipPath>
  </defs>
  <g id="BTK" clip-path="url(#clip-BTK)">
    <rect width="80" height="24" fill="#fff"/>
    <path id="Path_435" data-name="Path 435" d="M.811-7.874h11a6.748,6.748,0,0,1,4.221,1.146A3.472,3.472,0,0,1,17.5-3.89a3.265,3.265,0,0,1-1.05,2.434A4.868,4.868,0,0,1,14.4-.387a5.62,5.62,0,0,1,3.015,1.424,3.524,3.524,0,0,1,.966,2.538,3.84,3.84,0,0,1-.687,2.237,4.751,4.751,0,0,1-1.88,1.572,7.111,7.111,0,0,1-2.23.524q-1.984.218-2.632.218H.811ZM6.737-1.6H9.292A3.359,3.359,0,0,0,11.2-2a1.345,1.345,0,0,0,.538-1.151A1.275,1.275,0,0,0,11.2-4.24a3.3,3.3,0,0,0-1.874-.393H6.737Zm0,6.286h3a3.768,3.768,0,0,0,2.14-.453,1.43,1.43,0,0,0,.622-1.217,1.33,1.33,0,0,0-.616-1.141A3.951,3.951,0,0,0,9.72,1.447H6.737ZM20.119-7.874H37.976v3.951H31.985V8.126H26.11V-3.923H20.119Zm20.54,0h5.874v6.046l6.153-6.046H60.5L53.563-1.835l7.248,9.961H53.577l-4.008-6.58L46.534,4.222v3.9H40.66Z" transform="translate(9.189 11.874)"/>
  </g>
</svg>
