<svg xmlns="http://www.w3.org/2000/svg" xmlns:xlink="http://www.w3.org/1999/xlink" width="80" height="24" viewBox="0 0 80 24">
  <defs>
    <clipPath id="clip-cds">
      <rect width="80" height="24"/>
    </clipPath>
  </defs>
  <g id="cds" clip-path="url(#clip-cds)">
    <rect width="80" height="24" fill="#fff"/>
    <g id="Group_18" data-name="Group 18" transform="translate(85.978 -30.593)">
      <path id="Path_64" data-name="Path 64" d="M-57.471,45.983c-.972,2.641-3.733,4.61-8.689,4.61-6.524,0-9.818-3.535-9.818-7.944,0-4.229,3.294-8.056,9.913-8.056,5.143,0,7.936,2.1,8.594,4.7h-2.886c-.784-1.7-2.353-2.976-5.8-2.976-4.83,0-6.775,3.133-6.775,6.266,0,3.065,1.851,6.288,6.9,6.288,3.357,0,4.831-1.387,5.647-2.887Z" fill="#003d87"/>
      <path id="Path_65" data-name="Path 65" d="M-53.24,34.817h7.78c6.148,0,10.288,3,10.288,7.631,0,4.61-4.046,7.944-10.382,7.944H-53.24Zm2.886,13.829h4.58c5.145,0,7.56-2.641,7.56-6.154,0-3.065-2.227-5.908-7.56-5.908h-4.58Z" fill="#003d87"/>
      <path id="Path_66" data-name="Path 66" d="M-29.278,46.051c.6,1.879,2.385,2.886,5.553,2.886,3.387,0,4.736-1.141,4.736-2.618,0-1.566-1.067-2.439-5.427-3.178-5.144-.894-6.932-2.148-6.932-4.341,0-2.327,2.385-4.207,7.247-4.207,5.206,0,7.339,2.149,7.653,4.185H-19.4c-.408-1.366-1.6-2.506-4.8-2.506-2.667,0-4.141.85-4.141,2.327,0,1.454,1.224,2.036,5.051,2.707,6.211,1.074,7.308,2.8,7.308,4.812,0,2.506-2.6,4.475-7.936,4.475-5.489,0-7.842-2.148-8.312-4.542Z" fill="#003d87"/>
    </g>
  </g>
</svg>
