<svg xmlns="http://www.w3.org/2000/svg" xmlns:xlink="http://www.w3.org/1999/xlink" width="80" height="24" viewBox="0 0 80 24">
  <defs>
    <clipPath id="clip-CHINA">
      <rect width="80" height="24"/>
    </clipPath>
  </defs>
  <g id="CHINA" clip-path="url(#clip-CHINA)">
    <rect width="80" height="24" fill="#fff"/>
    <g id="Group_45" data-name="Group 45" transform="translate(-350.941 -61.451)">
      <path id="Path_163" data-name="Path 163" d="M370.086,74.5l3.142.95a5.783,5.783,0,0,1-1,2.208A4.322,4.322,0,0,1,370.541,79a6.318,6.318,0,0,1-2.569.452,7.46,7.46,0,0,1-3.09-.55,4.907,4.907,0,0,1-2.071-1.935,6.557,6.557,0,0,1-.87-3.544A6.019,6.019,0,0,1,363.473,69a6.972,6.972,0,0,1,7.78-.66,5.211,5.211,0,0,1,1.865,2.723l-3.167.7a2.73,2.73,0,0,0-.348-.776,2.074,2.074,0,0,0-.736-.633,2.263,2.263,0,0,0-2.842.759,4.162,4.162,0,0,0-.491,2.285,4.349,4.349,0,0,0,.586,2.645,2.313,2.313,0,0,0,3.2.137A3.571,3.571,0,0,0,370.086,74.5Z" fill="#333"/>
      <path id="Path_164" data-name="Path 164" d="M374.986,67.648h3.585v4.06h3.919v-4.06h3.6v11.6h-3.6V74.558h-3.919v4.694h-3.585Z" fill="#333"/>
      <path id="Path_165" data-name="Path 165" d="M388.616,67.648h3.594v11.6h-3.594Z" fill="#333"/>
      <path id="Path_166" data-name="Path 166" d="M394.806,67.648h3.348l4.37,6.42v-6.42h3.38v11.6h-3.38l-4.346-6.371v6.371h-3.372Z" fill="#333"/>
      <path id="Path_167" data-name="Path 167" d="M415.262,77.337h-4.071l-.565,1.915h-3.662l4.362-11.6h3.911l4.361,11.6h-3.755Zm-.743-2.509-1.282-4.172-1.267,4.172Z" fill="#333"/>
    </g>
  </g>
</svg>
