<svg xmlns="http://www.w3.org/2000/svg" xmlns:xlink="http://www.w3.org/1999/xlink" width="80" height="24" viewBox="0 0 80 24">
  <defs>
    <clipPath id="clip-czg">
      <rect width="80" height="24"/>
    </clipPath>
  </defs>
  <g id="czg" clip-path="url(#clip-czg)">
    <rect width="80" height="24" fill="#fff"/>
    <path id="Path_405" data-name="Path 405" d="M14.055,1.4l5.221,1.266a7.126,7.126,0,0,1-1.657,2.945A7.164,7.164,0,0,1,14.811,7.39a12.817,12.817,0,0,1-4.268.6,15.113,15.113,0,0,1-5.136-.733A7.735,7.735,0,0,1,1.968,4.68,7.431,7.431,0,0,1,.521-.045a7.157,7.157,0,0,1,2.545-5.9q2.545-2.062,7.2-2.062a11.661,11.661,0,0,1,5.728,1.182,7.154,7.154,0,0,1,3.1,3.631l-5.261.939a3.335,3.335,0,0,0-.579-1.034,3.334,3.334,0,0,0-1.223-.844,4.242,4.242,0,0,0-1.618-.3,3.794,3.794,0,0,0-3.1,1.307A4.684,4.684,0,0,0,6.492-.077q0,2.572.973,3.526A3.743,3.743,0,0,0,10.2,4.4a3.8,3.8,0,0,0,2.584-.77A4.42,4.42,0,0,0,14.055,1.4Zm7.628-9.14H38.544v3.092L27.72,4.4H38.938V7.728H20.644V4.519l10.71-8.96H21.683ZM51.315,2.124V-1.1h9.206V5.5a20.867,20.867,0,0,1-4.676,1.968,19.537,19.537,0,0,1-4.82.522,14.18,14.18,0,0,1-5.6-.939,7.341,7.341,0,0,1-3.354-2.8,7.73,7.73,0,0,1-1.19-4.264,7.526,7.526,0,0,1,1.3-4.406A7.989,7.989,0,0,1,46-7.259a15.131,15.131,0,0,1,5.274-.749,18.257,18.257,0,0,1,4.781.464A6.432,6.432,0,0,1,58.686-6.1a6.066,6.066,0,0,1,1.572,2.475l-5.747.823a2.607,2.607,0,0,0-1.2-1.34,4.476,4.476,0,0,0-2.164-.464A4.38,4.38,0,0,0,48.02-3.518,4.543,4.543,0,0,0,46.856-.061a4.677,4.677,0,0,0,1.177,3.588A4.683,4.683,0,0,0,51.315,4.6a7.666,7.666,0,0,0,1.907-.232A11.606,11.606,0,0,0,55.3,3.58V2.124Z" transform="translate(9.479 12.008)" fill="#228200"/>
  </g>
</svg>
