<svg xmlns="http://www.w3.org/2000/svg" xmlns:xlink="http://www.w3.org/1999/xlink" width="80" height="24" viewBox="0 0 80 24">
  <defs>
    <linearGradient id="linear-gradient" x1="0.39" y1="0.045" x2="0.524" y2="0.862" gradientUnits="objectBoundingBox">
      <stop offset="0" stop-color="#008cff"/>
      <stop offset="0.033" stop-color="#0d92ff"/>
      <stop offset="0.096" stop-color="#2fa2ff"/>
      <stop offset="0.18" stop-color="#68bcff"/>
      <stop offset="0.282" stop-color="#b5dfff"/>
      <stop offset="0.32" stop-color="#d4eeff"/>
      <stop offset="0.465" stop-color="#9bd4ff"/>
      <stop offset="0.654" stop-color="#59b5ff"/>
      <stop offset="0.812" stop-color="#299eff"/>
      <stop offset="0.932" stop-color="#0b91ff"/>
      <stop offset="1" stop-color="#008cff"/>
    </linearGradient>
    <clipPath id="clip-DAIDO">
      <rect width="80" height="24"/>
    </clipPath>
  </defs>
  <g id="DAIDO" clip-path="url(#clip-DAIDO)">
    <rect width="80" height="24" fill="#fff"/>
    <g id="Group_54" data-name="Group 54" transform="translate(-172.817 -125.143)">
      <path id="Path_211" data-name="Path 211" d="M185.881,145.143c.205-.5.48-.975.729-1.459l1.927-3.737q.557-1.08,1.11-2.162c.238-.465.47-.931.705-1.4a1.5,1.5,0,0,1,.239-.574c.06-.1.12-.206.17-.314.038-.078.065-.161.106-.237a4.31,4.31,0,0,0,.3-.589c.085-.162.178-.321.258-.485a4,4,0,0,0,.215-.442.545.545,0,0,1,.486-.347,2.273,2.273,0,0,0,.346-.067c.221-.049.445-.082.666-.129.409-.067.81-.17,1.221-.227.163.009.225.134.314.227.059.063.112.131.164.2s.1.123.149.186c.031.036.065.069.1.106s.039.061.063.089.063.064.091.1.038.06.06.088a.677.677,0,0,1,.062.089c.019.031.037.063.057.094s.046.059.069.089a.355.355,0,0,1,.031.048c.019.034.037.067.059.1s.058.078.084.12.038.066.057.1.037.066.055.1c.026.049.054.1.083.146s.044.082.066.124l.054.1a.932.932,0,0,1,.057.13c.014.035.03.07.047.1a.919.919,0,0,1,.06.137.357.357,0,0,1,.026.124.236.236,0,0,1-.015.065c-.454.9-.927,1.8-1.385,2.7-.1.207-.222.4-.322.609-.655,1.275-1.306,2.553-1.979,3.822-.058.111-.091.231-.155.339a7.462,7.462,0,0,1-1.524.8,16.057,16.057,0,0,1-2.88.922C187.242,144.981,186.566,145.016,185.881,145.143Z" fill="#1a1a1a"/>
      <path id="Path_212" data-name="Path 212" d="M207.628,145.447h3.4a5.33,5.33,0,0,1-.328-1.23c-.1-.846-.2-1.689-.294-2.535-.108-.967-.207-1.935-.313-2.9-.114-1.033-.246-2.059-.343-3.1-.025-.287-.1-.278-.222-.278-.888,0-1.774,0-2.663,0-.069,0-.148-.041-.213.042.2.606.2.606-.093,1.133-.034.063-.074.119-.106.18l-1.556,3.207c-.436.9-.863,1.817-1.3,2.7a18.634,18.634,0,0,1-1.411,2.549c-.038.051-.074.1-.112.155.008.024.019.066.028.066l1.825.017c.088,0,.1-.1.076-.187a1.309,1.309,0,0,1,.133-.967c.2-.448.429-.86.622-1.311.065-.153.12-.194.22-.194.877,0,1.757,0,2.635,0,.07,0,.135-.036.158.162a6.619,6.619,0,0,1,.1,1.789C207.821,145.031,207.643,145.163,207.628,145.447Zm-.266-4.379c-.514-.024-1.028-.007-1.542-.011a1.068,1.068,0,0,1-.119-.017c.5-1.058.982-2.08,1.5-3.179.072.586.137,1.105.2,1.63.048.391.088.79.139,1.182C207.573,140.926,207.575,141.079,207.362,141.068Z" transform="translate(0 -2.424)" fill="#1a1a1a"/>
      <path id="Path_213" data-name="Path 213" d="M225.774,135.3h-2.942a.117.117,0,0,0-.2,0,3.948,3.948,0,0,1-.552.006c-.174-.021-.178.133-.157.316a66.968,66.968,0,0,1-1.673,9.289c-.067.183-.016.327.115.343.181.027,1.051.044,1.184.044.9,0,1.806,0,2.707,0,2.36,0,3.042.252,3.559-2.576q.378-2.2.759-4.4C228.765,136.486,229.161,135.245,225.774,135.3Zm.313,2.137c-.14,1.135-.366,2.232-.548,3.346-.119.72-.248,1.438-.375,2.155-.061.35-.2.527-.435.52-.455-.008-.912,0-1.383,0,.34-2.042.674-4.037,1.008-6.034.045-.262.108-.432.32-.412a11.4,11.4,0,0,0,1.188.01C226.042,137.023,226.129,137.081,226.087,137.441Z" transform="translate(0 -2.268)" fill="#1a1a1a"/>
      <path id="Path_214" data-name="Path 214" d="M238.519,135.567a1.3,1.3,0,0,0-.63-.176c-.954,0-3.839,0-4.24.07-.791.132-1.6.616-1.817,2.267-.051.364-.914,5.3-.914,6.142a1.451,1.451,0,0,0,.55,1.36,1.328,1.328,0,0,0,.624.208c.842,0,1.686.008,2.527.011.559,0,1.117.025,1.673-.021.912-.068,1.571-.762,1.876-2.233.389-1.873.7-3.785.954-5.72A1.876,1.876,0,0,0,238.519,135.567Zm-2.024,2.2c-.2,1.237-.406,2.472-.611,3.709-.08.488-.173.968-.247,1.46-.087.564-.216.755-.563.755-.305,0-.607-.011-.912-.014-.461.014-.41-.556-.379-1.045.025-.46.293-2.663.388-3.093.08-.7.2-1.377.343-2.05.052-.245.126-.335.308-.342.455,0,.912-.014,1.366-.011C236.461,137.143,236.563,137.343,236.495,137.77Z" transform="translate(0 -2.414)" fill="#1a1a1a"/>
      <path id="Path_215" data-name="Path 215" d="M214.935,135.41l.907-.017a9.546,9.546,0,0,1,2.077.059.2.2,0,0,1,.068.093.361.361,0,0,1-.016.2,11.922,11.922,0,0,0-.685,2.92c-.286,1.642-.559,3.289-.836,4.934a6.486,6.486,0,0,0-.129,1.381c.022.487-.383.443-.479.444h-2.593a7.792,7.792,0,0,0,.466-1.558c.295-1.781.607-3.555.907-5.334.118-.7.213-1.42.334-2.123A4.613,4.613,0,0,0,214.935,135.41Z" transform="translate(0 -2.383)" fill="#1a1a1a"/>
      <path id="Path_216" data-name="Path 216" d="M185.817,145.143c19.361-5.932,6.025-14.061,4.44-15.2l6.86-.8C199.85,129.807,212.246,142.225,185.817,145.143Z" fill="url(#linear-gradient)"/>
    </g>
  </g>
</svg>
