<svg xmlns="http://www.w3.org/2000/svg" xmlns:xlink="http://www.w3.org/1999/xlink" width="80" height="24" viewBox="0 0 80 24">
  <defs>
    <clipPath id="clip-DEKORA">
      <rect width="80" height="24"/>
    </clipPath>
  </defs>
  <g id="DEKORA" clip-path="url(#clip-DEKORA)">
    <rect width="80" height="24" fill="#fff"/>
    <path id="Path_402" data-name="Path 402" d="M.762-7.082H5.035a4.229,4.229,0,0,1,2.041.427A3.523,3.523,0,0,1,8.362-5.428,5.661,5.661,0,0,1,9.1-3.568,10.652,10.652,0,0,1,9.327-1.32a9.578,9.578,0,0,1-.34,2.885,4.951,4.951,0,0,1-.943,1.718,2.991,2.991,0,0,1-1.3.922,5.456,5.456,0,0,1-1.714.317H.762ZM3.638-4.454v6.34h.7a2.448,2.448,0,0,0,1.283-.249,1.636,1.636,0,0,0,.6-.871,6.72,6.72,0,0,0,.216-2.015,4.667,4.667,0,0,0-.483-2.525,1.824,1.824,0,0,0-1.6-.681Zm7.194-2.628h7.708V-4.6H13.714V-2.76H18.19V-.394H13.714V1.894h4.965V4.522H10.832Zm9.41,0h2.876V-2.7L26.13-7.082h3.825l-3.4,4.38,3.549,7.224H26.566L24.6-.25,23.117,1.69V4.522H20.241Zm10.013,5.81A6.9,6.9,0,0,1,31.524-5.7,4.28,4.28,0,0,1,35.06-7.28a4.34,4.34,0,0,1,3.581,1.555A6.76,6.76,0,0,1,39.9-1.367a8.659,8.659,0,0,1-.549,3.336A4.559,4.559,0,0,1,37.762,4a4.413,4.413,0,0,1-2.587.724,4.957,4.957,0,0,1-2.606-.625A4.451,4.451,0,0,1,30.9,2.116,7.9,7.9,0,0,1,30.254-1.272Zm2.876.016a4.622,4.622,0,0,0,.524,2.525,1.639,1.639,0,0,0,1.425.768,1.632,1.632,0,0,0,1.435-.752,5.132,5.132,0,0,0,.508-2.7,4.239,4.239,0,0,0-.53-2.394,1.668,1.668,0,0,0-1.438-.756,1.62,1.62,0,0,0-1.4.768A4.637,4.637,0,0,0,33.13-1.257Zm8.356,5.778v-11.6h4.794a5.668,5.668,0,0,1,2.038.285,2.284,2.284,0,0,1,1.137,1.057,3.8,3.8,0,0,1,.432,1.88,3.875,3.875,0,0,1-.33,1.666,2.99,2.99,0,0,1-.908,1.136,3.083,3.083,0,0,1-1.01.459,2.652,2.652,0,0,1,.749.428,3.406,3.406,0,0,1,.46.61,4.726,4.726,0,0,1,.4.721l1.393,3.363h-3.25L45.854.976a2.74,2.74,0,0,0-.521-.894,1.048,1.048,0,0,0-.7-.269h-.254v4.71Zm2.889-6.9h1.213a3.551,3.551,0,0,0,.762-.158.761.761,0,0,0,.467-.364A1.254,1.254,0,0,0,47-3.576a1.2,1.2,0,0,0-.286-.863,1.47,1.47,0,0,0-1.073-.3H44.374Zm12.91,4.987H54.019l-.454,1.916H50.628l3.5-11.6h3.137l3.5,11.6H57.75ZM56.688.1,55.66-4.074,54.643.1Z" transform="translate(9.238 13.28)" fill="#da0368"/>
  </g>
</svg>
