<svg xmlns="http://www.w3.org/2000/svg" xmlns:xlink="http://www.w3.org/1999/xlink" width="80" height="24" viewBox="0 0 80 24">
  <defs>
    <clipPath id="clip-diamond">
      <rect width="80" height="24"/>
    </clipPath>
  </defs>
  <g id="diamond" clip-path="url(#clip-diamond)">
    <rect width="80" height="24" fill="#fff"/>
    <g id="Group_3" data-name="Group 3" transform="translate(-260.776 -60.451)">
      <path id="Path_12" data-name="Path 12" d="M270.776,67.672h4.474a5.2,5.2,0,0,1,1.48.189,2.1,2.1,0,0,1,1.055.718,3.618,3.618,0,0,1,.638,1.456,13.728,13.728,0,0,1,0,4.829,3.556,3.556,0,0,1-.638,1.449,2.114,2.114,0,0,1-1.055.712,5.2,5.2,0,0,1-1.48.189h-4.474Zm2.049,7.44h2.415a1.627,1.627,0,0,0,.653-.117.907.907,0,0,0,.429-.411,2.358,2.358,0,0,0,.23-.81,10.538,10.538,0,0,0,.068-1.324,10.055,10.055,0,0,0-.073-1.332,2.5,2.5,0,0,0-.236-.823.875.875,0,0,0-.428-.411,1.68,1.68,0,0,0-.643-.111h-2.415Z" fill="red"/>
      <path id="Path_13" data-name="Path 13" d="M281.794,67.672v9.542h-2.049V67.672Z" fill="red"/>
      <path id="Path_14" data-name="Path 14" d="M286.341,67.672h2.216l3.742,9.542h-2.07l-.7-1.854h-4.1l-.7,1.854H282.6Zm-.178,5.744h2.624l-1.317-3.473Z" fill="red"/>
      <path id="Path_15" data-name="Path 15" d="M297.055,77.214l-2.08-6.33v6.33H293.1V67.672h2.728l2.227,6.814,2.289-6.814h2.686v9.542h-1.871V70.909l-2.1,6.305Z" fill="red"/>
      <path id="Path_16" data-name="Path 16" d="M308.208,77.451a6.531,6.531,0,0,1-2.059-.27,2.49,2.49,0,0,1-1.238-.868,3.57,3.57,0,0,1-.607-1.546,16.587,16.587,0,0,1,0-4.625,3.578,3.578,0,0,1,.607-1.552,2.485,2.485,0,0,1,1.238-.868,7.99,7.99,0,0,1,4.119,0,2.485,2.485,0,0,1,1.238.868,3.553,3.553,0,0,1,.606,1.552,16.486,16.486,0,0,1,0,4.625,3.545,3.545,0,0,1-.606,1.546,2.49,2.49,0,0,1-1.238.868A6.537,6.537,0,0,1,308.208,77.451Zm0-7.869a3.214,3.214,0,0,0-1.06.145,1.214,1.214,0,0,0-.622.48,2.125,2.125,0,0,0-.293.888,12.62,12.62,0,0,0,0,2.711,2.117,2.117,0,0,0,.293.888,1.205,1.205,0,0,0,.622.48,3.951,3.951,0,0,0,2.121,0,1.209,1.209,0,0,0,.622-.48,2.117,2.117,0,0,0,.293-.888,12.62,12.62,0,0,0,0-2.711,2.125,2.125,0,0,0-.293-.888,1.218,1.218,0,0,0-.622-.48A3.216,3.216,0,0,0,308.208,69.582Z" fill="red"/>
      <path id="Path_17" data-name="Path 17" d="M319.6,74.434V67.672h1.892v9.542h-2.488l-3.722-6.526v6.526h-1.9V67.672h2.425Z" fill="red"/>
      <path id="Path_18" data-name="Path 18" d="M322.916,67.672h4.474a5.2,5.2,0,0,1,1.479.189,2.111,2.111,0,0,1,1.056.718,3.618,3.618,0,0,1,.637,1.456,13.728,13.728,0,0,1,0,4.829,3.555,3.555,0,0,1-.637,1.449,2.121,2.121,0,0,1-1.056.712,5.2,5.2,0,0,1-1.479.189h-4.474Zm2.049,7.44h2.414a1.624,1.624,0,0,0,.653-.117.907.907,0,0,0,.429-.411,2.337,2.337,0,0,0,.23-.81,10.538,10.538,0,0,0,.068-1.324,10.055,10.055,0,0,0-.073-1.332,2.524,2.524,0,0,0-.235-.823.877.877,0,0,0-.429-.411,1.676,1.676,0,0,0-.643-.111h-2.414Z" fill="red"/>
    </g>
  </g>
</svg>
