<svg xmlns="http://www.w3.org/2000/svg" xmlns:xlink="http://www.w3.org/1999/xlink" width="80" height="24" viewBox="0 0 80 24">
  <defs>
    <linearGradient id="linear-gradient" x1="0.5" y1="0.951" x2="0.5" y2="0.122" gradientUnits="objectBoundingBox">
      <stop offset="0.016" stop-color="#7d1416"/>
      <stop offset="0.023" stop-color="#821517"/>
      <stop offset="0.043" stop-color="#8c1719"/>
      <stop offset="0.067" stop-color="#90181a"/>
      <stop offset="0.405" stop-color="#dd1d24"/>
      <stop offset="0.472" stop-color="#eb1c24"/>
      <stop offset="0.654" stop-color="#c61b21"/>
      <stop offset="0.81" stop-color="#a31b1f"/>
      <stop offset="0.951" stop-color="#8c191c"/>
    </linearGradient>
    <clipPath id="clip-efex">
      <rect width="80" height="24"/>
    </clipPath>
  </defs>
  <g id="efex" clip-path="url(#clip-efex)">
    <rect width="80" height="24" fill="#fff"/>
    <path id="Path_86" data-name="Path 86" d="M236.782,5.47a2.18,2.18,0,0,0-2.37,1.912,2.424,2.424,0,0,0,4.738,0A2.179,2.179,0,0,0,236.782,5.47Zm0,3.451a1.65,1.65,0,0,1-1.792-1.539,1.815,1.815,0,0,1,3.588,0A1.654,1.654,0,0,1,236.782,8.921Zm1.075-2c0-.456-.348-.635-.988-.635h-1V8.455h.5V7.521h.3l.695.934h.513l-.722-.947C237.6,7.474,237.857,7.3,237.857,6.925Zm-1.488.292V6.6h.444c.261,0,.547.045.547.3,0,.292-.254.325-.552.325Zm-39.833,10.66A19.512,19.512,0,0,0,202.381,20a44.829,44.829,0,0,1-11.413-1.846,17.61,17.61,0,0,0,3.425.016C195.142,18.114,195.88,17.991,196.536,17.877Zm-4.684-7.86c-.529.077-.962.231-1.416.3a58.44,58.44,0,0,1,18.31-5.539A72.141,72.141,0,0,1,220.8,4.021c-1.455.121-2.886.329-4.4.549-7.841,1.133-14.642,3.471-19.1,6.19a7.511,7.511,0,0,0-3.477-.868A12.025,12.025,0,0,0,191.852,10.017Zm4.338,7.191a5.466,5.466,0,0,0,2.336-1.455l-4.223-.236a2.616,2.616,0,0,1-.747.427,3.659,3.659,0,0,1-1.2.192,2.776,2.776,0,0,1-1.623-.438,1.342,1.342,0,0,1-.557-.925h8.588v-.3a3.167,3.167,0,0,0-.719-2.161,4.542,4.542,0,0,0-2.118-1.27,13.192,13.192,0,0,0-3.795-.438,9.26,9.26,0,0,0-4.637.98,2.888,2.888,0,0,0-1.677,2.555,2.621,2.621,0,0,0,.835,1.931,4.968,4.968,0,0,0,2.111,1.2,12.849,12.849,0,0,0,3.5.377A13.468,13.468,0,0,0,196.19,17.208Zm-5.512-4.58a2.527,2.527,0,0,1,1.636-.492,2.737,2.737,0,0,1,1.426.328,1.436,1.436,0,0,1,.665,1.067h-4.223A1.432,1.432,0,0,1,190.678,12.628Zm13.892-3.95q1.05,0,3.056.148l-.443,1.455c-.478-.047-.864-.072-1.161-.072a2,2,0,0,0-.775.11.657.657,0,0,0-.335.347,2.023,2.023,0,0,0-.047.551h1.906v1.762h-1.906V17.5h-4.009v-4.52h-1.491V11.217h1.491v-.284a2.943,2.943,0,0,1,.138-.845,1.453,1.453,0,0,1,.515-.756,2.977,2.977,0,0,1,1.06-.475A8.56,8.56,0,0,1,204.57,8.678Zm13.766,2.369a13.1,13.1,0,0,0-3.788-.438,9.27,9.27,0,0,0-4.644.98,2.888,2.888,0,0,0-1.677,2.555,2.621,2.621,0,0,0,.835,1.931,5.008,5.008,0,0,0,2.112,1.2,12.836,12.836,0,0,0,3.5.377,13.362,13.362,0,0,0,3.924-.443,5.45,5.45,0,0,0,2.342-1.455l-4.223-.236a2.514,2.514,0,0,1-.747.427,3.626,3.626,0,0,1-1.2.192,2.778,2.778,0,0,1-1.623-.438,1.387,1.387,0,0,1-.556-.925h8.594v-.3a3.171,3.171,0,0,0-.726-2.161A4.507,4.507,0,0,0,218.336,11.047ZM212.6,13.531a1.394,1.394,0,0,1,.489-.9,2.54,2.54,0,0,1,1.636-.492,2.72,2.72,0,0,1,1.426.328,1.44,1.44,0,0,1,.672,1.067Zm18.877.44,4.09,3.528h-5l-2.068-2.169L226.068,17.5h-4.645l4.06-3.528-3.849-3.211h5.087l1.774,1.881,2.068-1.881h4.73Z" transform="translate(-172.817 0)" fill="url(#linear-gradient)"/>
  </g>
</svg>
