<svg xmlns="http://www.w3.org/2000/svg" xmlns:xlink="http://www.w3.org/1999/xlink" width="80" height="24" viewBox="0 0 80 24">
  <defs>
    <clipPath id="clip-EXEDY">
      <rect width="80" height="24"/>
    </clipPath>
  </defs>
  <g id="EXEDY" clip-path="url(#clip-EXEDY)">
    <rect width="80" height="24" fill="#fff"/>
    <g id="Group_50" data-name="Group 50" transform="translate(-86.506 -125.143)">
      <g id="Group_49" data-name="Group 49">
        <path id="Path_185" data-name="Path 185" d="M144.657,130.455h3.723l2.209,5.211,3.884-5.066h4.033l-6.592,8.531-.849,4.532H147.33l.962-4.808-3.635-8.4Z" fill="#2e3190" fill-rule="evenodd"/>
        <path id="Path_186" data-name="Path 186" d="M134.717,130.375s2.609.048,4.8.048,5.094.226,5.844,4.224a7.731,7.731,0,0,1-2.112,7.447c-1.235,1.2-2.822,1.457-5.057,1.457h-5.52l2.049-13.176Zm1.636,9.906H138.3a4.159,4.159,0,0,0,2.686-.7,4.114,4.114,0,0,0,1.349-3.5c-.1-1.974-1.987-2.364-3.123-2.364H137.39l-1.037,6.557Z" fill="#2e3190" fill-rule="evenodd"/>
        <path id="Path_187" data-name="Path 187" d="M133.63,130.439s-4.982-.033-7.53-.033a4.031,4.031,0,0,0-4.121,3.416,61.588,61.588,0,0,0-1.088,6.863c-.111,1.586.525,2.816,2.748,2.816h7.968l.55-3.285s-4.958.016-6.445.016c-1.774,0-1.537-.972-1.5-1.327a4.564,4.564,0,0,1,.088-.5h7.193l.424-2.913h-7.143a4.541,4.541,0,0,1,.163-.7,1.578,1.578,0,0,1,1.736-1.116H133.1l.525-3.238Z" fill="#2e3190" fill-rule="evenodd"/>
        <path id="Path_188" data-name="Path 188" d="M116.745,137.4l3.935,6.087h-4.208l-2.073-3.4,2.347-2.688Z" fill="#2e3190" fill-rule="evenodd"/>
        <path id="Path_189" data-name="Path 189" d="M108.079,130.261h4.271l2.36,3.9-2.41,2.687-4.221-6.587Z" fill="#2e3190" fill-rule="evenodd"/>
        <path id="Path_190" data-name="Path 190" d="M107.255,130.293s-4.983-.032-7.531-.032a4.016,4.016,0,0,0-4.12,3.4,60.8,60.8,0,0,0-1.086,6.879c-.113,1.587.523,2.817,2.747,2.817h7.967l.55-3.3s-4.958.032-6.445.032c-1.773,0-1.536-.987-1.5-1.343.025-.227.089-.5.089-.5h7.192l.425-2.9H98.4a4.063,4.063,0,0,1,.162-.7,1.577,1.577,0,0,1,1.736-1.117h6.431l.525-3.237Z" fill="#2e3190" fill-rule="evenodd"/>
      </g>
      <path id="Path_191" data-name="Path 191" d="M107.866,145.1s1.15.276,3.147-1.392c1.723-1.457,4.209-4.517,5.983-6.443s3.882-4.386,4.957-5.5a11.37,11.37,0,0,1,3.472-2.623,5.275,5.275,0,0,0-3.272,1.473c-1.71,1.506-5.146,5.617-6.843,7.495s-3.6,4.062-4.9,5.3a8.492,8.492,0,0,1-2.548,1.7Z" fill="#d13f41" fill-rule="evenodd"/>
      <path id="Path_192" data-name="Path 192" d="M105.57,145.089s1.334.518,3.821-1.653c1.41-1.229,5.369-5.728,7.03-7.623s3.335-3.787,4.259-4.7a10.593,10.593,0,0,1,2.747-1.942s-1.25-.307-3.248,1.23c-2.01,1.521-4.92,5.213-6.306,6.718s-3.384,3.819-5.146,5.616a10.511,10.511,0,0,1-3.157,2.349Z" fill="#d13f41" fill-rule="evenodd"/>
      <path id="Path_193" data-name="Path 193" d="M103.684,145.089s1.086.273,3.1-1.426,5.208-5.5,6.758-7.2,4.021-4.662,5.206-5.666a13.181,13.181,0,0,1,2.46-1.619,5.088,5.088,0,0,0-3.309,1.473c-1.748,1.57-4.194,4.58-5.857,6.361-1.461,1.571-4.345,4.889-5.644,6.151a11.829,11.829,0,0,1-2.709,1.928Z" fill="#d13f41" fill-rule="evenodd"/>
    </g>
  </g>
</svg>
