<svg xmlns="http://www.w3.org/2000/svg" xmlns:xlink="http://www.w3.org/1999/xlink" width="80" height="24" viewBox="0 0 80 24">
  <defs>
    <clipPath id="clip-EXTRANEOUS">
      <rect width="80" height="24"/>
    </clipPath>
  </defs>
  <g id="EXTRANEOUS" clip-path="url(#clip-EXTRANEOUS)">
    <rect width="80" height="24" fill="#fff"/>
    <g id="Group_46" data-name="Group 46" transform="translate(-350.769 -90.621)">
      <path id="Path_168" data-name="Path 168" d="M360.769,98.621h5.8v1.89h-3.631v1.408h3.368v1.806h-3.368v1.746h3.736v2h-5.9Z" fill="#333"/>
      <path id="Path_169" data-name="Path 169" d="M367.276,101.061h2.308l.8,1.788.939-1.788h2.145l-1.73,3.057,1.855,3.358h-2.27l-.939-2.066-1.1,2.066h-2.106l1.842-3.358Z" fill="#333"/>
      <path id="Path_170" data-name="Path 170" d="M376.583,98.621v2.44h1.07v1.8h-1.07v2.273a1.5,1.5,0,0,0,.062.542.338.338,0,0,0,.334.2,1.743,1.743,0,0,0,.6-.157l.143,1.7a5.032,5.032,0,0,1-1.347.2,1.922,1.922,0,0,1-1.07-.235,1.377,1.377,0,0,1-.509-.715,5.233,5.233,0,0,1-.165-1.554v-2.256h-.716v-1.8h.716V99.883Z" fill="#333"/>
      <path id="Path_171" data-name="Path 171" d="M378.6,101.061h1.82v1.051a2.545,2.545,0,0,1,.542-.939.985.985,0,0,1,.69-.257,1.746,1.746,0,0,1,.942.338l-.6,1.752a1.28,1.28,0,0,0-.545-.181.648.648,0,0,0-.592.4,4.97,4.97,0,0,0-.3,2.1v2.15H378.6Z" fill="#333"/>
      <path id="Path_172" data-name="Path 172" d="M384.862,103.139,383,102.892a3.091,3.091,0,0,1,.3-.97,1.855,1.855,0,0,1,.571-.614,2.092,2.092,0,0,1,.735-.29,4.829,4.829,0,0,1,1.013-.1,6.381,6.381,0,0,1,1.4.124,1.675,1.675,0,0,1,.884.516,1.924,1.924,0,0,1,.391.77,3.435,3.435,0,0,1,.144.952v2.833a4.318,4.318,0,0,0,.045.709,3.788,3.788,0,0,0,.2.656h-1.825a2.636,2.636,0,0,1-.143-.378,3.642,3.642,0,0,1-.067-.407,2.259,2.259,0,0,1-1.959.93,1.742,1.742,0,0,1-1.378-.532,1.9,1.9,0,0,1-.47-1.311,2.007,2.007,0,0,1,.339-1.2,2.116,2.116,0,0,1,1.251-.7q1.095-.277,1.419-.39a5.569,5.569,0,0,0,.688-.293,1.024,1.024,0,0,0-.148-.634.638.638,0,0,0-.52-.181,1.122,1.122,0,0,0-.717.193A1.1,1.1,0,0,0,384.862,103.139Zm1.686,1.293a7.774,7.774,0,0,1-.836.32,1.756,1.756,0,0,0-.75.392.7.7,0,0,0-.162.454.691.691,0,0,0,.16.473.584.584,0,0,0,.47.185,1.026,1.026,0,0,0,.605-.2,1.118,1.118,0,0,0,.4-.487,2,2,0,0,0,.117-.745Z" fill="#333"/>
      <path id="Path_173" data-name="Path 173" d="M389.615,101.061h1.811v1.045a3.019,3.019,0,0,1,.822-.915,1.8,1.8,0,0,1,1.013-.275,1.49,1.49,0,0,1,1.263.607,3.127,3.127,0,0,1,.457,1.876v4.077h-1.954v-3.528a1.537,1.537,0,0,0-.177-.854.572.572,0,0,0-.5-.251.659.659,0,0,0-.573.339,2.373,2.373,0,0,0-.22,1.213v3.081h-1.945Z" fill="#333"/>
      <path id="Path_174" data-name="Path 174" d="M401.774,104.879h-3.9a1.854,1.854,0,0,0,.253.881.855.855,0,0,0,.736.418.937.937,0,0,0,.544-.182,1.447,1.447,0,0,0,.339-.4l1.916.224a3.226,3.226,0,0,1-1.06,1.386,3.171,3.171,0,0,1-1.782.42,3,3,0,0,1-1.586-.359,2.667,2.667,0,0,1-.959-1.142,4.182,4.182,0,0,1-.379-1.84,3.721,3.721,0,0,1,.762-2.434,2.571,2.571,0,0,1,2.1-.93,3.1,3.1,0,0,1,1.72.417,2.591,2.591,0,0,1,.96,1.208,5.42,5.42,0,0,1,.33,2.06ZM399.8,103.7a1.9,1.9,0,0,0-.3-1.02.79.79,0,0,0-.647-.309.837.837,0,0,0-.741.466,2.017,2.017,0,0,0-.225.863Z" fill="#333"/>
      <path id="Path_175" data-name="Path 175" d="M402.429,104.287a3.684,3.684,0,0,1,.783-2.42,2.6,2.6,0,0,1,2.117-.951,2.626,2.626,0,0,1,2.3,1.117,3.8,3.8,0,0,1,.626,2.217,3.7,3.7,0,0,1-.776,2.425,2.9,2.9,0,0,1-4.126.161A3.546,3.546,0,0,1,402.429,104.287Zm1.949-.007a2.307,2.307,0,0,0,.275,1.269.787.787,0,0,0,1.38.006,2.4,2.4,0,0,0,.27-1.3,2.266,2.266,0,0,0-.272-1.241.8.8,0,0,0-.674-.408.822.822,0,0,0-.7.414A2.288,2.288,0,0,0,404.378,104.28Z" fill="#333"/>
      <path id="Path_176" data-name="Path 176" d="M414.539,107.476h-1.815v-1.039a2.989,2.989,0,0,1-.819.912,1.8,1.8,0,0,1-1.016.272,1.485,1.485,0,0,1-1.258-.607,3.107,3.107,0,0,1-.457-1.87v-4.083h1.954v3.528a1.553,1.553,0,0,0,.177.857.57.57,0,0,0,.5.254.664.664,0,0,0,.571-.338,2.366,2.366,0,0,0,.222-1.214v-3.087h1.944Z" fill="#333"/>
      <path id="Path_177" data-name="Path 177" d="M415.375,105.694l1.931-.23a1.247,1.247,0,0,0,.334.623.844.844,0,0,0,.573.187.829.829,0,0,0,.607-.212.51.51,0,0,0,.167-.391.464.464,0,0,0-.22-.411,3.418,3.418,0,0,0-.836-.253,7.252,7.252,0,0,1-1.407-.413,1.584,1.584,0,0,1-.663-.642,1.968,1.968,0,0,1-.271-1.032,2,2,0,0,1,.292-1.093,1.787,1.787,0,0,1,.8-.685,3.452,3.452,0,0,1,1.371-.226,3.827,3.827,0,0,1,1.34.175,1.744,1.744,0,0,1,.721.544,3.037,3.037,0,0,1,.48,1l-1.844.229a.752.752,0,0,0-.793-.646.662.662,0,0,0-.48.148.485.485,0,0,0-.151.359.393.393,0,0,0,.192.355,2.519,2.519,0,0,0,.831.217,4.721,4.721,0,0,1,1.443.387,1.7,1.7,0,0,1,.723.706,2.055,2.055,0,0,1,.251,1.007,2.367,2.367,0,0,1-.265,1.081,1.952,1.952,0,0,1-.836.835,3.274,3.274,0,0,1-1.555.311,3.069,3.069,0,0,1-1.98-.5A2.345,2.345,0,0,1,415.375,105.694Z" fill="#333"/>
    </g>
  </g>
</svg>
