<svg xmlns="http://www.w3.org/2000/svg" xmlns:xlink="http://www.w3.org/1999/xlink" width="80" height="24" viewBox="0 0 80 24">
  <defs>
    <clipPath id="clip-ezam">
      <rect width="80" height="24"/>
    </clipPath>
  </defs>
  <g id="ezam" clip-path="url(#clip-ezam)">
    <rect width="80" height="24" fill="#fff"/>
    <g id="Group_94" data-name="Group 94" transform="translate(0 -0.07)">
      <g id="Group_91" data-name="Group 91">
        <path id="Path_409" data-name="Path 409" d="M68.7,8.5c-.044-.038-.086-.077-.126-.118-.012-.014-.025-.028-.036-.042.12-.018.239-.032.358-.041a3.892,3.892,0,0,1,.684.007c.467.05.293.21-.126.359A.757.757,0,0,1,68.7,8.5Z" fill="#27459d"/>
        <path id="Path_410" data-name="Path 410" d="M69.441,7.187a4.766,4.766,0,0,1-.694.164,4.856,4.856,0,0,1-.483.056c.008-.076.021-.153.036-.236a2.586,2.586,0,0,1,.167-.53,7.957,7.957,0,0,1,.627-1.165,3.388,3.388,0,0,1,.388-.526,2.163,2.163,0,0,1,.5-.413,1.9,1.9,0,0,1,1.287-.268,1.131,1.131,0,0,1,.6.257.761.761,0,0,1,.27.5.744.744,0,0,1-.116.416,2.32,2.32,0,0,1-.289.407,4.5,4.5,0,0,1-1.026.773A6.078,6.078,0,0,1,69.441,7.187Z" fill="#27459d"/>
        <path id="Path_411" data-name="Path 411" d="M80,10.192,69.907,20.086,59.583,9.966,69.676.07,78.1,8.333c-.312.679-.77,1.6-.944,1.879a9.165,9.165,0,0,1-.85,1.127,11.237,11.237,0,0,1-2.156,1.892A9.857,9.857,0,0,1,71.565,14.5a6.141,6.141,0,0,1-1.414.247,5.11,5.11,0,0,1-1.389-.115,4.635,4.635,0,0,1-1.227-.454,3.855,3.855,0,0,1-.943-.678,2.3,2.3,0,0,1-.515-.792,3.677,3.677,0,0,1-.211-.975,4.245,4.245,0,0,1,.059-1.2,2.881,2.881,0,0,1,.51-1.182,1.836,1.836,0,0,1,.46-.43,4.111,4.111,0,0,1,.63-.314c.058-.023.116-.046.176-.066a1.9,1.9,0,0,0,.182.115,2.5,2.5,0,0,0,.4.18c.066.022.131.045.193.063a1.355,1.355,0,0,0,.219.057,2.575,2.575,0,0,0,.829-.02,1.646,1.646,0,0,0,.416-.1.761.761,0,0,0,.378-.3.454.454,0,0,0,.032-.062c.006-.012.009-.02.015-.035a.366.366,0,0,0,.017-.059.38.38,0,0,0-.04-.255.579.579,0,0,0-.256-.222,1.423,1.423,0,0,0-.433-.116,3.554,3.554,0,0,0-.8-.005c-.193.02-.385.048-.573.083a1.018,1.018,0,0,1-.025-.148,6.189,6.189,0,0,0,2.836-.309A3.879,3.879,0,0,0,72.5,6.556a1.686,1.686,0,0,0,.487-.817,1.277,1.277,0,0,0-.175-1,1.761,1.761,0,0,0-.7-.578,3.471,3.471,0,0,0-.773-.266A3.17,3.17,0,0,0,69.736,4a3.652,3.652,0,0,0-.75.356,3.95,3.95,0,0,0-.648.512,4.723,4.723,0,0,0-.995,1.261,2.817,2.817,0,0,0-.287.848,1.593,1.593,0,0,0-.017.333,1.923,1.923,0,0,1-.428-.149,1.89,1.89,0,0,1-.959-.935.874.874,0,0,1-.039-.528,1.115,1.115,0,0,1,.246-.507,1.264,1.264,0,0,1,.516-.328,3.168,3.168,0,0,1,.708-.15l0-.011a1.6,1.6,0,0,0-.769-.162,1.355,1.355,0,0,0-.805.288,1.383,1.383,0,0,0-.455.749,1.089,1.089,0,0,0,.166.88,1.784,1.784,0,0,0,.628.529,7.534,7.534,0,0,0,.7.317,4.027,4.027,0,0,0,.507.181,1.554,1.554,0,0,0,.148.48,1.234,1.234,0,0,0,.089.154c-.229.074-.456.154-.682.243a3.35,3.35,0,0,0-.736.421,5.478,5.478,0,0,0-1.178,1.191,4.147,4.147,0,0,0-.723,1.593,3.26,3.26,0,0,0,.169,1.883,3.448,3.448,0,0,0,1.224,1.524,4.334,4.334,0,0,0,1.659.684,6.047,6.047,0,0,0,1.68.079,9.335,9.335,0,0,0,1.565-.291c.5-.132.985-.289,1.462-.46a20.127,20.127,0,0,0,2.762-1.209A28.9,28.9,0,0,0,77.1,12.213c.618-.415,1.9-1.293,2.9-2.026Z" fill="#27459d"/>
      </g>
      <g id="Group_92" data-name="Group 92">
        <path id="Path_412" data-name="Path 412" d="M22.77,20.106q-.281,0-.476.538a1.93,1.93,0,0,0-.142.592c0,.257.253.386.761.386.086,0,.18,0,.28-.012q-.128.465-1,.883-.064.031-.279.1c-.075.026-.113.056-.113.09,0,.065.049.1.147.122a5.362,5.362,0,0,0,.773.086c.046,0,.121-.06.226-.181a1.824,1.824,0,0,0,.323-.55,2.562,2.562,0,0,0,.165-.933,1.736,1.736,0,0,0-.14-.707A.581.581,0,0,0,22.77,20.106Zm.132.9c-.288,0-.432-.043-.432-.128,0-.131.072-.2.214-.2a.364.364,0,0,1,.191.064.447.447,0,0,1,.195.253C23.019,21,22.964,21,22.9,21Z" fill="#27459d"/>
        <path id="Path_413" data-name="Path 413" d="M24.9,20.439a.149.149,0,0,0-.082-.045c-.021,0-.041.015-.061.045l-.3.452q.567.4.567.612,0,.249-.613.594a4.5,4.5,0,0,1-.577.265c-.113.044-.169.09-.169.137s.132.1.4.13a3.53,3.53,0,0,0,.475.025.34.34,0,0,0,.136-.023.5.5,0,0,0,.112-.1,1.7,1.7,0,0,0,.471-1.214,1.307,1.307,0,0,0-.126-.559A.956.956,0,0,0,24.9,20.439Z" fill="#27459d"/>
        <path id="Path_414" data-name="Path 414" d="M26.4,19.821a.1.1,0,0,0-.1.065l-.195.483a.177.177,0,0,0-.015.064.072.072,0,0,0,.08.082.142.142,0,0,0,.049-.019.149.149,0,0,1,.066-.018,1.2,1.2,0,0,1,.491.274c.246.182.368.309.368.381q0,.161-.736.161-.486,0-.517-.188c-.021-.119-.061-.178-.119-.178s-.083.039-.1.117a1.581,1.581,0,0,0-.04.344.543.543,0,0,0,.135.387.5.5,0,0,0,.381.144h.423a.7.7,0,0,0,.635-.282,1.271,1.271,0,0,0,.132-.672,1.2,1.2,0,0,0-.4-.755Q26.576,19.821,26.4,19.821Z" fill="#27459d"/>
        <path id="Path_415" data-name="Path 415" d="M38.494,20.739a4.156,4.156,0,0,1-1.113-.261,4.253,4.253,0,0,0-.744-.228.565.565,0,0,0-.419.251,1.081,1.081,0,0,0-.2.328.181.181,0,0,0-.01.058c0,.055.024.082.071.082a.137.137,0,0,0,.1-.047l.106-.113a.3.3,0,0,1,.193-.056,1.433,1.433,0,0,1,.386.114q.379.146.511.183a5.191,5.191,0,0,1-.557.182,3.012,3.012,0,0,1-.654.062h-.224v0H29.456v0h-.3a1.488,1.488,0,0,0-.18-.569.54.54,0,0,0-.472-.313c-.188,0-.347.175-.475.524a1.9,1.9,0,0,0-.143.606q0,.277.415.36a3.776,3.776,0,0,0,.627.035q-.122.437-1,.862a2.824,2.824,0,0,1-.279.1c-.075.026-.113.056-.113.091,0,.064.049.1.147.121a5.362,5.362,0,0,0,.773.086c.038,0,.1-.046.189-.139a2.011,2.011,0,0,0,.5-1.143h7.038a2.025,2.025,0,0,0,.794-.172q.126-.054.622-.323a1.163,1.163,0,0,1,.485-.173H38.3a.119.119,0,0,0,.088-.069l.178-.323a.155.155,0,0,0,.025-.07C38.588,20.759,38.557,20.742,38.494,20.739Zm-9.853.569c-.287,0-.431-.043-.431-.127q0-.2.213-.2a.362.362,0,0,1,.191.064.446.446,0,0,1,.195.251A1.406,1.406,0,0,1,28.641,21.308Z" fill="#27459d"/>
        <path id="Path_416" data-name="Path 416" d="M37.137,19.945a.037.037,0,0,0,.057,0l.259-.255c.021-.019.022-.036,0-.052l-.269-.253a.042.042,0,0,0-.067,0l-.243.242c-.025.025-.027.047-.006.067Z" fill="#27459d"/>
        <path id="Path_417" data-name="Path 417" d="M42.875,20.028A.1.1,0,0,0,42.827,20c-.007,0-.017.016-.031.044l-.277.553q.395.288.394.41,0,.15-.518.226a6.657,6.657,0,0,1-.963.06,1.969,1.969,0,0,1-1.084-.206.488.488,0,0,1-.174-.418.551.551,0,0,1,.012-.094.649.649,0,0,0,.011-.1c0-.05-.021-.076-.062-.076s-.074.032-.1.1a1.348,1.348,0,0,0-.1.555q0,.687.8.819a4.683,4.683,0,0,0,.7.041,2.962,2.962,0,0,0,1.219-.179.946.946,0,0,0,.447-.423,1.38,1.38,0,0,0,.115-.607.832.832,0,0,0-.124-.426A.749.749,0,0,0,42.875,20.028Z" fill="#27459d"/>
        <path id="Path_418" data-name="Path 418" d="M41.224,20.2a.034.034,0,0,0,.052,0l.235-.232.237.233a.035.035,0,0,0,.053,0l.243-.238a.032.032,0,0,0,0-.052l-.251-.234a.039.039,0,0,0-.063,0l-.23.226-.231-.226a.037.037,0,0,0-.061,0l-.226.226c-.024.023-.026.044-.006.061Z" fill="#27459d"/>
        <path id="Path_419" data-name="Path 419" d="M53.438,19.628a.034.034,0,0,0,.052,0l.235-.232.234.233a.036.036,0,0,0,.056,0l.243-.241c.018-.018.018-.034,0-.049l-.251-.234a.039.039,0,0,0-.063,0l-.23.226-.231-.226a.037.037,0,0,0-.061,0l-.226.226c-.024.023-.026.043-.006.061Z" fill="#27459d"/>
        <path id="Path_420" data-name="Path 420" d="M53.708,19.858q-.26,0-.421.363a1.323,1.323,0,0,0-.125.538q0,.339.513.339.127,0,.438-.033c0,.079-.087.14-.26.183a1.51,1.51,0,0,1-.354.046h-.568a.48.48,0,0,1-.172-.052.763.763,0,0,0,.216-.465.363.363,0,0,0-.142-.3.507.507,0,0,0-.325-.105,2.457,2.457,0,0,0-1.419.7l.076-.389a3.837,3.837,0,0,0,.056-.71.629.629,0,0,0,.157.033c.037,0,.055-.014.055-.042a.258.258,0,0,0-.03-.092l-.253-.544c-.02-.042-.038-.062-.055-.062s-.038.017-.069.051l-.352.4a3.43,3.43,0,0,1,.224,1.166,1.026,1.026,0,0,1-.067.406H50.5a.7.7,0,0,1-.268-.062.554.554,0,0,1-.222-.155c.151-.067.241-.109.27-.127a.311.311,0,0,0,.176-.258.293.293,0,0,0-.195-.273.929.929,0,0,0-.867.072c-.113.079-.17.149-.17.21,0,.041.043.089.13.146a2.118,2.118,0,0,1,.306.226.667.667,0,0,1-.518.218h-4.8c-.158-.005-.239-.1-.239-.291V19.358c0-.068-.01-.1-.029-.1a.231.231,0,0,0-.094.049l-.38.263q.052.775.052,1.474,0,.879.556.878h4.991a.623.623,0,0,0,.469-.173.911.911,0,0,0,.185-.334c.142.338.343.507.6.507h.428a2.319,2.319,0,0,0,1.563-.386.829.829,0,0,0,.169.237.419.419,0,0,0,.294.149h.4a1.063,1.063,0,0,0,.8-.288,1.125,1.125,0,0,0,.266-.8,1.152,1.152,0,0,0-.214-.74A.561.561,0,0,0,53.708,19.858Zm-.006.766c-.184,0-.276-.037-.276-.109a.157.157,0,0,1,.055-.125.193.193,0,0,1,.133-.05.471.471,0,0,1,.392.247A1.235,1.235,0,0,1,53.7,20.624Zm-2.164.688c-.137,0-.282,0-.434-.012a1.9,1.9,0,0,1,1.031-.5.543.543,0,0,1,.253.064.225.225,0,0,1,.145.2Q52.533,21.312,51.538,21.312Z" fill="#27459d"/>
        <path id="Path_421" data-name="Path 421" d="M56.807,20.437a1.168,1.168,0,0,0-.588-.255q-.119,0-.3.39a1.881,1.881,0,0,0-.193.781q0,.582.656.582a.787.787,0,0,0,.612-.28.927.927,0,0,0,.235-.631Q57.231,20.728,56.807,20.437Zm-.341.875c-.314,0-.472-.107-.472-.32a.567.567,0,0,1,.04-.185c.031-.084.063-.126.1-.126a1.589,1.589,0,0,1,.484.193q.387.2.387.274C57,21.257,56.824,21.312,56.466,21.312Z" fill="#27459d"/>
        <path id="Path_422" data-name="Path 422" d="M58.406,20.106q-.28,0-.475.538a1.939,1.939,0,0,0-.143.592q0,.385.761.386c.086,0,.18,0,.281-.012q-.129.465-1,.883-.064.031-.279.1c-.075.026-.113.056-.113.09,0,.065.049.1.147.122a5.362,5.362,0,0,0,.773.086c.046,0,.122-.06.226-.181a1.824,1.824,0,0,0,.323-.55,2.562,2.562,0,0,0,.166-.933,1.737,1.737,0,0,0-.141-.707A.581.581,0,0,0,58.406,20.106Zm.132.9c-.288,0-.431-.043-.431-.128,0-.131.071-.2.213-.2a.362.362,0,0,1,.191.064.447.447,0,0,1,.195.253C58.656,21,58.6,21,58.538,21Z" fill="#27459d"/>
        <path id="Path_423" data-name="Path 423" d="M68.045,19.345l.019-.159c0-.028,0-.045-.013-.054a.109.109,0,0,0-.063,0l-1.921.51c-.017,0-.037.039-.061.1a.454.454,0,0,0-.031.128c0,.012,0,.018.01.016Z" fill="#27459d"/>
        <path id="Path_424" data-name="Path 424" d="M68.012,19.525a.1.1,0,0,0-.028,0l-2.009.518c-.024,0-.051.07-.08.195a1.268,1.268,0,0,0-.04.235.05.05,0,0,0,.007.033,3.017,3.017,0,0,1,.534.674c0,.071-.184.107-.549.109v0H61c-.112-.005-.271-.126-.48-.367-.03-.033-.051-.05-.063-.05s-.03.017-.053.05l-.318.464c.378.269.568.473.568.612q0,.249-.614.594a4.55,4.55,0,0,1-.576.265c-.114.044-.17.09-.17.138s.132.1.4.129a3.423,3.423,0,0,0,.475.027.315.315,0,0,0,.141-.027.507.507,0,0,0,.107-.094,1.59,1.59,0,0,0,.442-1.151.124.124,0,0,0,.094.039H65.88a.72.72,0,0,0,.807-.823,1.145,1.145,0,0,0-.346-.712l1.721-.422V19.58C68.062,19.538,68.045,19.519,68.012,19.525Z" fill="#27459d"/>
      </g>
      <g id="Group_93" data-name="Group 93">
        <path id="Path_425" data-name="Path 425" d="M2.2,8.273c-.087-.127-.2-.309-.256-.4A.506.506,0,0,0,2.311,7.4a.4.4,0,0,0-.191-.364.836.836,0,0,0-.471-.1H.908v.084c.224.015.25.03.25.267v1.1c0,.233-.028.254-.262.273v.08H1.68v-.08c-.232-.019-.259-.04-.259-.273V7.96H1.5c.149,0,.2.034.252.114.087.133.182.3.281.437a.544.544,0,0,0,.487.254.889.889,0,0,0,.1.006l.014-.078a.375.375,0,0,1-.2-.127A2.4,2.4,0,0,1,2.2,8.273Zm-.65-.406h-.13V7.184c0-.072.011-.105.031-.12a.3.3,0,0,1,.155-.026.377.377,0,0,1,.414.408.387.387,0,0,1-.155.341A.489.489,0,0,1,1.551,7.867Z" fill="#27459d"/>
        <path id="Path_426" data-name="Path 426" d="M7.662,14.313c-.108-.129-.212-.262-.311-.4s-.191-.262-.277-.378a3.447,3.447,0,0,0-.85-.844,2.5,2.5,0,0,0-.445-.243,1.072,1.072,0,0,0-.385-.086,1.271,1.271,0,0,0-.5.151,2.954,2.954,0,0,0-.657.431,3.678,3.678,0,0,0-.627.688,2.646,2.646,0,0,0-.421.911l.1.039a1.757,1.757,0,0,1,.3-.335,3.1,3.1,0,0,1,.391-.291,2.653,2.653,0,0,1,.405-.209.987.987,0,0,1,.346-.077.94.94,0,0,1,.416.092,1.954,1.954,0,0,1,.434.325q.247.232.524.519a2.571,2.571,0,0,0,.564.45l-.04.077a8.269,8.269,0,0,0-.875-.082q-.509-.024-1.132-.024a2.874,2.874,0,0,0-1.389.3,2.577,2.577,0,0,0-.9.824,3.277,3.277,0,0,0-.366.775,5.078,5.078,0,0,0-.207.833c.085.415.174.883.266,1.407s.175,1.059.248,1.607.134,1.091.188,1.619.082,1,.088,1.425h.04l.672-1.793c-.013-.49-.043-.958-.089-1.4s-.1-.87-.168-1.28-.14-.81-.222-1.2-.166-.783-.253-1.177a2.423,2.423,0,0,1,.93-.407,6.1,6.1,0,0,1,1.324-.127q.228,0,.6.015c.25.009.511.027.781.05s.532.048.786.077a5.165,5.165,0,0,1,.618.1l.741-1.754a1.866,1.866,0,0,1-.322-.257C7.88,14.561,7.771,14.442,7.662,14.313Z" fill="#27459d"/>
        <path id="Path_427" data-name="Path 427" d="M20.717,10.387l-1.335-.813-.85,1.114,1.335.8Z" fill="#27459d"/>
        <path id="Path_428" data-name="Path 428" d="M61.324,15.181q-.261.035-.6.073T60,15.34c-.25.033-.484.061-.7.087l-.553.065c-.152.016-.244.024-.277.024a1.974,1.974,0,0,1-.563-.238,3.456,3.456,0,0,1-.638-.481,3.8,3.8,0,0,1-.563-.664,2.369,2.369,0,0,1-.351-.78,2.382,2.382,0,0,1,.573-.344,4.663,4.663,0,0,1,.672-.228,6.008,6.008,0,0,1,.672-.13,4.425,4.425,0,0,1,.574-.044,1.936,1.936,0,0,1,.7.126,2.2,2.2,0,0,1,.613.368l.158-.106q-.148-.232-.361-.5a3.206,3.206,0,0,0-.489-.5,2.775,2.775,0,0,0-.618-.383,1.791,1.791,0,0,0-.747-.156,1.813,1.813,0,0,0-.953.3,3.809,3.809,0,0,0-.866.738,3.985,3.985,0,0,0-.622.944,2.189,2.189,0,0,0-.238.921,1.414,1.414,0,0,0,.06.4,2.808,2.808,0,0,0,.143.382,3.131,3.131,0,0,0,.183.346c.066.106.128.2.188.284a3.653,3.653,0,0,1-.455.065q-.278.024-.6.038c-.215.01-.435.016-.662.02s-.441,0-.638,0H22.408a4.13,4.13,0,0,0,.251-.63,2.086,2.086,0,0,0,.094-.6.919.919,0,0,0-.118-.426,2.606,2.606,0,0,0-.312-.452,3.775,3.775,0,0,0-.44-.435,3.945,3.945,0,0,0-.5-.364,3.712,3.712,0,0,0-.5-.252,1.174,1.174,0,0,0-.43-.1,3.184,3.184,0,0,0-1.128.224,9.063,9.063,0,0,0-1.211.566q-.616.345-1.23.771c-.409.285-.8.561-1.177.833a4.624,4.624,0,0,0,.075-.469c.016-.16.028-.319.034-.481l-.237-4.923L16.6,7.906c-.336-.233-.6-.427-.786-.586a3.4,3.4,0,0,1-.425-.412.9.9,0,0,1-.183-.325,1.674,1.674,0,0,1-.049-.344h-.1L14.033,7.548a.55.55,0,0,0,.08.267,2.037,2.037,0,0,0,.307.373l.622,6.513v.8l-.583.387h-2.1a.54.54,0,0,1-.519-.257,1.411,1.411,0,0,1-.163-.625l-.574-8.519L10.159,8.07q.039.495.088,1.111t.109,1.3q.06.677.119,1.4t.118,1.42c.04.467.08.924.119,1.366s.076.855.109,1.236a3.736,3.736,0,0,0,.119.679,1.182,1.182,0,0,0,.227.445.873.873,0,0,0,.267.19.948.948,0,0,0,.455.111H53.648q.306,0,.7-.005c.264,0,.537-.01.82-.019s.564-.023.841-.039.53-.04.761-.072q.583-.08,1.215-.161c.423-.055.826-.109,1.212-.164s.74-.109,1.063-.161.583-.1.78-.135l.643-1.426ZM21.7,15.747a2.039,2.039,0,0,1-.208.146H15.813c.244-.194.524-.4.841-.63s.643-.437.984-.635a7.265,7.265,0,0,1,1-.49,2.5,2.5,0,0,1,.9-.193,1.881,1.881,0,0,1,.885.214,3.255,3.255,0,0,1,.717.493,2.923,2.923,0,0,1,.484.558.9.9,0,0,1,.178.4Q21.8,15.67,21.7,15.747Z" fill="#27459d"/>
        <path id="Path_429" data-name="Path 429" d="M3.507,7.837A1.739,1.739,0,0,0,1.754,6.118a1.719,1.719,0,1,0,0,3.437A1.738,1.738,0,0,0,3.507,7.837ZM1.754,9.308a1.471,1.471,0,1,1,0-2.942,1.471,1.471,0,1,1,0,2.942Z" fill="#27459d"/>
      </g>
    </g>
  </g>
</svg>
