<svg xmlns="http://www.w3.org/2000/svg" xmlns:xlink="http://www.w3.org/1999/xlink" width="80" height="24" viewBox="0 0 80 24">
  <defs>
    <clipPath id="clip-fuji">
      <rect width="80" height="24"/>
    </clipPath>
  </defs>
  <g id="fuji" clip-path="url(#clip-fuji)">
    <rect width="80" height="24" fill="#fff"/>
    <g id="Group_17" data-name="Group 17" transform="translate(0 -61.45)">
      <g id="Group_16" data-name="Group 16">
        <path id="Path_60" data-name="Path 60" d="M21.536,65.566c0-.111-.055-.125-.192-.111a1.547,1.547,0,0,1-.713,0h-.137c0,.028-.11.028-.165.028-.6-.028-1.178.055-1.754,0-.11-.028-.165,0-.219-.028H17.67a.27.27,0,0,1-.219.028c-.521-.028-1.07,0-1.645,0-.329,0-.686,0-1.015-.028H14.38a3.594,3.594,0,0,1-.548.028h-.9a.59.59,0,0,1-.219-.028h-.082a1.03,1.03,0,0,1-.494.028,8.806,8.806,0,0,1-1.48-.028h-.494c-.137-.014-.192,0-.137.083v.055a1.215,1.215,0,0,1,.055.539c-.055.138,0,.262,0,.4,0,.056,0,.111-.055.138v.083a.315.315,0,0,1,0,.345v.083c.082.1.055.207.055.318a1.377,1.377,0,0,1-.055.456v.138c.055,0,.055.013.055.013a2.558,2.558,0,0,1-.055.788v.055a.335.335,0,0,1,.055.317v.373c0,.056,0,.111-.055.138v.207c.082.083.055.194.055.277a4.983,4.983,0,0,1,0,.635c-.055.083.082.166-.055.221v.055a.165.165,0,0,1,.055.152,3.626,3.626,0,0,0,0,.773.3.3,0,0,1-.055.221V72.4c.082.028.055.083.055.124,0,.166.082.332-.055.456v.055a.21.21,0,0,1,0,.276v.4a.228.228,0,0,1,0,.262v.056a.44.44,0,0,1,0,.372v.111a.442.442,0,0,1,.055.317c0,.083-.055.166,0,.249.027.055,0,.124-.055.207v.083c.055,0,.082.055.055.083a1.764,1.764,0,0,0,0,.538c0,.028,0,.042-.055.069v.056a.415.415,0,0,1,0,.4v.622a.3.3,0,0,1,.055.22.273.273,0,0,0,0,.29,1.77,1.77,0,0,0,0,.539c.027.179-.11.373,0,.525,0,.055,0,.083-.055.11V78.9c.055.028.055.055.055.083-.055.138,0,.235,0,.373a.1.1,0,0,1-.055.138v.083c0,.069.137.152,0,.234V79.9c.055.125.137.235,0,.373v.083a.315.315,0,0,1,0,.345v.055c.055.028.055.056.055.083-.055.152.027.318-.055.484v.027a.492.492,0,0,0,.192.042c.439-.028.9,0,1.4,0a2.37,2.37,0,0,1,.631,0,3.547,3.547,0,0,0,.521.027c.438-.027.849-.027,1.233-.027a6.261,6.261,0,0,1,1.015.027c.219,0,.164,0,.164-.1a.355.355,0,0,1,0-.332v-.4c-.055-.207,0-.456-.055-.691a3.281,3.281,0,0,0,.055-.732c-.055-.207.055-.428,0-.635a1.7,1.7,0,0,0-.055-.538v-.511a2.454,2.454,0,0,0,0-.635,1.265,1.265,0,0,0,.055-.429,3.012,3.012,0,0,1,0-.7c0-.262-.109-.511,0-.745.055-.056,0-.111-.055-.166,0-.083.055-.1.192-.1.384.014.768.014,1.179.014H17.67c.274,0,.576-.014.85,0,.219.028.356-.014.576,0a.074.074,0,0,0,.109-.069c-.164-.166-.054-.345-.054-.539a.55.55,0,0,0-.055-.276c0-.124.055-.29.055-.456v-.414a2.39,2.39,0,0,0,0-.621s0-.028-.055-.028c0-.055.109-.11,0-.166a.532.532,0,0,0-.357,0H17.4c-.3,0-.686.028-1.015,0H15.367c-.137,0-.192,0-.192-.1.055-.083-.055-.166-.055-.249a2.535,2.535,0,0,0,0-.911c0-.055.055-.138.055-.18v-.759a4.128,4.128,0,0,1-.055-.829,2.692,2.692,0,0,0,0-.939c0-.1.055-.152.247-.124.384.028.713,0,1.069,0h.96c.329,0,.685.028,1.014,0,.384-.028.741.041,1.124,0a1.626,1.626,0,0,1,.521,0,1.148,1.148,0,0,0,.439,0H21.4c.055,0,.082-.028.137-.028V68.01a.166.166,0,0,1-.082-.166,4.356,4.356,0,0,0,0-.594c0-.027.027-.027.082-.041V67.1c-.055,0-.055,0-.055-.027a1.131,1.131,0,0,1,.055-.511v-.138a.514.514,0,0,1,0-.525C21.536,65.787,21.481,65.676,21.536,65.566Z" fill="#ff3602"/>
        <path id="Path_61" data-name="Path 61" d="M40.377,75.574c-.159.107-.107.187,0,.293v.428c-.107.106-.053.213-.107.293,0,.026.054.026.107.026v.108a.227.227,0,0,0,0,.347v.106c-.212.08-.107.16,0,.24v.054a.44.44,0,0,0,0,.507V78c-.159.24-.107.479-.212.693a5.749,5.749,0,0,1-.424.774,2.456,2.456,0,0,1-.371.373,5.551,5.551,0,0,1-.583.4,1.885,1.885,0,0,1-.424.267c-.211.08-.423.16-.582.239a8,8,0,0,1-1.06.348,12.117,12.117,0,0,1-1.378.213,8,8,0,0,0-.794.107h-.212a.749.749,0,0,0-.424,0h-.636a.568.568,0,0,0-.211-.027,7.351,7.351,0,0,1-1.114-.08,9.437,9.437,0,0,1-1.854-.426c-.212-.108-.53-.16-.742-.294a5.676,5.676,0,0,0-.583-.293c-.105-.027-.105-.054-.158-.108a3.422,3.422,0,0,1-.583-.453c-.106-.134-.264-.24-.371-.373a2.562,2.562,0,0,1-.318-.8c-.053-.214-.212-.427-.158-.641a2.859,2.859,0,0,0,0-.667c0-.08.052-.186-.054-.294v-.133a.159.159,0,0,0,.054-.24v-.48c.052-.054.052-.108-.054-.16v-.054c.054-.027.054-.054.054-.106V74.747c0-.054,0-.081-.054-.106V74.56c.106-.081.054-.16,0-.241V74c.106-.107.054-.187.106-.295,0-.025-.052-.052-.106-.052v-.668a.229.229,0,0,0,0-.347v-.4c.106-.106.054-.214.054-.347,0-.027.052-.08-.054-.106V71.25a.36.36,0,0,0,0-.452v-.32a.261.261,0,0,0,0-.375v-.026a.4.4,0,0,0,0-.481v-.961a.207.207,0,0,0,0-.292v-.322c.106-.133.054-.266.054-.4,0-.08.052-.161-.054-.24v-.133s.054-.027.054-.054a3.1,3.1,0,0,0,0-.695c0-.079.052-.16-.054-.212v-.535c.054-.025.054-.052.054-.079-.054-.108.052-.133.264-.108a5.012,5.012,0,0,1,.636.027.918.918,0,0,0,.371-.052h1.007a2.611,2.611,0,0,0,.9,0h.212a.352.352,0,0,0,.159.025c.266-.025.53,0,.847,0a1.374,1.374,0,0,0,.319-.025h.318c.106.025.053.079.053.133,0,.16-.053.293-.053.453a1.186,1.186,0,0,1,.053.427,2.594,2.594,0,0,0,0,.641,2.175,2.175,0,0,0,0,.587c.053.106-.107.214-.053.32.106.081.106.133.053.214a.162.162,0,0,0,0,.213c.053.08,0,.16,0,.241a1.982,1.982,0,0,0,0,.56v.187c-.107.239,0,.48-.053.72,0,.266.053.534.053.827,0,.161-.107.294-.053.454a.789.789,0,0,1,.053.346V72.5c0,.08.053.16,0,.241-.053.373.053.747,0,1.121v1.147a7.94,7.94,0,0,1-.053,1.121v.106c.106.107.053.24,0,.347v.159c0,.162.106.322.053.455a1.982,1.982,0,0,0,0,.56,2.325,2.325,0,0,0,.1.587,1.084,1.084,0,0,0,.69.454,3.913,3.913,0,0,0,1.112.027c.371-.027.689-.107.794-.321a.719.719,0,0,0,.212-.427,6.157,6.157,0,0,0,.053-.986v-.748c0-.107-.053-.213-.053-.321a6.577,6.577,0,0,0,.107-.987,3.988,3.988,0,0,0-.054-.8v-.721a6.137,6.137,0,0,1,0-.987c0-.134-.1-.267-.053-.373.159-.187,0-.4.053-.588,0-.053.054-.134.054-.186-.107-.241,0-.454-.054-.695,0-.16-.1-.347.054-.507l-.054-.026c-.1-.187,0-.374,0-.534v-.747c0-.16.054-.293.054-.454-.054-.214.052-.453-.054-.667-.053-.08.054-.16,0-.213-.1-.187,0-.374,0-.534v-.373a3.219,3.219,0,0,0,0-.721.893.893,0,0,1,.054-.373h.476a11.047,11.047,0,0,0,1.325.025l.053-.025h.424a1,1,0,0,0,.476,0h.107a1.149,1.149,0,0,0,.264.025c.583-.025,1.113,0,1.642,0,.054,0,.16,0,.16-.025.211-.027.159.052.159.106-.053.106-.107.187,0,.293v.107c-.159.08-.159.16,0,.267v.08a.228.228,0,0,0,0,.347v.054c-.107.026-.107.053-.107.079a.338.338,0,0,1,0,.321c0,.054.054.079.107.106v.187a.175.175,0,0,0,0,.294v.347c-.053,0-.053.027-.053.027a.688.688,0,0,0,.053.56v.106c-.107.16-.159.295,0,.454v.293c-.159.054-.053.135,0,.214v.56c-.159.241-.053.481-.107.747a.278.278,0,0,0,.107.027v.32c-.053,0-.107.027-.107.054a.9.9,0,0,0,.054.373s0,.027.053.027V72c-.107.133-.053.266-.053.4,0,.267-.054.56-.054.828a.317.317,0,0,0,.107.293v.107c-.159.054-.107.106,0,.16v.054c-.053,0-.107.027-.107.053a1.277,1.277,0,0,1,0,.453c0,.027,0,.054.107.081v.106a.416.416,0,0,0-.053.427h.053v.106c-.212.108-.053.214,0,.322Z" fill="#ff3602"/>
        <path id="Path_62" data-name="Path 62" d="M55.356,65.487a3.408,3.408,0,0,0,.741.027.983.983,0,0,0,.478-.027h1.271a5.11,5.11,0,0,0,1.112.027c.054,0,.054-.027.054-.027.053,0,.159-.027.159.054-.106.025-.106.079-.106.106a.467.467,0,0,1,0,.374c0,.053,0,.08.106.106v.294c-.159.079-.106.187,0,.266v.027c-.159.081-.106.187,0,.267v.133c-.106.108-.159.214,0,.322v.106c-.159.186-.106.346,0,.533v.108c-.054.025-.106.052-.106.079V69.3a.25.25,0,0,0,.106.239v.108c-.106.106-.159.241,0,.347v.186c-.106.16-.054.347-.106.507,0,.027.052.054.106.081V70.9c-.159.08-.106.186,0,.267v.106c-.106.081-.159.16-.106.241a3.333,3.333,0,0,1,0,.72,1.664,1.664,0,0,1,0,.508c0,.106-.053.212.106.293v.106c-.106.134-.213.267,0,.4-.106.108-.106.214,0,.295v.079c-.159.161-.054.348-.106.535,0,.025.052.025.106.052V74.8c-.106.08-.106.133,0,.214v.106c-.159.106-.106.241-.054.347l.054.027v.294c-.159.106-.159.239,0,.347v.32c-.106.053-.106.106-.106.159,0,.133-.053.268.106.4V77.2c-.106.027-.106.08-.106.133.052.08,0,.161,0,.267a.18.18,0,0,0,.106.187v.187c-.106.027-.054.053-.054.106a1.342,1.342,0,0,1-.159.427c0,.027-.053.054,0,.081a.519.519,0,0,1-.158.346,2.755,2.755,0,0,1-.795.907c-.106.081-.159.187-.318.268a7.134,7.134,0,0,1-.636.346,11.139,11.139,0,0,1-1.112.455c-.106.052-.265.025-.371.079a1.875,1.875,0,0,1-.53.133,3.935,3.935,0,0,1-.795.107,7.339,7.339,0,0,1-1.324.133c-.425,0-.847,0-1.218-.026l-.69-.08a5.677,5.677,0,0,1-1.006-.134,8.656,8.656,0,0,1-1.112-.32,4.5,4.5,0,0,1-.9-.347,3.325,3.325,0,0,1-.847-.56c-.107-.133-.317-.213-.371-.347l-.371-.533a1.531,1.531,0,0,1-.318-.748,3.618,3.618,0,0,1-.052-.748c.052-.025,0-.079-.054-.079v-.321c.106-.079.054-.16,0-.239v-.4c.106-.107.054-.213.054-.346,0-.054.052-.108-.054-.135v-.079c.054-.081.106-.16.054-.214,0-.053,0-.106.1-.08a5,5,0,0,0,.636,0c.264,0,.583.027.847,0h1.749a14.582,14.582,0,0,0,1.537,0c.212-.026.264,0,.212.107a2.171,2.171,0,0,0-.054.588,2.531,2.531,0,0,1,0,.639.569.569,0,0,0,.054.294c0,.187-.054.374-.054.561a1.309,1.309,0,0,0,.213.587.742.742,0,0,0,.529.293,4.056,4.056,0,0,0,1.271.054,1.046,1.046,0,0,0,.478-.133c.212-.187.424-.348.424-.561v-.134a1.333,1.333,0,0,0,.052-.64,4.394,4.394,0,0,1,0-.827v-.081c-.1-.079-.052-.16,0-.239,0-.027.053-.054.053-.081a1.3,1.3,0,0,1-.053-.774v-.32a2.644,2.644,0,0,1,0-.641.523.523,0,0,0,0-.4,15.349,15.349,0,0,1,0-1.547v-.935a3.768,3.768,0,0,0,0-.773,4.112,4.112,0,0,1,0-.8,2.814,2.814,0,0,1,0-.934,1.989,1.989,0,0,0,0-.561c-.052-.161.053-.294,0-.454v-.427a4.381,4.381,0,0,1,0-.826v-.508a1.8,1.8,0,0,0,0-.534c-.052-.079,0-.106.159-.106a2.115,2.115,0,0,0,.583-.027Z" fill="#ff3602"/>
        <path id="Path_63" data-name="Path 63" d="M67.957,65.487a1.188,1.188,0,0,0,.533.027h1.222c.213,0,.213,0,.213.107v.16c0,.215.106.456,0,.671a.686.686,0,0,0,.053.321v.08c-.107.188,0,.375-.053.563-.054.16.159.348,0,.508v.027c.106.134.053.267.053.375a1.14,1.14,0,0,0-.053.59c.106.241,0,.481,0,.7a2.394,2.394,0,0,1,0,.616c.053.241-.054.456.053.669.053.081-.107.162-.053.268.106.107.053.242,0,.348v.108c.106.107.053.213.053.321,0,.161-.053.321-.053.482a5.1,5.1,0,0,1,.053.911,3.32,3.32,0,0,0-.053.723.957.957,0,0,1,.053.536c-.107.294,0,.562-.053.83a6.172,6.172,0,0,1,0,.99c0,.188.053.375.053.563a.774.774,0,0,0,0,.349,2.3,2.3,0,0,0,0,1.044v.081c-.053.187,0,.375-.053.589,0,.215.053.428.053.642,0,.188-.107.348-.053.536a1.055,1.055,0,0,1,.053.4,2.171,2.171,0,0,0,0,.831h-.107c-.105-.107-.265-.027-.372-.027H68.223c-.318,0-.638.027-.957,0a.329.329,0,0,0-.159.027h-.054a.777.777,0,0,0-.372-.054,3.875,3.875,0,0,1-.585.027,6.3,6.3,0,0,0-1.01,0,.266.266,0,0,0-.107.027h-.106v-.107c0-.081.053-.162-.107-.214V81.1c.107-.081.16-.134.107-.215a.462.462,0,0,1,0-.375,4.64,4.64,0,0,0,0-.858V78.37c-.053-.027-.053-.054,0-.054.053-.106,0-.24,0-.348a4.616,4.616,0,0,1,0-.856.761.761,0,0,0-.107-.323v-.025c.054,0,.054-.027.054-.027a10.237,10.237,0,0,0,.053-1.26c0-.133-.053-.267,0-.375a7.221,7.221,0,0,0,0-1.071v-.777a1.81,1.81,0,0,1,0-.535,2.624,2.624,0,0,0,0-.91,7.1,7.1,0,0,0-.053-1.073c0-.027,0-.027.053-.027a.92.92,0,0,0,0-.535c0-.08-.053-.161,0-.267s0-.188-.107-.295V69.5a.253.253,0,0,0,.107-.348,3.065,3.065,0,0,1,0-.7,4.626,4.626,0,0,1,0-.857V66.96a1.471,1.471,0,0,1,0-.482,1.817,1.817,0,0,1,0-.536.194.194,0,0,0-.107-.294c0-.054.054-.081,0-.107,0-.081.107-.054.16-.054a1.085,1.085,0,0,0,.266.027c.319,0,.639,0,1.011.027a.61.61,0,0,0,.372-.054h.159a.731.731,0,0,0,.265.027h.373a.594.594,0,0,0,.32-.027Z" fill="#ff3602"/>
      </g>
    </g>
  </g>
</svg>
