<svg xmlns="http://www.w3.org/2000/svg" xmlns:xlink="http://www.w3.org/1999/xlink" width="80" height="24" viewBox="0 0 80 24">
  <defs>
    <clipPath id="clip-genmoot">
      <rect width="80" height="24"/>
    </clipPath>
  </defs>
  <g id="genmoot" clip-path="url(#clip-genmoot)">
    <rect width="80" height="24" fill="#fff"/>
    <g id="Group_4" data-name="Group 4" transform="translate(-261.302 -29.055)">
      <path id="Path_19" data-name="Path 19" d="M275.621,40.859h4.012a5.453,5.453,0,0,1-.542,1.848,5.063,5.063,0,0,1-1.054,1.419,4.621,4.621,0,0,1-1.436.914,4.484,4.484,0,0,1-1.686.323,3.877,3.877,0,0,1-1-.126,3.526,3.526,0,0,1-.875-.357,3.432,3.432,0,0,1-1.271-1.283,3.565,3.565,0,0,1-.345-.862,3.848,3.848,0,0,1-.119-.962,4.026,4.026,0,0,1,.193-1.245,4.61,4.61,0,0,1,.539-1.123,5.083,5.083,0,0,1,.818-.957,5.321,5.321,0,0,1,1.034-.742,5.442,5.442,0,0,1,1.188-.479,4.786,4.786,0,0,1,1.276-.172,3.871,3.871,0,0,1,1.618.325,3.41,3.41,0,0,1,1.214.914l-1.647,1.425a1.574,1.574,0,0,0-.6-.611,1.773,1.773,0,0,0-.912-.226,2.313,2.313,0,0,0-.646.092,2.57,2.57,0,0,0-.6.268,2.749,2.749,0,0,0-.523.419,2.845,2.845,0,0,0-.417.544,2.652,2.652,0,0,0-.273.649,2.685,2.685,0,0,0-.1.727,2.232,2.232,0,0,0,.131.777,1.906,1.906,0,0,0,.365.619,1.646,1.646,0,0,0,.558.41,1.694,1.694,0,0,0,.712.149,2.421,2.421,0,0,0,1.291-.3,1.813,1.813,0,0,0,.721-.837h-1.892Z" fill="#1a1a1a"/>
      <path id="Path_20" data-name="Path 20" d="M281.649,37.259h5.6l-.32,1.826h-3.446l-.212,1.262h2.941l-.325,1.821h-2.935l-.193,1.176h3.493l-.319,1.827h-5.647Z" fill="#1a1a1a"/>
      <path id="Path_21" data-name="Path 21" d="M294.35,45.171h-1.863l-2.524-4.259-.724,4.259h-2.148l1.368-7.912h1.886l2.506,4.241.724-4.241h2.143Z" fill="#1a1a1a"/>
      <path id="Path_22" data-name="Path 22" d="M299.934,43.244,298.7,40.72l-.758,4.451H295.8l1.367-7.912h1.886l1.641,3.146,2.769-3.146h1.875l-1.367,7.912h-2.143l.752-4.428-2.12,2.5Z" fill="#1a1a1a"/>
      <path id="Path_23" data-name="Path 23" d="M305.8,41.773a4.085,4.085,0,0,1,.191-1.245,4.566,4.566,0,0,1,.536-1.123,5.173,5.173,0,0,1,.814-.957,5.277,5.277,0,0,1,1.032-.742,5.442,5.442,0,0,1,1.188-.479,4.788,4.788,0,0,1,1.277-.172,3.779,3.779,0,0,1,1.458.276,3.53,3.53,0,0,1,1.148.756,3.436,3.436,0,0,1,.752,1.135,3.626,3.626,0,0,1,.271,1.4,4.025,4.025,0,0,1-.194,1.241,4.618,4.618,0,0,1-.538,1.127,5.2,5.2,0,0,1-.818.96,5.446,5.446,0,0,1-1.034.75,5.27,5.27,0,0,1-1.188.486,4.833,4.833,0,0,1-1.276.172,3.716,3.716,0,0,1-1.456-.28,3.536,3.536,0,0,1-1.146-.762,3.413,3.413,0,0,1-.749-1.141A3.7,3.7,0,0,1,305.8,41.773Zm2.165-.192a2.255,2.255,0,0,0,.131.777,1.907,1.907,0,0,0,.365.619,1.656,1.656,0,0,0,.558.41,1.7,1.7,0,0,0,.713.149,2.349,2.349,0,0,0,.968-.209,2.614,2.614,0,0,0,.821-.577,2.868,2.868,0,0,0,.567-.858,2.626,2.626,0,0,0,.213-1.056,2.312,2.312,0,0,0-.127-.782,1.85,1.85,0,0,0-.365-.62,1.658,1.658,0,0,0-.564-.407,1.759,1.759,0,0,0-.721-.145,2.315,2.315,0,0,0-.647.092,2.545,2.545,0,0,0-.6.268,2.724,2.724,0,0,0-.524.419,2.841,2.841,0,0,0-.416.544,2.7,2.7,0,0,0-.274.649A2.726,2.726,0,0,0,307.968,41.581Z" fill="#1a1a1a"/>
      <path id="Path_24" data-name="Path 24" d="M315.336,41.773a4.054,4.054,0,0,1,.191-1.245,4.526,4.526,0,0,1,.535-1.123,5.176,5.176,0,0,1,.815-.957,5.241,5.241,0,0,1,1.031-.742,5.482,5.482,0,0,1,1.188-.479,4.794,4.794,0,0,1,1.277-.172,3.784,3.784,0,0,1,1.459.276,3.551,3.551,0,0,1,1.148.756,3.452,3.452,0,0,1,.752,1.135,3.645,3.645,0,0,1,.271,1.4,4.025,4.025,0,0,1-.194,1.241,4.585,4.585,0,0,1-.539,1.127,5.162,5.162,0,0,1-.818.96,5.415,5.415,0,0,1-1.034.75,5.282,5.282,0,0,1-1.187.486,4.835,4.835,0,0,1-1.277.172,3.723,3.723,0,0,1-1.456-.28,3.536,3.536,0,0,1-1.146-.762,3.445,3.445,0,0,1-.749-1.141A3.7,3.7,0,0,1,315.336,41.773Zm2.165-.192a2.256,2.256,0,0,0,.131.777,1.889,1.889,0,0,0,.365.619,1.647,1.647,0,0,0,.558.41,1.694,1.694,0,0,0,.712.149,2.35,2.35,0,0,0,.969-.209,2.6,2.6,0,0,0,.82-.577,2.849,2.849,0,0,0,.567-.858,2.609,2.609,0,0,0,.214-1.056,2.312,2.312,0,0,0-.128-.782,1.833,1.833,0,0,0-.365-.62,1.658,1.658,0,0,0-.564-.407,1.751,1.751,0,0,0-.72-.145,2.31,2.31,0,0,0-.647.092,2.57,2.57,0,0,0-.6.268,2.755,2.755,0,0,0-.524.419,2.842,2.842,0,0,0-.416.544,2.732,2.732,0,0,0-.273.649A2.685,2.685,0,0,0,317.5,41.581Z" fill="#1a1a1a"/>
      <path id="Path_25" data-name="Path 25" d="M326.8,39.085h-2.039l.318-1.826H331.3l-.319,1.826h-2.04l-1.049,6.086h-2.137Z" fill="#1a1a1a"/>
    </g>
  </g>
</svg>
