<svg xmlns="http://www.w3.org/2000/svg" xmlns:xlink="http://www.w3.org/1999/xlink" width="80" height="24" viewBox="0 0 80 24">
  <defs>
    <clipPath id="clip-ace_1">
      <rect width="80" height="24"/>
    </clipPath>
  </defs>
  <g id="ace_1" data-name="ace – 1" clip-path="url(#clip-ace_1)">
    <rect width="80" height="24" fill="#fff"/>
    <path id="Path_407" data-name="Path 407" d="M7.9,2.124V-1.1h6.527V5.5a12.893,12.893,0,0,1-3.315,1.968,10.034,10.034,0,0,1-3.417.522,7.505,7.505,0,0,1-3.967-.939,6.147,6.147,0,0,1-2.378-2.8A10.209,10.209,0,0,1,.5-.008a9.862,9.862,0,0,1,.923-4.406,6.348,6.348,0,0,1,2.7-2.844,7.906,7.906,0,0,1,3.739-.749,9.361,9.361,0,0,1,3.389.464A4.426,4.426,0,0,1,13.125-6.1a6.739,6.739,0,0,1,1.114,2.475l-4.075.823a2.5,2.5,0,0,0-.853-1.34A2.437,2.437,0,0,0,7.778-4.61,2.634,2.634,0,0,0,5.563-3.518,5.77,5.77,0,0,0,4.738-.061a5.953,5.953,0,0,0,.834,3.588A2.777,2.777,0,0,0,7.9,4.6a3.952,3.952,0,0,0,1.352-.232,6.956,6.956,0,0,0,1.473-.792V2.124Zm8.979,1.3h4.056V7.728H16.878ZM23.433-7.744h5.555L31.13,1.67l2.127-9.414h5.551V7.728H35.349v-11.8l-2.665,11.8H29.552l-2.66-11.8v11.8H23.433ZM41.26,3.422h4.056V7.728H41.26ZM47.871-7.744h7.907a4,4,0,0,1,3.035,1.108,3.82,3.82,0,0,1,1.058,2.744,3.745,3.745,0,0,1-.755,2.354A3.339,3.339,0,0,1,57.642-.5,3.75,3.75,0,0,1,59.81.873,4.128,4.128,0,0,1,60.5,3.327a4.659,4.659,0,0,1-.494,2.164,3.91,3.91,0,0,1-1.352,1.52,4.079,4.079,0,0,1-1.6.507,16.408,16.408,0,0,1-1.893.211H47.871Zm4.261,6.069h1.837a1.93,1.93,0,0,0,1.375-.385,1.5,1.5,0,0,0,.387-1.113,1.412,1.412,0,0,0-.387-1.055A1.9,1.9,0,0,0,54-4.61H52.132Zm0,6.079h2.154a2.168,2.168,0,0,0,1.538-.438,1.571,1.571,0,0,0,.448-1.177,1.444,1.444,0,0,0-.443-1.1,2.258,2.258,0,0,0-1.552-.417H52.132Z" transform="translate(9.495 12.008)" fill="#549e00"/>
  </g>
</svg>
