<svg xmlns="http://www.w3.org/2000/svg" xmlns:xlink="http://www.w3.org/1999/xlink" width="80" height="24" viewBox="0 0 80 24">
  <defs>
    <clipPath id="clip-GOETZE">
      <rect width="80" height="24"/>
    </clipPath>
  </defs>
  <g id="GOETZE" clip-path="url(#clip-GOETZE)">
    <rect width="80" height="24" fill="#fff"/>
    <path id="Path_455" data-name="Path 455" d="M5.711-1.706v-2h4.6v4.1A9.414,9.414,0,0,1,7.972,1.619a7.921,7.921,0,0,1-2.406.325,5.848,5.848,0,0,1-2.793-.584A4,4,0,0,1,1.1-.38,5.718,5.718,0,0,1,.5-3.032a5.537,5.537,0,0,1,.65-2.741,4.209,4.209,0,0,1,1.9-1.769,6.2,6.2,0,0,1,2.632-.466,7.4,7.4,0,0,1,2.386.289,3.1,3.1,0,0,1,1.313.9,3.98,3.98,0,0,1,.784,1.539l-2.869.512a1.553,1.553,0,0,0-.6-.834,1.876,1.876,0,0,0-1.08-.289,1.947,1.947,0,0,0-1.559.679,3.271,3.271,0,0,0-.581,2.15A3.372,3.372,0,0,0,4.073-.833a2.064,2.064,0,0,0,1.638.67,3.115,3.115,0,0,0,.952-.144A5.142,5.142,0,0,0,7.7-.8v-.906ZM11.7-3.026A4.961,4.961,0,0,1,13.01-6.7a4.942,4.942,0,0,1,3.656-1.313,5.031,5.031,0,0,1,3.7,1.29,4.864,4.864,0,0,1,1.3,3.614A5.925,5.925,0,0,1,21.1-.338,4.048,4.048,0,0,1,19.46,1.343a5.417,5.417,0,0,1-2.675.6,6.155,6.155,0,0,1-2.695-.519A4.057,4.057,0,0,1,12.36-.216,5.449,5.449,0,0,1,11.7-3.026Zm2.974.013a3.227,3.227,0,0,0,.542,2.094,1.833,1.833,0,0,0,1.474.637A1.832,1.832,0,0,0,18.17-.905,3.561,3.561,0,0,0,18.7-3.144a2.974,2.974,0,0,0-.548-1.986,1.874,1.874,0,0,0-1.487-.627,1.807,1.807,0,0,0-1.444.637A3.237,3.237,0,0,0,14.671-3.013Zm8.593-4.832h7.969v2.055H26.244v1.53h4.628V-2.3H26.244V-.4h5.133V1.779H23.264Zm9.039,0h9.039v2.376H38.31V1.779H35.336V-5.468H32.3Zm10.142,0h8.416v1.923l-5.4,5.632h5.6V1.779H41.927v-2l5.346-5.573H42.446Zm9.945,0H60.36v2.055H55.371v1.53H60V-2.3H55.371V-.4H60.5V1.779H52.391Z" transform="translate(9.495 15.008)" fill="#2b8101"/>
  </g>
</svg>
