<svg xmlns="http://www.w3.org/2000/svg" xmlns:xlink="http://www.w3.org/1999/xlink" width="80" height="24" viewBox="0 0 80 24">
  <defs>
    <clipPath id="clip-gotze">
      <rect width="80" height="24"/>
    </clipPath>
  </defs>
  <g id="gotze" clip-path="url(#clip-gotze)">
    <rect width="80" height="24" fill="#fff"/>
    <g id="Group_80" data-name="Group 80" transform="translate(314.427 -627.348)">
      <path id="Path_346" data-name="Path 346" d="M-298.172,640.947v-2.414h5.52v4.947a11.333,11.333,0,0,1-2.8,1.478,9.494,9.494,0,0,1-2.89.39,6.994,6.994,0,0,1-3.355-.705,4.813,4.813,0,0,1-2.012-2.1,6.929,6.929,0,0,1-.713-3.2,6.685,6.685,0,0,1,.781-3.3,5.069,5.069,0,0,1,2.287-2.134,7.43,7.43,0,0,1,3.163-.562,8.852,8.852,0,0,1,2.867.349,3.72,3.72,0,0,1,1.577,1.082,4.8,4.8,0,0,1,.942,1.855l-3.447.617a1.86,1.86,0,0,0-.721-1.005,2.246,2.246,0,0,0-1.3-.349,2.336,2.336,0,0,0-1.872.82,3.947,3.947,0,0,0-.7,2.591A4.071,4.071,0,0,0-300.14,642a2.473,2.473,0,0,0,1.968.808,3.723,3.723,0,0,0,1.143-.174,6.164,6.164,0,0,0,1.246-.593v-1.093Z" fill="#04a776"/>
      <path id="Path_347" data-name="Path 347" d="M-294.437,639.355a6,6,0,0,1,1.577-4.424,5.926,5.926,0,0,1,4.393-1.583,6.036,6.036,0,0,1,4.448,1.556,5.878,5.878,0,0,1,1.561,4.357,7.173,7.173,0,0,1-.682,3.338,4.881,4.881,0,0,1-1.972,2.026,6.5,6.5,0,0,1-3.214.723,7.366,7.366,0,0,1-3.237-.625,4.887,4.887,0,0,1-2.078-1.979A6.6,6.6,0,0,1-294.437,639.355Zm3.574.016a3.9,3.9,0,0,0,.65,2.525,2.2,2.2,0,0,0,1.77.767,2.2,2.2,0,0,0,1.783-.751,4.31,4.31,0,0,0,.63-2.7,3.593,3.593,0,0,0-.658-2.394,2.246,2.246,0,0,0-1.786-.757,2.166,2.166,0,0,0-1.735.767A3.917,3.917,0,0,0-290.863,639.372Z" transform="translate(3.456)" fill="#04a776"/>
      <path id="Path_348" data-name="Path 348" d="M-285.021,633.494h10.861v2.867H-277.8V645.1h-3.573v-8.737h-3.644Z" transform="translate(6.714 0.051)" fill="#04a776"/>
      <path id="Path_349" data-name="Path 349" d="M-275.808,633.494H-265.7v2.319l-6.49,6.792h6.727V645.1h-10.971v-2.406l6.423-6.721h-5.8Z" transform="translate(9.685 0.051)" fill="#04a776"/>
      <path id="Path_350" data-name="Path 350" d="M-267.091,633.494h9.574v2.478h-5.994v1.845h5.56v2.367h-5.56v2.287h6.167V645.1h-9.747Z" transform="translate(12.917 0.051)" fill="#04a776"/>
    </g>
  </g>
</svg>
