<svg xmlns="http://www.w3.org/2000/svg" xmlns:xlink="http://www.w3.org/1999/xlink" width="80" height="24" viewBox="0 0 80 24">
  <defs>
    <clipPath id="clip-hkt">
      <rect width="80" height="24"/>
    </clipPath>
  </defs>
  <g id="hkt" clip-path="url(#clip-hkt)">
    <rect width="80" height="24" fill="#fff"/>
    <g id="Group_13" data-name="Group 13" transform="translate(173.275 -61.451)">
      <path id="Path_53" data-name="Path 53" d="M-124.946,65.538-136.865,72.2l1.3-6.077,1.145-.611-5.847-.016.786.616-1.3,6.076-8.862-.023,1.392-6.691-9.126-.023-.423,2.026,5.235.014-1.476,6.69-.092.353a3.934,3.934,0,0,1-.912,1.4,9.084,9.084,0,0,1-1.5,1.125l-.412.26-.44.241h-.031l-.441.22-.5.185h-.026l-.5.167-.5.183.093-.725-3.158-.009-.817,3.735.819-.035h.029l.79-.034.85-.073.789-.147.79-.108.762-.185.791-.2.733-.221.676-.276h.027l.674-.3.676-.3,1.2-.7.558-.408.53-.389.912-.871.412-.465.324-.462.3-.518.236-.5.209-.5h.029l8.833.024-1.27,6.077-1.144.647,5.966.018-.9-.655,1.056-4.775,3.757-2.167,5.071,6.97-.618.649,6.406.017-1.519-.655-6.257-8.664L-123.471,68l7.662.021-2.748,12.765-1.084.65,5.847.017-.843-.655,2.746-12.766,6.552.018,1.187,1.677.877-4.127-21.642-.058" fill="#ce0014"/>
    </g>
  </g>
</svg>
