<svg xmlns="http://www.w3.org/2000/svg" xmlns:xlink="http://www.w3.org/1999/xlink" width="80" height="24" viewBox="0 0 80 24">
  <defs>
    <clipPath id="clip-india">
      <rect width="80" height="24"/>
    </clipPath>
  </defs>
  <g id="india" clip-path="url(#clip-india)">
    <rect width="80" height="24" fill="#fff"/>
    <path id="Path_453" data-name="Path 453" d="M.9-7.874H5.238v14H.9Zm7.468,0h4.04L17.681-.129V-7.874h4.078v14H17.681L12.438-1.561V6.126H8.37Zm16.321,0h6.427a7.7,7.7,0,0,1,3.07.516,4.992,4.992,0,0,1,1.934,1.48A6.128,6.128,0,0,1,37.23-3.634a10.413,10.413,0,0,1,.344,2.712,9.416,9.416,0,0,1-.511,3.481,5.762,5.762,0,0,1-1.418,2.072A4.627,4.627,0,0,1,33.7,5.744a10.035,10.035,0,0,1-2.578.382H24.691ZM29.017-4.7V2.946h1.06a4.458,4.458,0,0,0,1.929-.3,2.04,2.04,0,0,0,.9-1.05,6.6,6.6,0,0,0,.325-2.43A4.719,4.719,0,0,0,32.5-3.882,3.071,3.071,0,0,0,30.1-4.7Zm11-3.171h4.336v14H40.018ZM56.065,3.815H51.153l-.682,2.311H46.054l5.262-14h4.719l5.261,14h-4.53Zm-.9-3.027L53.622-4.245,52.093.788Z" transform="translate(9.098 12.874)" fill="#720000"/>
  </g>
</svg>
