<svg xmlns="http://www.w3.org/2000/svg" xmlns:xlink="http://www.w3.org/1999/xlink" width="80" height="24" viewBox="0 0 80 24">
  <defs>
    <clipPath id="clip-iran">
      <rect width="80" height="24"/>
    </clipPath>
  </defs>
  <g id="iran" clip-path="url(#clip-iran)">
    <rect width="80" height="24" fill="#fff"/>
    <path id="Path_433" data-name="Path 433" d="M.9-7.874H5.975v16H.9Zm8.771,16v-16h8.436a12.531,12.531,0,0,1,3.587.393,3.812,3.812,0,0,1,2,1.457,4.344,4.344,0,0,1,.76,2.592,4.372,4.372,0,0,1-.581,2.3,4.493,4.493,0,0,1-1.6,1.566,6.217,6.217,0,0,1-1.778.633,5.1,5.1,0,0,1,1.318.59,5.038,5.038,0,0,1,.81.841,6.274,6.274,0,0,1,.709.994l2.451,4.636H20.066L17.36,3.236A3.735,3.735,0,0,0,16.444,2a2.159,2.159,0,0,0-1.24-.371h-.447V8.126Zm5.084-9.517h2.134a7.794,7.794,0,0,0,1.341-.218,1.343,1.343,0,0,0,.821-.5,1.457,1.457,0,0,0,.318-.928,1.454,1.454,0,0,0-.5-1.19,3.1,3.1,0,0,0-1.888-.415H14.757ZM37.475,5.485H31.729l-.8,2.641H25.763l6.156-16H37.44l6.155,16h-5.3Zm-1.05-3.46L34.617-3.727,32.828,2.025Zm8.812-9.9h4.726L56.131.978V-7.874H60.9v16H56.131L50-.659V8.126h-4.76Z" transform="translate(9.098 11.874)" opacity="0.8"/>
  </g>
</svg>
