<svg xmlns="http://www.w3.org/2000/svg" xmlns:xlink="http://www.w3.org/1999/xlink" width="80" height="24" viewBox="0 0 80 24">
  <defs>
    <clipPath id="clip-iranlent_1">
      <rect width="80" height="24"/>
    </clipPath>
  </defs>
  <g id="iranlent_1" data-name="iranlent – 1" clip-path="url(#clip-iranlent_1)">
    <rect width="80" height="24" fill="#fff"/>
    <g id="Group_101" data-name="Group 101" transform="translate(4857.492 -2785.67)">
      <path id="Path_443" data-name="Path 443" d="M-4829.746,2796.727c.309.489.625.975.923,1.471a3.892,3.892,0,0,0,.385.719.917.917,0,0,0,.667.32c.173-.037.379-.372.4-.592.056-.584.019-1.177.019-1.814h4.139c0,.634,0,1.243,0,1.852,0,.4,0,.824.571.806s.641-.428.644-.865c.006-.958,0-1.916,0-2.874,0-1.663,0-3.326,0-5.077,1.3,0,2.545-.017,3.789.027.119,0,.318.386.32.594.024,2.19.014,4.38.017,6.57,0,1.24.263,1.477,1.485,1.454,1.138-.021,2.276,0,3.48,0v4.677h-1.27c-1.551,0-3.1-.029-4.654.011a2.039,2.039,0,0,1-1.889-.863,1.715,1.715,0,0,0-.319-.253c-.158.18-.312.334-.442.507a2.584,2.584,0,0,1-3.7.716.964.964,0,0,0-1.187-.041,2.538,2.538,0,0,1-.245.122c-1.516.822-2.441.651-3.612-.674-.352-.4-.648-1.055-1.057-1.133-.432-.082-.966.391-1.46.614a15.429,15.429,0,0,1-4.966,1.121,15.737,15.737,0,0,1-5.289-.3,5.762,5.762,0,0,1-4.351-6.984c.369-1.779.369-1.779,2.169-1.786.564,0,1.128,0,1.642,0,0,.589-.025,1.108,0,1.625a2.612,2.612,0,0,0,1.769,2.448,8.724,8.724,0,0,0,4.646.192A24.019,24.019,0,0,0-4829.746,2796.727Z" fill="#ffa200"/>
      <path id="Path_444" data-name="Path 444" d="M-4533.863,2791.316v4.625h-2.841c-2.09,0-2.367.2-3.108,2.172q-.7,1.852-1.443,3.684a6.447,6.447,0,0,1-.582,1.08,3.041,3.041,0,0,1-2.932,1.623c-1.037-.079-2.085-.016-3.166-.016v-4.632c.8,0,1.589-.048,2.37.015a1.222,1.222,0,0,0,1.352-.8c.7-1.6,1.452-3.186,2.046-4.827a4.065,4.065,0,0,1,4.327-2.927C-4536.525,2791.309-4535.211,2791.316-4533.863,2791.316Z" transform="translate(-258.545 -0.555)" fill="#ffa200"/>
      <path id="Path_445" data-name="Path 445" d="M-4440.238,2790.681c1.273,0,2.5.006,3.729,0,.5,0,.443.339.443.66q0,3.628,0,7.256c0,1.552-.017,3.1.007,4.655.007.5-.157.688-.668.671-1-.033-2.008-.027-3.012-.011-.395.006-.574-.1-.572-.534.016-4.107.016-8.214.022-12.322A3.647,3.647,0,0,1-4440.238,2790.681Z" transform="translate(-351.434 -0.008)" fill="#ffa200"/>
      <path id="Path_446" data-name="Path 446" d="M-4585.323,2791.843h3.99v13.119h-3.99Z" transform="translate(-226.275 -1.012)" fill="#ffa200"/>
      <path id="Path_447" data-name="Path 447" d="M-4798.735,2793.777c-1,.9-1.869.986-2.547.284a2.089,2.089,0,0,1,.029-2.8c.7-.739,1.461-.637,2.526.336,1.282-.959,1.967-1.025,2.633-.255a2.06,2.06,0,0,1-.037,2.735C-4796.819,2794.772-4797.741,2794.673-4798.735,2793.777Z" transform="translate(-39.431 -0.094)" fill="#ffa200"/>
      <path id="Path_448" data-name="Path 448" d="M-4493.008,2863.138c-1.272.939-2.011.983-2.7.158a2.024,2.024,0,0,1,.178-2.672c.765-.724,1.458-.636,2.38.223a7.1,7.1,0,0,1,1.744-.648,1.635,1.635,0,0,1,1.078.616,1.984,1.984,0,0,1-.186,2.669C-4491.23,2864.144-4492.03,2864.033-4493.008,2863.138Z" transform="translate(-303.26 -59.955)" fill="#ffa200"/>
      <path id="Path_449" data-name="Path 449" d="M-4700.153,2792.6a1.742,1.742,0,0,1-1.641,1.884,1.771,1.771,0,0,1-1.685-1.79,1.869,1.869,0,0,1,1.625-1.942A1.806,1.806,0,0,1-4700.153,2792.6Z" transform="translate(-124.296 -0.07)" fill="#ffa200"/>
      <path id="Path_450" data-name="Path 450" d="M-4621.788,2792.733a1.706,1.706,0,0,1-1.63,1.813,1.793,1.793,0,0,1-1.676-1.869,1.822,1.822,0,0,1,1.7-1.857A1.762,1.762,0,0,1-4621.788,2792.733Z" transform="translate(-191.949 -0.13)" fill="#ffa200"/>
    </g>
  </g>
</svg>
