<svg xmlns="http://www.w3.org/2000/svg" xmlns:xlink="http://www.w3.org/1999/xlink" width="80" height="24" viewBox="0 0 80 24">
  <defs>
    <clipPath id="clip-ISUMAN">
      <rect width="80" height="24"/>
    </clipPath>
  </defs>
  <g id="ISUMAN" clip-path="url(#clip-ISUMAN)">
    <rect width="80" height="24" fill="#fff"/>
    <path id="Path_438" data-name="Path 438" d="M.9-7.81H3.965v11.6H.9ZM5.624-.045,8.531-.259a2.9,2.9,0,0,0,.384,1.266,1.528,1.528,0,0,0,1.349.7,1.351,1.351,0,0,0,1.008-.36,1.155,1.155,0,0,0,.354-.835,1.143,1.143,0,0,0-.337-.807A3.586,3.586,0,0,0,9.725-.963,6.2,6.2,0,0,1,6.858-2.372,3.063,3.063,0,0,1,6-4.613,3.428,3.428,0,0,1,6.437-6.3,3.078,3.078,0,0,1,7.766-7.553,5.387,5.387,0,0,1,10.2-8.008a4.417,4.417,0,0,1,2.89.827,3.775,3.775,0,0,1,1.184,2.632l-2.88.2a1.941,1.941,0,0,0-.482-1.14,1.4,1.4,0,0,0-1.015-.356,1.1,1.1,0,0,0-.8.265.87.87,0,0,0-.27.645.688.688,0,0,0,.223.5,2.291,2.291,0,0,0,1.025.427,11.5,11.5,0,0,1,2.87,1.025A3.23,3.23,0,0,1,14.2-1.7,3.7,3.7,0,0,1,14.6.018a4.15,4.15,0,0,1-.526,2.058A3.479,3.479,0,0,1,12.6,3.5a5.172,5.172,0,0,1-2.381.487q-2.523,0-3.494-1.14A4.883,4.883,0,0,1,5.624-.045ZM22.568-7.81h3.049V-.9a6.745,6.745,0,0,1-.273,1.942,4.351,4.351,0,0,1-.857,1.6,3.433,3.433,0,0,1-1.224.961,5.338,5.338,0,0,1-2.138.388,11.492,11.492,0,0,1-1.575-.119A3.673,3.673,0,0,1,18.123,3.4a3.752,3.752,0,0,1-1.049-1,3.881,3.881,0,0,1-.651-1.337A8.031,8.031,0,0,1,16.14-.9V-7.81h3.049V-.732A2.237,2.237,0,0,0,19.638.751a1.537,1.537,0,0,0,1.245.534A1.54,1.54,0,0,0,22.12.759a2.231,2.231,0,0,0,.449-1.491Zm5.039,0h4.019L33.176-.75,34.714-7.81H38.73v11.6h-2.5v-8.85L34.3,3.794H32.034L30.11-5.056v8.85h-2.5ZM46.759,1.878H43.29l-.482,1.916h-3.12L43.4-7.81h3.333l3.716,11.6h-3.2ZM46.125-.631,45.034-4.8,43.954-.631Zm5.32-7.179H54.3l3.723,6.42V-7.81H60.9v11.6h-2.88l-3.7-6.372V3.794H51.445Z" transform="translate(9.098 14.008)" fill="#003f75"/>
  </g>
</svg>
