<svg xmlns="http://www.w3.org/2000/svg" xmlns:xlink="http://www.w3.org/1999/xlink" width="80" height="24" viewBox="0 0 80 24">
  <defs>
    <clipPath id="clip-Isuzu_orginal">
      <rect width="80" height="24"/>
    </clipPath>
  </defs>
  <g id="Isuzu_orginal" data-name="Isuzu orginal" clip-path="url(#clip-Isuzu_orginal)">
    <rect width="80" height="24" fill="#fff"/>
    <g id="Group_53" data-name="Group 53" transform="translate(0 -125.143)">
      <g id="Group_51" data-name="Group 51">
        <path id="Path_194" data-name="Path 194" d="M13.6,137.53c0,.307-.162.468-.519.468H11.142c-.349,0-.522-.154-.522-.465v-7.921c0-.313.166-.467.522-.467h1.93c.349,0,.526.148.526.467v7.918Z" fill="#b90000" fill-rule="evenodd"/>
        <path id="Path_195" data-name="Path 195" d="M16.313,137.53v-1.054c0-.317.169-.466.522-.466h8.407c.155,0,.23-.05.262-.142s.008-.218-.187-.274-6.805-1.937-7.085-2.021c-1.379-.416-1.9-1.2-1.9-2.165,0-1.219.914-2.263,3.036-2.263h7.672c.36,0,.518.154.518.467V130.7c0,.321-.169.466-.514.466l-7.576,0c-.169,0-.248.039-.274.122s-.021.213.181.268c.252.069,5.789,1.638,6.808,1.933,1.57.458,2.164,1.109,2.164,2.334,0,1.462-1.127,2.154-3.06,2.178-.728.009-8.451,0-8.451,0-.367,0-.525-.124-.525-.468Z" fill="#b90000" fill-rule="evenodd"/>
        <path id="Path_196" data-name="Path 196" d="M33.141,129.145c.35,0,.522.144.522.46v5.024c0,.833.227,1.325,1.5,1.363.3.009.753.013,1.145.013s.933,0,1.228-.013c1.275-.038,1.411-.53,1.411-1.363V129.6c0-.312.151-.462.522-.462l1.963,0c.356,0,.515.151.515.467v5.441c0,1.46-.27,2.89-3.378,2.937-1.069.017-2.261.027-2.261.027l-2.34-.027c-2.935-.031-3.287-1.54-3.287-2.937V129.6c0-.309.154-.46.514-.46Z" fill="#b90000" fill-rule="evenodd"/>
        <path id="Path_197" data-name="Path 197" d="M61.134,129.145c.35,0,.522.144.522.46v5.024c0,.833.227,1.325,1.5,1.363.3.009.749.013,1.141.013s.937,0,1.228-.013c1.274-.038,1.415-.53,1.415-1.363V129.6c0-.312.151-.462.522-.462l1.962,0c.361,0,.515.151.515.467v5.441c0,1.46-.269,2.89-3.38,2.937-1.066.017-2.262.027-2.262.027l-2.337-.027c-2.934-.031-3.286-1.54-3.286-2.937V129.6c0-.309.154-.46.514-.46Z" fill="#b90000" fill-rule="evenodd"/>
        <path id="Path_198" data-name="Path 198" d="M56.31,137.53c0,.344-.159.468-.526.468,0,0-7.722.009-8.449,0-1.933-.024-3.061-.716-3.061-2.178,0-1.225.59-1.876,2.164-2.334,1.02-.295,6.555-1.864,6.808-1.933.2-.055.208-.18.179-.268s-.107-.122-.273-.122l-7.575,0c-.345,0-.514-.145-.514-.466v-1.088c0-.313.158-.467.518-.467h7.671c2.124,0,3.036,1.044,3.036,2.263,0,.962-.518,1.749-1.9,2.165-.281.084-6.889,1.965-7.084,2.021s-.22.19-.187.274.107.142.259.142h8.409c.353,0,.523.149.523.466v1.054Z" fill="#b90000" fill-rule="evenodd"/>
      </g>
      <g id="Group_52" data-name="Group 52">
        <path id="Path_199" data-name="Path 199" d="M14.461,144.848a5.505,5.505,0,0,1-1.675.265,3,3,0,0,1-2.03-.641A2.363,2.363,0,0,1,10,142.663c0-1.449,1.118-2.509,2.939-2.509a3.748,3.748,0,0,1,1.36.223l-.176.513a2.94,2.94,0,0,0-1.2-.211,1.931,1.931,0,0,0-2.18,1.955,1.88,1.88,0,0,0,2.092,1.96,2.507,2.507,0,0,0,.934-.13v-1.448h-1.1v-.506h1.789Z" fill="#b90000"/>
        <path id="Path_200" data-name="Path 200" d="M18.927,142.785h-2.1v1.752h2.351v.526H16.117V140.2h2.938v.526h-2.23v1.537h2.1Z" fill="#b90000"/>
        <path id="Path_201" data-name="Path 201" d="M20.689,145.063V140.2h.772l1.731,2.46a13.092,13.092,0,0,1,.965,1.579l.026-.008a18.918,18.918,0,0,1-.081-2V140.2h.66v4.86h-.709L22.33,142.6a13.584,13.584,0,0,1-1.006-1.623l-.024.007c.041.613.048,1.2.048,2.005v2.076Z" fill="#b90000"/>
        <path id="Path_202" data-name="Path 202" d="M27.288,140.2v2.885c0,1.081.539,1.542,1.264,1.542.8,0,1.321-.474,1.321-1.542V140.2h.709v2.841a1.876,1.876,0,0,1-2.055,2.1,1.8,1.8,0,0,1-1.947-2.076V140.2Z" fill="#b90000"/>
        <path id="Path_203" data-name="Path 203" d="M33.1,140.2v4.86h-.708V140.2Z" fill="#b90000"/>
        <path id="Path_204" data-name="Path 204" d="M34.925,145.063V140.2H35.7l1.731,2.46a13.256,13.256,0,0,1,.967,1.579l.024-.008a19.177,19.177,0,0,1-.082-2V140.2H39v4.86h-.707L36.567,142.6a14.118,14.118,0,0,1-1.006-1.623l-.024.007c.04.613.048,1.2.048,2.005v2.076Z" fill="#b90000"/>
        <path id="Path_205" data-name="Path 205" d="M43.627,142.785h-2.1v1.752h2.351v.526h-3.06V140.2h2.94v.526H41.526v1.537h2.1Z" fill="#b90000"/>
        <path id="Path_206" data-name="Path 206" d="M47.7,140.262a8.959,8.959,0,0,1,1.345-.093,2.417,2.417,0,0,1,1.521.4,1.275,1.275,0,0,1,.475,1.017,1.345,1.345,0,0,1-.419,1.038,2.422,2.422,0,0,1-1.66.534,2.6,2.6,0,0,1-.561-.044v1.947h-.7Zm.7,2.344a2.74,2.74,0,0,0,.58.05c.844,0,1.36-.376,1.36-1.033s-.516-.959-1.279-.959a3.286,3.286,0,0,0-.661.052Z" fill="#b90000"/>
        <path id="Path_207" data-name="Path 207" d="M52.784,143.534l-.563,1.529H51.5l1.85-4.86h.838l1.85,4.86h-.746l-.582-1.529Zm1.787-.49-.539-1.4c-.12-.319-.2-.607-.281-.887h-.017c-.081.28-.161.583-.275.879l-.53,1.4Z" fill="#b90000"/>
        <path id="Path_208" data-name="Path 208" d="M57.436,140.268a9.157,9.157,0,0,1,1.343-.1,2.427,2.427,0,0,1,1.57.4,1.181,1.181,0,0,1,.427.929,1.3,1.3,0,0,1-1.015,1.234v.02a1.245,1.245,0,0,1,.79.981,7.072,7.072,0,0,0,.419,1.334h-.726a5.807,5.807,0,0,1-.353-1.161,1.021,1.021,0,0,0-1.095-.944h-.66v2.105h-.7Zm.7,2.214h.715c.751,0,1.225-.369,1.225-.923,0-.627-.507-.9-1.247-.9a3.438,3.438,0,0,0-.693.049Z" fill="#b90000"/>
        <path id="Path_209" data-name="Path 209" d="M63.473,140.737H61.821V140.2h4.018v.534H64.18v4.326h-.707Z" fill="#b90000"/>
        <path id="Path_210" data-name="Path 210" d="M66.908,144.3a2.569,2.569,0,0,0,1.248.318c.717,0,1.135-.34,1.135-.83,0-.448-.29-.715-1.023-.959-.885-.287-1.433-.707-1.433-1.384,0-.756.7-1.319,1.755-1.319a2.652,2.652,0,0,1,1.193.238l-.194.511a2.2,2.2,0,0,0-1.022-.23c-.741,0-1.023.4-1.023.728,0,.453.331.677,1.079.938.917.316,1.377.713,1.377,1.426,0,.75-.611,1.407-1.894,1.407a3.026,3.026,0,0,1-1.383-.319Z" fill="#b90000"/>
      </g>
    </g>
  </g>
</svg>
