<svg xmlns="http://www.w3.org/2000/svg" xmlns:xlink="http://www.w3.org/1999/xlink" width="80" height="24" viewBox="0 0 80 24">
  <defs>
    <clipPath id="clip-IZUMI">
      <rect width="80" height="24"/>
    </clipPath>
  </defs>
  <g id="IZUMI" clip-path="url(#clip-IZUMI)">
    <rect width="80" height="24" fill="#fff"/>
    <g id="Group_7" data-name="Group 7" transform="translate(0 -30.593)">
      <path id="Path_35" data-name="Path 35" d="M9.986,50.593v-16h3.408v16Z" fill="#004ebf"/>
      <path id="Path_36" data-name="Path 36" d="M15.119,50.593V47.679L23.835,37.3H16.1V34.593H28.248V37.1L19.16,47.9H28.6v2.7Z" fill="#004ebf"/>
      <path id="Path_37" data-name="Path 37" d="M30.693,34.593h3.351v8.52a16.6,16.6,0,0,0,.125,2.629,2.529,2.529,0,0,0,1.024,1.551,3.71,3.71,0,0,0,2.213.585,3.515,3.515,0,0,0,2.15-.552,2.172,2.172,0,0,0,.872-1.358,16.832,16.832,0,0,0,.146-2.672v-8.7h3.351v8.263a20.175,20.175,0,0,1-.271,4,4.345,4.345,0,0,1-1,1.974A5.091,5.091,0,0,1,40.7,50.116a8.947,8.947,0,0,1-3.192.477,9.641,9.641,0,0,1-3.6-.52,5.147,5.147,0,0,1-1.942-1.353,4.255,4.255,0,0,1-.939-1.743,18.118,18.118,0,0,1-.329-3.992Z" fill="#004ebf"/>
      <path id="Path_38" data-name="Path 38" d="M47.412,50.593v-16h5.014l3.011,10.914,2.976-10.914h5.026v16H60.326V38L57.033,50.593H53.807L50.525,38V50.593Z" fill="#004ebf"/>
      <path id="Path_39" data-name="Path 39" d="M66.664,50.593v-16h3.35v16Z" fill="#004ebf"/>
    </g>
  </g>
</svg>
