<svg xmlns="http://www.w3.org/2000/svg" xmlns:xlink="http://www.w3.org/1999/xlink" width="80" height="24" viewBox="0 0 80 24">
  <defs>
    <clipPath id="clip-JAPAN">
      <rect width="80" height="24"/>
    </clipPath>
  </defs>
  <g id="JAPAN" clip-path="url(#clip-JAPAN)">
    <rect width="80" height="24" fill="#fff"/>
    <g id="Group_79" data-name="Group 79" transform="translate(314.773 -613.528)">
      <path id="Path_341" data-name="Path 341" d="M-298.834,618.528h3.72v7.479a13.355,13.355,0,0,1-.365,3.583,4.063,4.063,0,0,1-1.467,2.083,4.475,4.475,0,0,1-2.823.854,5.782,5.782,0,0,1-2.817-.564,3.788,3.788,0,0,1-1.545-1.648,6.922,6.922,0,0,1-.643-2.681l3.549-.553a5.266,5.266,0,0,0,.138,1.351,1.491,1.491,0,0,0,.443.715.919.919,0,0,0,.605.178.968.968,0,0,0,.913-.53,3.964,3.964,0,0,0,.291-1.787Z" transform="translate(0 0)" fill="#3a0ca3"/>
      <path id="Path_342" data-name="Path 342" d="M-288.68,630.022h-4.213l-.586,2.272h-3.789l4.515-13.766h4.048l4.513,13.766h-3.885Zm-.769-2.978-1.325-4.949-1.313,4.949Z" transform="translate(2.989 0)" fill="#3a0ca3"/>
      <path id="Path_343" data-name="Path 343" d="M-287.083,618.528h6.169a3.886,3.886,0,0,1,3.019,1.1,4.471,4.471,0,0,1,1,3.127,4.6,4.6,0,0,1-1.093,3.26,4.358,4.358,0,0,1-3.339,1.173h-2.032v5.109h-3.727Zm3.727,5.869h.909a2.117,2.117,0,0,0,1.507-.428,1.468,1.468,0,0,0,.435-1.093,1.656,1.656,0,0,0-.378-1.1,1.787,1.787,0,0,0-1.416-.45h-1.057Z" transform="translate(7.043 0)" fill="#3a0ca3"/>
      <path id="Path_344" data-name="Path 344" d="M-271.7,630.022h-4.213l-.586,2.272h-3.789l4.513-13.766h4.049l4.512,13.766H-271.1Zm-.769-2.978-1.327-4.949-1.311,4.949Z" transform="translate(9.749 0)" fill="#3a0ca3"/>
      <path id="Path_345" data-name="Path 345" d="M-270.073,618.528h3.465l4.523,7.615v-7.615h3.5v13.766h-3.5l-4.5-7.559v7.559h-3.49Z" transform="translate(13.816 0)" fill="#3a0ca3"/>
    </g>
  </g>
</svg>
