<svg xmlns="http://www.w3.org/2000/svg" xmlns:xlink="http://www.w3.org/1999/xlink" width="80" height="24" viewBox="0 0 80 24">
  <defs>
    <clipPath id="clip-kansui">
      <rect width="80" height="24"/>
    </clipPath>
  </defs>
  <g id="kansui" clip-path="url(#clip-kansui)">
    <rect width="80" height="24" fill="#fff"/>
    <path id="Path_408" data-name="Path 408" d="M.816-7.777H3.955v5.116L7.243-7.777h4.174L7.71-2.667l3.873,8.428H7.718L5.577.193,3.955,2.457v3.3H.816Zm18.05,11.3H15.3l-.5,2.235H11.6L15.421-7.777h3.423L22.662,5.761H19.375ZM18.216.6,17.095-4.268,15.985.6ZM23.68-7.777h2.931l3.824,7.49v-7.49h2.958V5.761H30.435l-3.8-7.433V5.761H23.68ZM34.932,1.282l2.986-.249a3.711,3.711,0,0,0,.395,1.478,1.527,1.527,0,0,0,1.386.822,1.3,1.3,0,0,0,1.036-.42,1.444,1.444,0,0,0,.364-.974A1.431,1.431,0,0,0,40.752,1,3.493,3.493,0,0,0,39.144.211,6.126,6.126,0,0,1,36.2-1.433a3.851,3.851,0,0,1-.887-2.613,4.43,4.43,0,0,1,.454-1.972,3.373,3.373,0,0,1,1.365-1.459,4.968,4.968,0,0,1,2.5-.531,4.166,4.166,0,0,1,2.969.965,4.676,4.676,0,0,1,1.216,3.071l-2.958.231a2.423,2.423,0,0,0-.5-1.33,1.338,1.338,0,0,0-1.043-.416,1.05,1.05,0,0,0-.824.309,1.088,1.088,0,0,0-.277.753.856.856,0,0,0,.229.582,2.226,2.226,0,0,0,1.053.5,10.943,10.943,0,0,1,2.948,1.2,3.6,3.6,0,0,1,1.3,1.5,4.807,4.807,0,0,1,.405,2,5.366,5.366,0,0,1-.54,2.4A3.831,3.831,0,0,1,42.1,5.424a4.781,4.781,0,0,1-2.446.568q-2.591,0-3.589-1.33A6.161,6.161,0,0,1,34.932,1.282Zm17.4-9.059h3.132V.288a8.869,8.869,0,0,1-.281,2.266,5.327,5.327,0,0,1-.88,1.864A3.628,3.628,0,0,1,53.05,5.539a4.911,4.911,0,0,1-2.2.452,10.421,10.421,0,0,1-1.618-.138A3.475,3.475,0,0,1,47.77,5.3a4.114,4.114,0,0,1-1.077-1.167,4.81,4.81,0,0,1-.669-1.56A10.563,10.563,0,0,1,45.733.288V-7.777h3.132V.481a2.858,2.858,0,0,0,.461,1.73,1.624,1.624,0,0,0,2.55.009A2.851,2.851,0,0,0,52.336.481Zm5.335,0h3.145V5.761H57.671Z" transform="translate(11.184 14.008)" fill="#6200a2"/>
  </g>
</svg>
