<svg xmlns="http://www.w3.org/2000/svg" xmlns:xlink="http://www.w3.org/1999/xlink" width="80" height="24" viewBox="0 0 80 24">
  <defs>
    <linearGradient id="linear-gradient" x1="-225.819" y1="86.621" x2="-226.391" y2="85.811" gradientUnits="objectBoundingBox">
      <stop offset="0" stop-color="#2b96d8"/>
      <stop offset="1" stop-color="#074d82"/>
    </linearGradient>
    <clipPath id="clip-KATSU">
      <rect width="80" height="24"/>
    </clipPath>
  </defs>
  <g id="KATSU" clip-path="url(#clip-KATSU)">
    <rect width="80" height="24" fill="#fff"/>
    <g id="Group_37" data-name="Group 37" transform="translate(-86.505 1)">
      <ellipse id="Ellipse_1" data-name="Ellipse 1" cx="5.184" cy="5.158" rx="5.184" ry="5.158" transform="translate(108.332 5.517)" fill="#d8d8d8"/>
      <ellipse id="Ellipse_2" data-name="Ellipse 2" cx="4.954" cy="4.929" rx="4.954" ry="4.929" transform="translate(108.562 5.747)" fill="url(#linear-gradient)"/>
      <g id="Group_34" data-name="Group 34">
        <path id="Path_115" data-name="Path 115" d="M97.858,9.005h3.29a4.4,4.4,0,0,0,1.453-.247,7.535,7.535,0,0,0,1.389-.651,10.319,10.319,0,0,0,1.3-.917q.619-.514,1.189-1.046a.682.682,0,0,1,.484-.256.6.6,0,0,1,.484.256.99.99,0,0,1,.2.624.864.864,0,0,1-.114.449,1.5,1.5,0,0,1-.271.339q-.371.367-.712.688t-.684.6q-.34.276-.705.532t-.776.514q.414.257.776.513t.705.532q.342.275.684.6t.712.688a1.525,1.525,0,0,1,.271.339.864.864,0,0,1,.114.449.986.986,0,0,1-.2.624.6.6,0,0,1-.484.256.682.682,0,0,1-.484-.256q-.585-.55-1.2-1.064a10.548,10.548,0,0,0-1.289-.917A6.925,6.925,0,0,0,102.6,11a4.575,4.575,0,0,0-1.453-.238h-3.29V13a.985.985,0,0,1-.2.624.584.584,0,0,1-.47.256.6.6,0,0,1-.484-.256A.986.986,0,0,1,96.5,13V6.768a.99.99,0,0,1,.2-.624.582.582,0,0,1,.47-.256.6.6,0,0,1,.484.256.989.989,0,0,1,.2.624Z" fill="#1a1a1a"/>
        <path id="Path_116" data-name="Path 116" d="M129.874,6.144a1.076,1.076,0,0,1,0,1.247.593.593,0,0,1-.484.257h-4.216V13a.985.985,0,0,1-.2.624.586.586,0,0,1-.969,0,.985.985,0,0,1-.2-.624V7.648h-4.273a.662.662,0,0,1-.441-.284.97.97,0,0,1-.185-.6.989.989,0,0,1,.2-.624.6.6,0,0,1,.484-.256h9.8A.6.6,0,0,1,129.874,6.144Z" fill="#1a1a1a"/>
        <path id="Path_117" data-name="Path 117" d="M132.651,10.573a1.976,1.976,0,0,1-.6-.523,2.6,2.6,0,0,1-.406-.77,3.125,3.125,0,0,1,0-1.907,2.624,2.624,0,0,1,.406-.77,1.99,1.99,0,0,1,.6-.523,1.489,1.489,0,0,1,.741-.192h8.645a.6.6,0,0,1,.484.256,1.076,1.076,0,0,1,0,1.247.594.594,0,0,1-.484.257h-8.674a.484.484,0,0,0-.377.193.724.724,0,0,0-.164.486.737.737,0,0,0,.164.477.478.478,0,0,0,.377.2h7.876a1.519,1.519,0,0,1,.748.193,1.964,1.964,0,0,1,.6.522,2.608,2.608,0,0,1,.406.78,3.021,3.021,0,0,1,.149.963,2.934,2.934,0,0,1-.149.953,2.617,2.617,0,0,1-.406.771,1.857,1.857,0,0,1-.6.513,1.588,1.588,0,0,1-.748.183h-8.631a.6.6,0,0,1-.484-.256,1.076,1.076,0,0,1,0-1.247.6.6,0,0,1,.484-.257H141.3a.464.464,0,0,0,.37-.193.713.713,0,0,0,.157-.467.778.778,0,0,0-.157-.495.458.458,0,0,0-.37-.2h-7.9A1.479,1.479,0,0,1,132.651,10.573Z" fill="#1a1a1a"/>
        <path id="Path_118" data-name="Path 118" d="M146,10.61a2.282,2.282,0,0,0,.242.724,1.7,1.7,0,0,0,.484.56,1.309,1.309,0,0,0,.8.229H153.2a1.316,1.316,0,0,0,.8-.229,1.664,1.664,0,0,0,.491-.56,2.257,2.257,0,0,0,.242-.724,4.507,4.507,0,0,0,.064-.724v-3.1a.985.985,0,0,1,.2-.623.584.584,0,0,1,.968,0,.985.985,0,0,1,.2.623v3.1a5.746,5.746,0,0,1-.178,1.4,4.821,4.821,0,0,1-.52,1.284,3.252,3.252,0,0,1-.826.945,1.774,1.774,0,0,1-1.1.366H147.05a1.764,1.764,0,0,1-1.04-.412,3.332,3.332,0,0,1-.776-.945,4.921,4.921,0,0,1-.491-1.265,5.752,5.752,0,0,1-.171-1.375v-3.1a.984.984,0,0,1,.2-.623.585.585,0,0,1,.969,0,.99.99,0,0,1,.2.623v3.1A4.507,4.507,0,0,0,146,10.61Z" fill="#1a1a1a"/>
      </g>
      <g id="Group_35" data-name="Group 35">
        <path id="Path_119" data-name="Path 119" d="M135.4,19.866a.313.313,0,0,1-.253.134.31.31,0,0,1-.252-.134.514.514,0,0,1-.1-.325V18.376a1.611,1.611,0,0,1-.549-.1,2.4,2.4,0,0,1-.56-.3,5.131,5.131,0,0,1-.627-.53q-.335-.325-.749-.793a.594.594,0,0,1-.1-.162.549.549,0,0,1,.063-.526.313.313,0,0,1,.253-.134.243.243,0,0,1,.133.038.835.835,0,0,1,.119.1c.317.357.582.635.8.836a3.1,3.1,0,0,0,.578.444,1.414,1.414,0,0,0,.486.177,3.688,3.688,0,0,0,.52.034,4.074,4.074,0,0,0,.512-.029,1.329,1.329,0,0,0,.475-.172,3.294,3.294,0,0,0,.575-.444q.323-.3.805-.846a.356.356,0,0,1,.252-.134.31.31,0,0,1,.252.134.542.542,0,0,1,.063.526.592.592,0,0,1-.1.162q-.408.459-.749.788a5.065,5.065,0,0,1-.642.535,2.515,2.515,0,0,1-.571.3,1.566,1.566,0,0,1-.524.1v1.165A.513.513,0,0,1,135.4,19.866Z" fill="#1a1a1a"/>
        <path id="Path_120" data-name="Path 120" d="M138.765,19.828a.323.323,0,0,1-.275.172.31.31,0,0,1-.252-.134.514.514,0,0,1-.1-.325.477.477,0,0,1,.074-.277l1.8-3.124a1.061,1.061,0,0,1,.334-.358.785.785,0,0,1,.445-.139.794.794,0,0,1,.423.124.957.957,0,0,1,.327.344l1.8,3.1a.691.691,0,0,1,.074.149.5.5,0,0,1,.03.176.514.514,0,0,1-.1.325.307.307,0,0,1-.534-.048l-1.729-2.971a1.888,1.888,0,0,0-.13-.167.185.185,0,0,0-.319,0,1.154,1.154,0,0,0-.123.167Z" fill="#1a1a1a"/>
        <path id="Path_121" data-name="Path 121" d="M150.451,19.541a.514.514,0,0,1-.1.325.3.3,0,0,1-.5,0,.508.508,0,0,1-.1-.325V17.459c0-.262-.013-.392-.037-.392s-.089.086-.208.258l-1.633,2.388a.623.623,0,0,1-.237.215.678.678,0,0,1-.608,0,.625.625,0,0,1-.238-.215l-1.632-2.388c-.114-.172-.183-.258-.208-.258s-.037.13-.037.392v2.082a.514.514,0,0,1-.1.325.3.3,0,0,1-.5,0,.513.513,0,0,1-.1-.325V16.752a1.181,1.181,0,0,1,.17-.65.531.531,0,0,1,.468-.268.491.491,0,0,1,.319.115,1.466,1.466,0,0,1,.259.277l1.707,2.5a.922.922,0,0,0,.093.1.166.166,0,0,0,.115.052.168.168,0,0,0,.115-.052.922.922,0,0,0,.093-.1l1.7-2.5h.007a.875.875,0,0,1,.252-.287.554.554,0,0,1,.327-.105.529.529,0,0,1,.467.268,1.181,1.181,0,0,1,.171.65Z" fill="#1a1a1a"/>
        <path id="Path_122" data-name="Path 122" d="M151.824,19.828a.324.324,0,0,1-.275.172.31.31,0,0,1-.252-.134.514.514,0,0,1-.1-.325.477.477,0,0,1,.074-.277l1.8-3.124a1.061,1.061,0,0,1,.334-.358.782.782,0,0,1,.445-.139.794.794,0,0,1,.423.124.966.966,0,0,1,.327.344l1.8,3.1a.739.739,0,0,1,.074.149.5.5,0,0,1,.029.176.513.513,0,0,1-.1.325.308.308,0,0,1-.535-.048l-1.728-2.971a1.888,1.888,0,0,0-.13-.167.185.185,0,0,0-.319,0,1.154,1.154,0,0,0-.123.167Z" fill="#1a1a1a"/>
      </g>
      <g id="Group_36" data-name="Group 36">
        <path id="Path_123" data-name="Path 123" d="M110.252,13.686a27.793,27.793,0,0,1,.675-4.14,9.7,9.7,0,0,1,.33-1.016,10.051,10.051,0,0,1,.452-1.014,2.735,2.735,0,0,1,.764-.925,1.7,1.7,0,0,1,1.2-.322,1.641,1.641,0,0,1,.606.2,1.96,1.96,0,0,1,.486.392,3.7,3.7,0,0,1,.6.994c.15.339.279.669.4,1s.223.668.311,1.006a30.559,30.559,0,0,1,.7,4.116,19.01,19.01,0,0,0-.959-4.01,9.856,9.856,0,0,0-.4-.919,3.271,3.271,0,0,0-.532-.8,2.186,2.186,0,0,0-.685-.5,1.555,1.555,0,0,0-1.2-.036,2.019,2.019,0,0,0-.646.409,3.007,3.007,0,0,0-.564.727,8.64,8.64,0,0,0-.432.885,14.392,14.392,0,0,0-.651,1.93C110.52,12.325,110.375,13,110.252,13.686Z" fill="#fcfcfc"/>
        <rect id="Rectangle_11" data-name="Rectangle 11" width="4.194" height="0.496" rx="0.248" transform="translate(111.419 10.923)" fill="#fcfcfc"/>
      </g>
    </g>
  </g>
</svg>
