<svg xmlns="http://www.w3.org/2000/svg" xmlns:xlink="http://www.w3.org/1999/xlink" width="80" height="24" viewBox="0 0 80 24">
  <defs>
    <clipPath id="clip-KOGER">
      <rect width="80" height="24"/>
    </clipPath>
  </defs>
  <g id="KOGER" clip-path="url(#clip-KOGER)">
    <rect width="80" height="24" fill="#fff"/>
    <g id="Group_100" data-name="Group 100" transform="translate(1)">
      <path id="Path_105" data-name="Path 105" d="M242.226,103.813l2.631,3.574h-2.906l-2.634-3.574-.712-.947h2.307a.771.771,0,0,0,.764-.779v-.061a.771.771,0,0,0-.764-.779H236.7v6.139h-3.058v-8h9.04a2.213,2.213,0,0,1,1.882,3.309,2.115,2.115,0,0,1-.344.467,2.148,2.148,0,0,1-1.538.65Z" transform="translate(-175.949 -90.419)" fill="#1a1a1a"/>
      <path id="Path_103" data-name="Path 103" d="M223.513,101.254v1.167h8.917V104.1h-8.917v1.167h8.917v1.991h-9.323a2.286,2.286,0,0,1-2.267-2.306V101.57a2.289,2.289,0,0,1,2.267-2.31h9.323v1.994Z" transform="translate(-175.736 -90.292)" fill="#1a1a1a"/>
      <path id="Path_107" data-name="Path 107" d="M210.6,101.883v2.756a.623.623,0,0,0,.617.629h4.73a.623.623,0,0,0,.617-.629v-1.378h2.3v1.692c0,1.275-.634,2.306-1.882,2.306H210.3a2.286,2.286,0,0,1-2.263-2.306V101.57a2.288,2.288,0,0,1,2.263-2.31h8.563v1.994h-7.648A.623.623,0,0,0,210.6,101.883Z" transform="translate(-174.758 -90.292)" fill="#1a1a1a"/>
      <path id="Path_440" data-name="Path 440" d="M-586.736-182.213A2.117,2.117,0,0,1-589-184.15v-4.469a2.119,2.119,0,0,1,2.264-1.939h7.063a2.12,2.12,0,0,1,2.263,1.939v4.469a2.118,2.118,0,0,1-2.263,1.936Zm.3-6.054v3.542a.8.8,0,0,0,.852.728h4.759a.8.8,0,0,0,.856-.728v-3.542a.8.8,0,0,0-.856-.729h-4.759A.8.8,0,0,0-586.438-188.267Zm4.186-2.892a.442.442,0,0,1-.475-.4v-.23a.441.441,0,0,1,.475-.4h1.805a.441.441,0,0,1,.476.4v.23a.442.442,0,0,1-.476.4Zm-3.711,0a.442.442,0,0,1-.475-.4v-.23a.441.441,0,0,1,.475-.4h1.805a.441.441,0,0,1,.476.4v.23a.442.442,0,0,1-.476.4Z" transform="translate(609.521 199.181)" fill="#1a1a1a" stroke="rgba(0,0,0,0)" stroke-width="1"/>
      <rect id="Rectangle_4" data-name="Rectangle 4" width="2.373" height="8" transform="translate(10 8.968)" fill="#1a1a1a"/>
      <path id="Path_106" data-name="Path 106" d="M189.89,104.013l3.39,3.522h-3.627l-1.985-2.062v-2.741l.5-.512,2.581-2.685H194.2Z" transform="translate(-174.679 -90.567)" fill="#1a1a1a"/>
    </g>
  </g>
</svg>
