<svg xmlns="http://www.w3.org/2000/svg" xmlns:xlink="http://www.w3.org/1999/xlink" width="80" height="24" viewBox="0 0 80 24">
  <defs>
    <clipPath id="clip-KONPAR">
      <rect width="80" height="24"/>
    </clipPath>
  </defs>
  <g id="KONPAR" clip-path="url(#clip-KONPAR)">
    <rect width="80" height="24" fill="#fff"/>
    <g id="Group_24" data-name="Group 24" transform="translate(-86.505 -61.451)">
      <g id="Group_23" data-name="Group 23">
        <path id="Path_95" data-name="Path 95" d="M96.5,65.451H99.94V70.19l3.6-4.739h4.569l-4.057,4.735,4.239,7.808h-4.231l-2.343-5.16-1.776,2.1v3.061H96.5Z" fill="#2e3190"/>
        <path id="Path_96" data-name="Path 96" d="M108.311,73.478a4.864,4.864,0,0,1,1.246-3.43,4.948,4.948,0,0,1,7.017.238,4.96,4.96,0,0,1,.989,3.139,4.868,4.868,0,0,1-1.231,3.436,4.99,4.99,0,0,1-6.548.224A4.7,4.7,0,0,1,108.311,73.478Zm3.1-.01a3.05,3.05,0,0,0,.431,1.8,1.33,1.33,0,0,0,1.1.579,1.313,1.313,0,0,0,1.1-.573,3.121,3.121,0,0,0,.427-1.842,2.9,2.9,0,0,0-.433-1.754,1.279,1.279,0,0,0-1.069-.579,1.327,1.327,0,0,0-1.114.589A2.954,2.954,0,0,0,111.41,73.468Z" fill="#2e3190"/>
        <path id="Path_97" data-name="Path 97" d="M119.051,68.907h2.876v1.482a4.447,4.447,0,0,1,1.3-1.3,3.163,3.163,0,0,1,1.609-.388,2.477,2.477,0,0,1,2.005.856,4.059,4.059,0,0,1,.728,2.659v5.775h-3.1V73a2,2,0,0,0-.281-1.212.942.942,0,0,0-.788-.355,1.072,1.072,0,0,0-.91.478,3.05,3.05,0,0,0-.351,1.719v4.364h-3.086Z" fill="#2e3190"/>
        <path id="Path_98" data-name="Path 98" d="M129.428,81.451V68.907h2.889v1.344a4.06,4.06,0,0,1,1.1-1.149,2.869,2.869,0,0,1,1.493-.4,2.791,2.791,0,0,1,2.5,1.393,6.314,6.314,0,0,1,.884,3.447,5.4,5.4,0,0,1-.965,3.463,3.112,3.112,0,0,1-3.734.917,3.086,3.086,0,0,1-1.048-.808v4.335Zm3.093-7.973a2.618,2.618,0,0,0,.4,1.6,1.24,1.24,0,0,0,1.017.522,1.079,1.079,0,0,0,.9-.5,3,3,0,0,0,.363-1.7,2.773,2.773,0,0,0-.377-1.623,1.123,1.123,0,0,0-.927-.519,1.2,1.2,0,0,0-.988.524A2.869,2.869,0,0,0,132.521,73.478Z" fill="#2e3190"/>
        <path id="Path_99" data-name="Path 99" d="M142.589,71.849l-2.952-.346a3.9,3.9,0,0,1,.483-1.375,2.72,2.72,0,0,1,.9-.87,3.456,3.456,0,0,1,1.17-.41,8.6,8.6,0,0,1,1.6-.144,11.545,11.545,0,0,1,2.231.173,2.75,2.75,0,0,1,1.4.732,2.585,2.585,0,0,1,.621,1.089,4.362,4.362,0,0,1,.23,1.348v4.015a5.391,5.391,0,0,0,.07,1.005,4.875,4.875,0,0,0,.317.928h-2.9a3.262,3.262,0,0,1-.225-.536,3.827,3.827,0,0,1-.109-.574,4.082,4.082,0,0,1-1.205.939,4.511,4.511,0,0,1-1.9.378,2.969,2.969,0,0,1-2.189-.753,2.544,2.544,0,0,1-.745-1.859,2.611,2.611,0,0,1,.54-1.7,3.439,3.439,0,0,1,1.983-.993c1.16-.267,1.908-.448,2.253-.554a9.358,9.358,0,0,0,1.093-.415,1.328,1.328,0,0,0-.237-.9,1.076,1.076,0,0,0-.824-.255,1.959,1.959,0,0,0-1.14.271A1.539,1.539,0,0,0,142.589,71.849Zm2.675,1.832c-.425.171-.867.322-1.328.458a2.954,2.954,0,0,0-1.19.552.93.93,0,0,0-.255.642.913.913,0,0,0,.252.673,1.009,1.009,0,0,0,.747.262,1.713,1.713,0,0,0,.956-.285,1.632,1.632,0,0,0,.634-.687,2.587,2.587,0,0,0,.184-1.057Z" fill="#2e3190"/>
      </g>
      <path id="Path_100" data-name="Path 100" d="M150.162,68.907h2.892V70.4a3.57,3.57,0,0,1,.859-1.332,1.675,1.675,0,0,1,1.1-.361,2.99,2.99,0,0,1,1.5.474l-.958,2.483a2.2,2.2,0,0,0-.862-.255,1.038,1.038,0,0,0-.94.564,6.367,6.367,0,0,0-.478,2.975v3.049h-3.1Z" fill="#2e3190"/>
    </g>
  </g>
</svg>
