<svg xmlns="http://www.w3.org/2000/svg" xmlns:xlink="http://www.w3.org/1999/xlink" width="80" height="24" viewBox="0 0 80 24">
  <defs>
    <clipPath id="clip-koyo">
      <rect width="80" height="24"/>
    </clipPath>
  </defs>
  <g id="koyo" clip-path="url(#clip-koyo)">
    <rect width="80" height="24" fill="#fff"/>
    <g id="Group_48" data-name="Group 48" transform="translate(85.978 -125.143)">
      <path id="Path_181" data-name="Path 181" d="M-75.978,129.143V140.5h4.846v-3.771l3.38,3.771h6.138l-5.417-6.273,4.572-5.089h-5.069l-3.6,3.687v-3.687Z" fill="#0068b7"/>
      <path id="Path_182" data-name="Path 182" d="M-42.488,133.666l2.807,6.839h1.839s0,2.8-3.976,3.37c2.137.7,3.976,1.268,3.976,1.268s2.386-.434,3.926-4.638c.348-1.068,2.784-6.44,2.784-6.44l-3.678-.634-1.243,3.3-1.292-3.07Z" fill="#0068b7"/>
      <path id="Path_183" data-name="Path 183" d="M-52.051,132.212c-3.089,0-5.592,1.954-5.592,4.364s2.5,4.363,5.592,4.363,5.591-1.954,5.591-4.363S-48.963,132.212-52.051,132.212Zm0,6.593c-.645,0-1.169-1-1.169-2.229s.524-2.231,1.169-2.231,1.168,1,1.168,2.231S-51.407,138.8-52.051,138.8Z" fill="#0068b7"/>
      <path id="Path_184" data-name="Path 184" d="M-21.569,132.212c-3.089,0-5.591,1.954-5.591,4.364s2.5,4.363,5.591,4.363,5.591-1.954,5.591-4.363S-18.481,132.212-21.569,132.212Zm0,6.593c-.645,0-1.169-1-1.169-2.229s.524-2.231,1.169-2.231,1.168,1,1.168,2.231S-20.925,138.8-21.569,138.8Z" fill="#0068b7"/>
    </g>
  </g>
</svg>
