<svg xmlns="http://www.w3.org/2000/svg" xmlns:xlink="http://www.w3.org/1999/xlink" width="80" height="24" viewBox="0 0 80 24">
  <defs>
    <clipPath id="clip-matsuda">
      <rect width="80" height="24"/>
    </clipPath>
  </defs>
  <g id="matsuda" clip-path="url(#clip-matsuda)">
    <rect width="80" height="24" fill="#fff"/>
    <g id="Group_89" data-name="Group 89" transform="translate(316.978 -247.644)">
      <path id="Path_395" data-name="Path 395" d="M-298.124,255.644c.479,0,.9.378,1.274,1.13a8.888,8.888,0,0,1,.683,3.873v5h-.98v-5a4.081,4.081,0,0,0-.4-2.1.907.907,0,0,0-.327-.329,1.166,1.166,0,0,0-.14-.057.675.675,0,0,0-.107-.013H-304v7.5h-.98v-10Zm-2.937,5h.977v5h-.977Z" transform="translate(0 0)"/>
      <path id="Path_396" data-name="Path 396" d="M-284.093,264.394v1.25h-.98v-10h5.874c.479,0,.9.378,1.274,1.13a8.888,8.888,0,0,1,.683,3.873v5h-.977v-1.25Zm0-2.495h5.874v-1.252a4.053,4.053,0,0,0-.406-2.1.925.925,0,0,0-.325-.329,1.4,1.4,0,0,0-.143-.057.63.63,0,0,0-.106-.013h-4.895Z" transform="translate(-10.393 0)"/>
      <path id="Path_397" data-name="Path 397" d="M-263.793,258.146h-3.427v-2.5h7.832v2.5h-3.427v7.5h-.977Z" transform="translate(-19.715 0)"/>
      <path id="Path_398" data-name="Path 398" d="M-249.366,258.982a5.963,5.963,0,0,1,.456-2.588q.373-.75.851-.75h6.524v2.5h-6.518c-.143.007-.241.121-.291.343a1.506,1.506,0,0,0-.036.272c0,.035-.006.078-.006.121v.515h6.851v2.91a5.941,5.941,0,0,1-.456,2.588q-.369.75-.851.75h-6.524v-2.5h6.518c.143-.006.241-.121.294-.343a2.1,2.1,0,0,0,.036-.272c0-.035,0-.078,0-.121l0-.05V261.9h-6.854Z" transform="translate(-29.038 0)"/>
      <path id="Path_399" data-name="Path 399" d="M-229.556,265.644c-.479,0-.9-.372-1.274-1.122a8.912,8.912,0,0,1-.683-3.875v-5h.98v5a4.083,4.083,0,0,0,.4,2.1.883.883,0,0,0,.327.322,1.166,1.166,0,0,0,.14.057.555.555,0,0,0,.107.013h4.9v-7.5h.977v10Z" transform="translate(-38.359 0)"/>
      <path id="Path_400" data-name="Path 400" d="M-205.828,265.644h-7.831v-10h5.874c.479,0,.9.378,1.274,1.13a8.889,8.889,0,0,1,.683,3.873Zm-6.851-2.5h5.874v-2.495a4.053,4.053,0,0,0-.406-2.1.925.925,0,0,0-.325-.329,1.356,1.356,0,0,0-.143-.057.631.631,0,0,0-.106-.013h-4.895Z" transform="translate(-47.682 0)"/>
      <path id="Path_401" data-name="Path 401" d="M-194.826,264.394v1.25h-.98v-10h5.874c.479,0,.9.378,1.274,1.13a8.888,8.888,0,0,1,.683,3.873v5h-.977v-1.25Zm0-2.495h5.874v-1.252a4.047,4.047,0,0,0-.406-2.1.924.924,0,0,0-.324-.329,1.442,1.442,0,0,0-.143-.057.636.636,0,0,0-.107-.013h-4.894Z" transform="translate(-57.004 0)"/>
    </g>
  </g>
</svg>
