<svg xmlns="http://www.w3.org/2000/svg" xmlns:xlink="http://www.w3.org/1999/xlink" width="80" height="24" viewBox="0 0 80 24">
  <defs>
    <clipPath id="clip-mbc_">
      <rect width="80" height="24"/>
    </clipPath>
  </defs>
  <g id="mbc_" data-name="mbc " clip-path="url(#clip-mbc_)">
    <rect width="80" height="24" fill="#fff"/>
    <g id="Group_43" data-name="Group 43" transform="translate(-260.571 -125.143)">
      <g id="Group_41" data-name="Group 41">
        <path id="Path_142" data-name="Path 142" d="M275.032,144.9a6.545,6.545,0,0,1-1.675.219,3.434,3.434,0,0,1-2.03-.529,1.81,1.81,0,0,1-.756-1.494c0-1.2,1.119-2.071,2.939-2.071a4.484,4.484,0,0,1,1.361.184l-.177.424a3.5,3.5,0,0,0-1.2-.174c-1.321,0-2.181.608-2.181,1.614s.82,1.618,2.092,1.618a3,3,0,0,0,.934-.107v-1.2h-1.1v-.417h1.788Z" fill="#b90000"/>
        <path id="Path_143" data-name="Path 143" d="M279.5,143.2h-2.1v1.447h2.351v.434h-3.06v-4.012h2.939v.434H277.4v1.269h2.1Z" fill="#b90000"/>
        <path id="Path_144" data-name="Path 144" d="M281.26,145.077v-4.012h.773l1.731,2.03a10.822,10.822,0,0,1,.965,1.3l.025-.006a12.919,12.919,0,0,1-.081-1.649v-1.679h.661v4.012h-.71l-1.723-2.035a11.259,11.259,0,0,1-1.006-1.34l-.024.006c.041.506.049.987.049,1.655v1.714Z" fill="#b90000"/>
        <path id="Path_145" data-name="Path 145" d="M287.86,141.065v2.382a1.151,1.151,0,0,0,1.264,1.272,1.167,1.167,0,0,0,1.321-1.272v-2.382h.708v2.345c0,1.233-.878,1.733-2.054,1.733-1.11,0-1.948-.465-1.948-1.714v-2.364Z" fill="#b90000"/>
        <path id="Path_146" data-name="Path 146" d="M293.671,141.065v4.012h-.709v-4.012Z" fill="#b90000"/>
        <path id="Path_147" data-name="Path 147" d="M295.5,145.077v-4.012h.772L298,143.1a10.752,10.752,0,0,1,.967,1.3l.024-.006a13.3,13.3,0,0,1-.081-1.649v-1.679h.66v4.012h-.707l-1.725-2.035a11.575,11.575,0,0,1-1.005-1.34l-.025.006c.041.506.048.987.048,1.655v1.714Z" fill="#b90000"/>
        <path id="Path_148" data-name="Path 148" d="M304.2,143.2h-2.1v1.447h2.351v.434h-3.06v-4.012h2.94v.434H302.1v1.269h2.1Z" fill="#b90000"/>
        <path id="Path_149" data-name="Path 149" d="M308.27,141.113a10.812,10.812,0,0,1,1.344-.077,2.789,2.789,0,0,1,1.521.333.99.99,0,0,1,.475.839,1.024,1.024,0,0,1-.419.857,2.764,2.764,0,0,1-1.659.441,3.179,3.179,0,0,1-.561-.036v1.607h-.7Zm.7,1.935a3.294,3.294,0,0,0,.579.041c.845,0,1.36-.31,1.36-.852s-.515-.792-1.279-.792a3.967,3.967,0,0,0-.66.043Z" fill="#b90000"/>
        <path id="Path_150" data-name="Path 150" d="M313.356,143.815l-.564,1.262h-.724l1.85-4.012h.838l1.851,4.012h-.747l-.582-1.262Zm1.786-.4-.539-1.153a7.823,7.823,0,0,1-.281-.733H314.3a7.547,7.547,0,0,1-.275.726l-.529,1.16Z" fill="#b90000"/>
        <path id="Path_151" data-name="Path 151" d="M318.008,141.118a11.066,11.066,0,0,1,1.343-.082,2.813,2.813,0,0,1,1.569.328.917.917,0,0,1,.428.766c0,.525-.452.875-1.015,1.019v.017a1.1,1.1,0,0,1,.79.809,5.138,5.138,0,0,0,.418,1.1h-.726a4.215,4.215,0,0,1-.353-.958.979.979,0,0,0-1.094-.78h-.661v1.738h-.7Zm.7,1.828h.716c.75,0,1.225-.3,1.225-.762,0-.518-.508-.743-1.248-.743a4.131,4.131,0,0,0-.693.041Z" fill="#b90000"/>
        <path id="Path_152" data-name="Path 152" d="M324.044,141.506h-1.651v-.441h4.017v.441h-1.658v3.571h-.708Z" fill="#b90000"/>
        <path id="Path_153" data-name="Path 153" d="M327.48,144.446a2.989,2.989,0,0,0,1.247.263c.717,0,1.136-.281,1.136-.685,0-.37-.291-.59-1.023-.792-.886-.237-1.433-.584-1.433-1.143,0-.624.7-1.089,1.755-1.089a3.117,3.117,0,0,1,1.192.2l-.193.422a2.579,2.579,0,0,0-1.023-.19c-.74,0-1.023.327-1.023.6,0,.374.331.559,1.079.774.917.261,1.377.589,1.377,1.178,0,.619-.61,1.161-1.893,1.161a3.571,3.571,0,0,1-1.384-.263Z" fill="#b90000"/>
      </g>
      <g id="Group_42" data-name="Group 42">
        <path id="Path_154" data-name="Path 154" d="M274.522,139.869V129.143h3.156l3.769,7.6.753,1.588q.277-.594.846-1.72l3.808-7.463h2.827v10.726H287.66V130.9l-4.629,8.97h-1.887l-4.6-9.124v9.124Z" fill="#b90000"/>
        <path id="Path_155" data-name="Path 155" d="M295.374,139.869V129.143h5.962a10.523,10.523,0,0,1,2.869.311,4.069,4.069,0,0,1,1.732.968,2,2,0,0,1,.674,1.456,1.855,1.855,0,0,1-.582,1.33,4.088,4.088,0,0,1-1.636.95,4.8,4.8,0,0,1,2.175.949,2.077,2.077,0,0,1,.8,1.651,2.372,2.372,0,0,1-.72,1.709,4.18,4.18,0,0,1-1.922,1.069,12.883,12.883,0,0,1-3.3.333Zm2.1-6.219h3.44a12.211,12.211,0,0,0,1.918-.1,2.759,2.759,0,0,0,1.263-.516,1.2,1.2,0,0,0,.444-.983,1.272,1.272,0,0,0-.4-.962,2.19,2.19,0,0,0-1.071-.531,13.133,13.133,0,0,0-2.4-.147h-3.189Zm0,4.954h3.955a10.265,10.265,0,0,0,1.931-.132,2.838,2.838,0,0,0,1.369-.626,1.429,1.429,0,0,0,.47-1.093,1.356,1.356,0,0,0-.45-1.029,2.714,2.714,0,0,0-1.21-.614,10.6,10.6,0,0,0-2.387-.194h-3.678Z" fill="#b90000"/>
        <path id="Path_156" data-name="Path 156" d="M324.58,136.058l2.041.347a4.765,4.765,0,0,1-2.367,2.6,9,9,0,0,1-4.115.859,10.246,10.246,0,0,1-3.643-.576,5.5,5.5,0,0,1-2.476-1.85,4.846,4.846,0,0,1-.963-3.008,4.446,4.446,0,0,1,.963-2.9,5.9,5.9,0,0,1,2.613-1.79,10.616,10.616,0,0,1,3.678-.6,8.77,8.77,0,0,1,3.82.765,4.394,4.394,0,0,1,2.235,2.247l-1.991.318q-1.023-2.156-4.1-2.156a7.356,7.356,0,0,0-2.658.435,3.913,3.913,0,0,0-1.8,1.355,4.42,4.42,0,0,0,.682,5.524,5.653,5.653,0,0,0,3.6,1.064,5.924,5.924,0,0,0,2.864-.653A3.268,3.268,0,0,0,324.58,136.058Z" fill="#b90000"/>
      </g>
    </g>
  </g>
</svg>
