<svg xmlns="http://www.w3.org/2000/svg" xmlns:xlink="http://www.w3.org/1999/xlink" width="80" height="24" viewBox="0 0 80 24">
  <defs>
    <clipPath id="clip-mbc">
      <rect width="80" height="24"/>
    </clipPath>
  </defs>
  <g id="mbc" clip-path="url(#clip-mbc)">
    <rect width="80" height="24" fill="#fff"/>
    <g id="Group_14" data-name="Group 14" transform="translate(173.275 -91.121)">
      <path id="Path_54" data-name="Path 54" d="M-163.275,95.121v16h3.366V101.4l5.386,4.148,5.049-4.148v9.719h3.366v-16l-8.416,6.281Z" fill="#7e191e"/>
      <path id="Path_55" data-name="Path 55" d="M-127.069,102.9l-.6-.139.6-.231a3.923,3.923,0,0,0,3.164-3.724c-.076-2.077-2.259-3.685-4.787-3.685h-12.747a.015.015,0,0,0-.016.013v5.674a.015.015,0,0,1-.016.013h-2.365a.016.016,0,0,0-.017.014V104.3a.016.016,0,0,0,.017.014h2.365c.009,0,.016.005.016.013v6.785a.015.015,0,0,0,.016.013h13.332a6.312,6.312,0,0,0,1.038-.087c2.295-.392,4.019-2.063,4.019-4.067S-124.774,103.295-127.069,102.9Zm-10.624-5.4h6.929a2.1,2.1,0,0,1,2.239,1.645,1.591,1.591,0,0,1-.624,1.367,2.187,2.187,0,0,1-.511.311,2.519,2.519,0,0,1-1.007.206h-7.026a.015.015,0,0,1-.016-.013v-3.5A.015.015,0,0,1-137.693,97.5Zm9.927,10.141a2.648,2.648,0,0,1-1.678.569h-8.249a.015.015,0,0,1-.016-.013v-3.872c0-.008.007-.013.016-.013h8.132c1.352,0,2.537.909,2.49,2.018A1.8,1.8,0,0,1-127.766,107.639Z" fill="#7e191e"/>
      <path id="Path_56" data-name="Path 56" d="M-103.275,107.7a11.73,11.73,0,0,1-8.627,3.423c-5.814,0-10.527-3.58-10.527-8s4.713-8,10.527-8a11.941,11.941,0,0,1,8.281,3.065l-3.034,1.756a7.619,7.619,0,0,0-5.247-1.925c-3.709,0-6.717,2.284-6.717,5.1s3.008,5.106,6.717,5.106a7.445,7.445,0,0,0,5.594-2.284Z" fill="#7e191e"/>
      <line id="Line_1" data-name="Line 1" x1="3.033" y2="1.756" transform="translate(-106.655 98.186)" fill="#7e191e"/>
      <line id="Line_2" data-name="Line 2" x1="3.033" y1="1.756" transform="translate(-106.308 105.941)" fill="#7e191e"/>
    </g>
  </g>
</svg>
