<svg xmlns="http://www.w3.org/2000/svg" xmlns:xlink="http://www.w3.org/1999/xlink" width="80" height="24" viewBox="0 0 80 24">
  <defs>
    <clipPath id="clip-monex">
      <rect width="80" height="24"/>
    </clipPath>
  </defs>
  <g id="monex" clip-path="url(#clip-monex)">
    <rect width="80" height="24" fill="#fff"/>
    <g id="Group_81" data-name="Group 81" transform="translate(314.128 -641.59)">
      <path id="Path_351" data-name="Path 351" d="M-304.128,647.737h4.319l1.665,7.06,1.653-7.06h4.316v11.6h-2.69v-8.85l-2.072,8.85h-2.434l-2.069-8.85v8.85h-2.69Z" transform="translate(0 0.052)" fill="#3771fe"/>
      <path id="Path_352" data-name="Path 352" d="M-293.107,653.6a6.311,6.311,0,0,1,1.45-4.424,5.2,5.2,0,0,1,4.038-1.583,5.286,5.286,0,0,1,4.089,1.556,6.184,6.184,0,0,1,1.435,4.357,7.7,7.7,0,0,1-.627,3.337,4.719,4.719,0,0,1-1.812,2.026,5.579,5.579,0,0,1-2.954.724,6.3,6.3,0,0,1-2.975-.625,4.67,4.67,0,0,1-1.91-1.979A7.068,7.068,0,0,1-293.107,653.6Zm3.285.016a4.161,4.161,0,0,0,.6,2.525,1.953,1.953,0,0,0,1.628.769,1.95,1.95,0,0,0,1.638-.752,4.6,4.6,0,0,0,.58-2.7,3.822,3.822,0,0,0-.606-2.394,1.988,1.988,0,0,0-1.642-.757,1.925,1.925,0,0,0-1.595.767A4.175,4.175,0,0,0-289.822,653.614Z" transform="translate(2.614)" fill="#3771fe"/>
      <path id="Path_353" data-name="Path 353" d="M-282.759,647.737h3.067l4,6.419v-6.419h3.1v11.6h-3.1l-3.98-6.372v6.372h-3.088Z" transform="translate(5.068 0.052)" fill="#3771fe"/>
      <path id="Path_354" data-name="Path 354" d="M-272.786,647.737h8.8v2.478H-269.5v1.844h5.111v2.367H-269.5v2.287h5.669v2.629h-8.96Z" transform="translate(7.433 0.052)" fill="#3771fe"/>
      <path id="Path_355" data-name="Path 355" d="M-264.636,647.737h3.616l1.882,3.569,1.83-3.569h3.582l-3.308,5.62,3.62,5.985H-257.1l-2.1-3.729-2.1,3.729h-3.668l3.666-6.048Z" transform="translate(9.287 0.052)" fill="#3771fe"/>
    </g>
  </g>
</svg>
