<svg xmlns="http://www.w3.org/2000/svg" xmlns:xlink="http://www.w3.org/1999/xlink" width="80" height="24" viewBox="0 0 80 24">
  <defs>
    <clipPath id="clip-moto">
      <rect width="80" height="24"/>
    </clipPath>
  </defs>
  <g id="moto" clip-path="url(#clip-moto)">
    <rect width="80" height="24" fill="#fff"/>
    <g id="Group_40" data-name="Group 40" transform="translate(-85.505 -92.121)">
      <path id="Path_129" data-name="Path 129" d="M125.038,107.168c-.1,0-.151-.024-.151-.072a.251.251,0,0,1,.023-.091l.908-1.529L122.673,107a1.793,1.793,0,0,1-.322.124,1.062,1.062,0,0,1-.267.039h-.462a.728.728,0,0,1-.235-.039.526.526,0,0,1-.2-.124l-1.616-1.529-.9,1.529a.332.332,0,0,1-.311.163h-.74c-.1,0-.151-.024-.151-.072A.168.168,0,0,1,117.5,107l2.23-3.8a.335.335,0,0,1,.311-.157h.629a.532.532,0,0,1,.414.157l2.229,2.561,5.494-2.561a1.6,1.6,0,0,1,.653-.157h.637c.1,0,.143.026.143.078a.148.148,0,0,1,0,.036.129.129,0,0,1-.019.043l-2.238,3.8a.325.325,0,0,1-.3.163Z" fill="#171851"/>
      <path id="Path_130" data-name="Path 130" d="M131.217,107.168a2.472,2.472,0,0,1-.733-.1,1.587,1.587,0,0,1-.533-.275,1.172,1.172,0,0,1-.327-.414,1.212,1.212,0,0,1-.111-.517,1.657,1.657,0,0,1,.159-.7,2.629,2.629,0,0,1,.442-.658,3.7,3.7,0,0,1,.669-.58,4.678,4.678,0,0,1,.844-.46,5.623,5.623,0,0,1,.967-.305,4.893,4.893,0,0,1,1.043-.111h3.9a2.613,2.613,0,0,1,.744.1,1.578,1.578,0,0,1,.538.269,1.149,1.149,0,0,1,.326.408,1.174,1.174,0,0,1,.112.513,1.649,1.649,0,0,1-.163.7,2.658,2.658,0,0,1-.45.662,3.893,3.893,0,0,1-.677.583,4.769,4.769,0,0,1-.852.465,5.526,5.526,0,0,1-.971.309,4.823,4.823,0,0,1-1.028.111Zm4.793-2.471a1.414,1.414,0,0,0,.263-.634.241.241,0,0,0-.163-.242,1.348,1.348,0,0,0-.482-.067h-1.083a1.892,1.892,0,0,0-.426.046,1.106,1.106,0,0,0-.362.154,1.507,1.507,0,0,0-.323.29,3.183,3.183,0,0,0-.314.453l-.382.659a1.764,1.764,0,0,0-.3.773.264.264,0,0,0,.135.251.824.824,0,0,0,.391.075h1.09a1.705,1.705,0,0,0,.454-.057,1.39,1.39,0,0,0,.4-.184,1.718,1.718,0,0,0,.367-.339,4.209,4.209,0,0,0,.358-.519Z" fill="#171851"/>
      <path id="Path_131" data-name="Path 131" d="M140.365,107.168c-.079,0-.119-.014-.119-.042a.074.074,0,0,1,.016-.036l1.951-3.336h-2.325c-.075,0-.112-.014-.112-.042v-.024l.327-.562a.228.228,0,0,1,.2-.078h7.819q.111,0,.111.042a.042.042,0,0,1,0,.018.03.03,0,0,0-.005.018l-.326.562a.225.225,0,0,1-.191.066h-2.341l-1.951,3.336a.206.206,0,0,1-.191.078Z" fill="#171851"/>
      <path id="Path_132" data-name="Path 132" d="M148.463,107.168a2.465,2.465,0,0,1-.732-.1,1.592,1.592,0,0,1-.534-.275,1.169,1.169,0,0,1-.326-.414,1.2,1.2,0,0,1-.112-.517,1.644,1.644,0,0,1,.16-.7,2.629,2.629,0,0,1,.442-.658,3.729,3.729,0,0,1,.668-.58,4.712,4.712,0,0,1,.844-.46,5.661,5.661,0,0,1,.968-.305,4.886,4.886,0,0,1,1.043-.111h3.9a2.613,2.613,0,0,1,.744.1,1.587,1.587,0,0,1,.538.269,1.149,1.149,0,0,1,.326.408,1.188,1.188,0,0,1,.111.513,1.635,1.635,0,0,1-.163.7,2.632,2.632,0,0,1-.45.662,3.885,3.885,0,0,1-.676.583,4.839,4.839,0,0,1-.852.465,5.51,5.51,0,0,1-.972.309,4.813,4.813,0,0,1-1.027.111Zm4.794-2.471a1.414,1.414,0,0,0,.263-.634.242.242,0,0,0-.164-.242,1.338,1.338,0,0,0-.481-.067h-1.083a1.892,1.892,0,0,0-.426.046,1.12,1.12,0,0,0-.363.154,1.5,1.5,0,0,0-.322.29,3.183,3.183,0,0,0-.315.453l-.382.659a1.76,1.76,0,0,0-.3.773.264.264,0,0,0,.135.251.817.817,0,0,0,.39.075H151.3a1.705,1.705,0,0,0,.454-.057,1.39,1.39,0,0,0,.4-.184,1.738,1.738,0,0,0,.366-.339,4.207,4.207,0,0,0,.359-.519Z" fill="#171851"/>
      <path id="Path_133" data-name="Path 133" d="M120.121,102.358c-.047,0-.07-.011-.07-.035a.128.128,0,0,1,.011-.044l.113-.188a.162.162,0,0,1,.151-.08h1.205a.759.759,0,0,0,.413-.1.954.954,0,0,0,.3-.331l.675-1.15a.159.159,0,0,1,.147-.076h1.484c.049,0,.074.013.074.038a.073.073,0,0,1-.012.038l-.647,1.1a1.543,1.543,0,0,1-.267.334,1.689,1.689,0,0,1-.365.262,1.953,1.953,0,0,1-.453.172,2.235,2.235,0,0,1-.539.061Z" fill="#c00"/>
      <path id="Path_134" data-name="Path 134" d="M127.248,102.358a.2.2,0,0,1-.167-.058l-.806-1.18-1.709.891h1.759c.047,0,.07.013.07.039a.067.067,0,0,1-.016.041l-.108.188a.158.158,0,0,1-.147.079h-2.585c-.034,0-.051-.011-.051-.035s.021-.04.062-.062l3.519-1.852a.434.434,0,0,1,.2-.056h.252a.233.233,0,0,1,.087.014.128.128,0,0,1,.052.042l1.31,1.847a.127.127,0,0,1,.008.035.06.06,0,0,1-.029.047.166.166,0,0,1-.1.02Z" fill="#c00"/>
      <path id="Path_135" data-name="Path 135" d="M131.387,101.65c-.047,0-.07-.013-.07-.039l0-.019a.057.057,0,0,1,.009-.022l.113-.188a.158.158,0,0,1,.147-.079h.492a1.217,1.217,0,0,0,.262-.028.749.749,0,0,0,.211-.081.421.421,0,0,0,.14-.131.319.319,0,0,0,.05-.175.155.155,0,0,0-.085-.143.45.45,0,0,0-.221-.048h-.83l-.926,1.582a.161.161,0,0,1-.151.079H129.2c-.047,0-.07-.011-.07-.035a.112.112,0,0,1,.012-.044l1.089-1.85a.159.159,0,0,1,.147-.076h3.31a.807.807,0,0,1,.451.11.353.353,0,0,1,.165.31.584.584,0,0,1-.124.362,1.052,1.052,0,0,1-.33.276,1.773,1.773,0,0,1-.471.177,2.416,2.416,0,0,1-.548.062Z" fill="#c00"/>
      <path id="Path_136" data-name="Path 136" d="M136.5,102.358a.2.2,0,0,1-.166-.058l-.807-1.18-1.709.891h1.76c.046,0,.07.013.07.039a.073.073,0,0,1-.016.041l-.108.188a.159.159,0,0,1-.148.079h-2.585c-.033,0-.05-.011-.05-.035s.021-.04.062-.062l3.519-1.852a.427.427,0,0,1,.2-.056h.251a.235.235,0,0,1,.088.014.128.128,0,0,1,.052.042l1.31,1.847a.127.127,0,0,1,.008.035.06.06,0,0,1-.029.047.168.168,0,0,1-.1.02Z" fill="#c00"/>
      <path id="Path_137" data-name="Path 137" d="M142.656,102.358a1.579,1.579,0,0,1-.2-.01.881.881,0,0,1-.186-.048l-2.6-.912-.519.891a.158.158,0,0,1-.147.079h-.5c-.049,0-.074-.011-.074-.035a.083.083,0,0,1,.015-.044l1.086-1.85a.162.162,0,0,1,.151-.076h.442a1.8,1.8,0,0,1,.2.009.693.693,0,0,1,.176.047l2.407.873.5-.853a.159.159,0,0,1,.147-.076h.5c.049,0,.074.013.074.038a.065.065,0,0,1-.016.038l-1.085,1.85a.161.161,0,0,1-.151.079Z" fill="#c00"/>
      <path id="Path_138" data-name="Path 138" d="M110.853,107.373h-4.071l4.966-9.4a.752.752,0,0,1,.477-.348l2.7-.732c.685-.186,1.338.33,1.065.842Z" fill="#171851"/>
      <path id="Path_139" data-name="Path 139" d="M117.605,111.121s-3.855-.33-4.88-1.394c-1.515-1.57.916-4.783.916-4.783l.025-.006,4.494-8.668a.934.934,0,0,1,.6-.44l2.457-.667c.748-.2,1.462.359,1.169.919l-5.91,11.29h-.006C115.427,110.624,117.605,111.121,117.605,111.121Z" fill="#171851"/>
      <path id="Path_140" data-name="Path 140" d="M109.532,99.123l-4.264,8.3H101.2l2.673-5.079c-5.195-.614-7.367-2.766-7.367-2.766a32.783,32.783,0,0,0,12.121-1.159C109.2,98.258,109.755,98.689,109.532,99.123Z" fill="#171851"/>
      <path id="Path_141" data-name="Path 141" d="M107.92,102.386l-.04.127h-.028Z" fill="#171851"/>
    </g>
  </g>
</svg>
