<svg xmlns="http://www.w3.org/2000/svg" xmlns:xlink="http://www.w3.org/1999/xlink" width="80" height="24" viewBox="0 0 80 24">
  <defs>
    <clipPath id="clip-MRK">
      <rect width="80" height="24"/>
    </clipPath>
  </defs>
  <g id="MRK" clip-path="url(#clip-MRK)">
    <rect width="80" height="24" fill="#fff"/>
    <g id="Group_63" data-name="Group 63" transform="translate(314.128 -267.48)">
      <path id="Path_259" data-name="Path 259" d="M-304.128,272.48h7.027l2.709,8.517,2.689-8.517h7.023v14h-4.376V275.8l-3.372,10.677h-3.96l-3.366-10.677V286.48h-4.376Z" transform="translate(0)" fill="#0061df"/>
      <path id="Path_260" data-name="Path 260" d="M-292.737,286.48v-14h8.9a15.784,15.784,0,0,1,3.786.344,4.061,4.061,0,0,1,2.112,1.274,3.355,3.355,0,0,1,.8,2.269,3.333,3.333,0,0,1-.614,2.01,4.46,4.46,0,0,1-1.689,1.371,7.469,7.469,0,0,1-1.876.554,5.96,5.96,0,0,1,1.391.515,4.992,4.992,0,0,1,.855.737,5.791,5.791,0,0,1,.749.869l2.587,4.058h-6.037l-2.856-4.278a3.4,3.4,0,0,0-.968-1.079,2.62,2.62,0,0,0-1.308-.326h-.471v5.683Zm5.367-8.328h2.253a9.838,9.838,0,0,0,1.415-.191,1.482,1.482,0,0,0,.866-.438,1.141,1.141,0,0,0,.336-.812,1.182,1.182,0,0,0-.529-1.041,3.806,3.806,0,0,0-1.993-.363h-2.347Z" transform="translate(11.539)" fill="#0061df"/>
      <path id="Path_261" data-name="Path 261" d="M-283.427,272.48h5.342v5.29l5.6-5.29h7.106l-6.311,5.284,6.594,8.716h-6.58l-3.646-5.758-2.762,2.342v3.416h-5.342Z" transform="translate(20.969)" fill="#0061df"/>
    </g>
  </g>
</svg>
