<svg xmlns="http://www.w3.org/2000/svg" xmlns:xlink="http://www.w3.org/1999/xlink" width="80" height="24" viewBox="0 0 80 24">
  <defs>
    <clipPath id="clip-nakmura">
      <rect width="80" height="24"/>
    </clipPath>
  </defs>
  <g id="nakmura" clip-path="url(#clip-nakmura)">
    <rect width="80" height="24" fill="#fff"/>
    <g id="Group_88" data-name="Group 88" transform="translate(314.822 -297.602)">
      <path id="Path_387" data-name="Path 387" d="M-294.424,306.621a10.463,10.463,0,0,0-.776,2.081l-1.509,5.886q-.3-.592-.6-1.212t-.573-1.242a.273.273,0,0,1-.04-.076c-.013-.032-.026-.063-.041-.094-.3-.672-.617-1.341-.935-2a18.8,18.8,0,0,0-1.041-1.88,15.137,15.137,0,0,1-.292,1.546c-.125.511-.253,1.022-.386,1.528-.031.1-.06.206-.087.3s-.054.2-.077.3l-.047.155-.047.155a5.023,5.023,0,0,1-1.017,1.7,1.985,1.985,0,0,1-1.473.77,1.494,1.494,0,0,1-.392-.054,1.569,1.569,0,0,1-.392-.18,1.383,1.383,0,0,1-.52-.559,1.58,1.58,0,0,1-.158-.7,2.214,2.214,0,0,1,.053-.474,3.532,3.532,0,0,1,.146-.489c.07.074.136.14.2.2s.121.119.175.171a1.392,1.392,0,0,0,.339.217,1.1,1.1,0,0,0,.444.079,1.7,1.7,0,0,0,1.345-.716,4.042,4.042,0,0,0,.829-1.615c.078-.29.158-.573.24-.853s.162-.56.24-.84c.071-.227.138-.452.2-.675s.131-.443.193-.66a1.965,1.965,0,0,0-.532-.465,1.932,1.932,0,0,0-.637-.25,1.3,1.3,0,0,0-.146-.022,1.447,1.447,0,0,0-.146-.009,1.2,1.2,0,0,0-.883.389,1.615,1.615,0,0,0-.333,1.256.836.836,0,0,0,.31.714,1.342,1.342,0,0,0,.625.217h.257a1.886,1.886,0,0,0,.246-.016,4.537,4.537,0,0,1-.5,1,.916.916,0,0,1-.836.426.888.888,0,0,1-.789-.573,2.913,2.913,0,0,1-.263-1.181v-.093a2.959,2.959,0,0,1,.03-.427,3.6,3.6,0,0,1,.075-.4,3.673,3.673,0,0,1,1.461-2.274,4.158,4.158,0,0,1,2.338-.692,2.955,2.955,0,0,1,2.32,1.236,9.225,9.225,0,0,1,1.549,2.708c.031.084.062.168.094.256s.059.173.082.258l.994-3.573v.017a1.987,1.987,0,0,1,.5-.925,1.15,1.15,0,0,1,.789-.38.65.65,0,0,1,.614.289,2.158,2.158,0,0,1,.24.8A1.549,1.549,0,0,0-294.424,306.621Z" transform="translate(0)"/>
      <path id="Path_388" data-name="Path 388" d="M-288.588,312.811a2.012,2.012,0,0,1-1.724.816h-.058a1.435,1.435,0,0,1-.707-.226,1.25,1.25,0,0,1-.5-.69,2.741,2.741,0,0,1-.719.628,2.059,2.059,0,0,1-.824.289.313.313,0,0,1-.1.014h-.111a1.792,1.792,0,0,1-.789-.217,1.8,1.8,0,0,1-.672-.683,2.635,2.635,0,0,1-.321-.745,3.163,3.163,0,0,1-.1-.791,3.473,3.473,0,0,1,.286-1.383,3.594,3.594,0,0,1,.731-1.118,3.008,3.008,0,0,1,.783-.565,2.346,2.346,0,0,1,.912-.258.312.312,0,0,1,.1-.014h.1a1.873,1.873,0,0,1,.725.146,1.776,1.776,0,0,1,.631.458l.117-.466h2.279c-.047.188-.1.375-.146.567s-.1.38-.146.567q-.152.559-.3,1.126t-.286,1.141a.086.086,0,0,1-.012.039.162.162,0,0,0-.012.07.617.617,0,0,0-.023.085.492.492,0,0,0-.012.1.18.18,0,0,0-.012.062v.062a.449.449,0,0,0,.018.124.1.1,0,0,0,.064.078.177.177,0,0,0,.053.023.089.089,0,0,0,.064-.008.256.256,0,0,0,.134-.039q.064-.039.134-.085a1.7,1.7,0,0,0,.257-.278,3.268,3.268,0,0,0,.234-.358,2.993,2.993,0,0,0,.181-.34c.051-.114.088-.208.111-.28l.023-.063.023-.062a.181.181,0,0,1,.012-.062l.023-.062.608.358A7.772,7.772,0,0,1-288.588,312.811Zm-2.712-3.873c-.027-.074-.1-.109-.2-.109a.516.516,0,0,0-.117.014.5.5,0,0,0-.117.048,1.43,1.43,0,0,0-.444.434,4.876,4.876,0,0,0-.4.668q-.129.248-.228.489a3.71,3.71,0,0,0-.146.411c-.008.031-.021.084-.041.157s-.037.155-.053.247c-.016.074-.031.148-.047.226a2.3,2.3,0,0,0-.035.239,1.08,1.08,0,0,0-.029.2q-.006.107-.006.2a1.122,1.122,0,0,0,.058.388.212.212,0,0,0,.21.155.745.745,0,0,0,.6-.373,4.293,4.293,0,0,0,.45-.824,4.111,4.111,0,0,0,.175-.45q.07-.217.129-.388c.094-.321.164-.6.21-.838a3.23,3.23,0,0,0,.07-.606A.851.851,0,0,0-291.3,308.938Z" transform="translate(-0.249 0.96)"/>
      <path id="Path_389" data-name="Path 389" d="M-281.543,312.59a3.3,3.3,0,0,1-.62.986,2.195,2.195,0,0,1-.736.528,2.407,2.407,0,0,1-.982.188,1.9,1.9,0,0,1-.725-.133,1.337,1.337,0,0,1-.573-.457,2.164,2.164,0,0,1-.368-.778,6.108,6.108,0,0,1-.158-.9l-.023-.343q-.012-.171-.012-.326a.076.076,0,0,0,.029-.008.07.07,0,0,0,.029-.022c.062-.032.127-.063.193-.094s.131-.061.193-.093a3.582,3.582,0,0,0,.514-.326,1.341,1.341,0,0,0,.4-.5.7.7,0,0,0,.064-.177.747.747,0,0,0,.018-.149.393.393,0,0,0-.082-.224.244.244,0,0,0-.2-.087h-.047a.031.031,0,0,1-.023.016h-.023a1.037,1.037,0,0,0-.6.444,3.493,3.493,0,0,0-.427.783c-.023.062-.045.124-.064.188s-.037.123-.053.185l-.748,2.857H-288.8l2.209-8.539h2.233l-.877,3.4a2.5,2.5,0,0,1,.608-.351,2.062,2.062,0,0,1,.655-.147.3.3,0,0,1,.094-.016h.094a2,2,0,0,1,.432.047,1.725,1.725,0,0,1,.4.141,1.35,1.35,0,0,1,.538.41,1.131,1.131,0,0,1,.234.738,1.437,1.437,0,0,1-.31.939,2.572,2.572,0,0,1-.672.6c-.055.031-.109.061-.164.085s-.109.049-.164.07q-.012.078-.017.171c0,.063-.006.124-.006.186a1.5,1.5,0,0,0,.111.59.565.565,0,0,0,.38.342.1.1,0,0,0,.058.017h.07a.39.39,0,0,0,.111-.017l.1-.03a.993.993,0,0,0,.491-.475,4.621,4.621,0,0,0,.316-.738c.031-.082.058-.166.082-.247l.07-.25.608.358Q-281.309,312.022-281.543,312.59Z" transform="translate(-0.415 0.297)"/>
      <path id="Path_390" data-name="Path 390" d="M-275.208,312.811a2.012,2.012,0,0,1-1.724.816h-.058a1.434,1.434,0,0,1-.707-.226,1.25,1.25,0,0,1-.5-.69,2.742,2.742,0,0,1-.719.628,2.059,2.059,0,0,1-.824.289.313.313,0,0,1-.1.014h-.111a1.793,1.793,0,0,1-.789-.217,1.8,1.8,0,0,1-.672-.683,2.635,2.635,0,0,1-.321-.745,3.163,3.163,0,0,1-.1-.791,3.474,3.474,0,0,1,.286-1.383,3.6,3.6,0,0,1,.731-1.118,3.011,3.011,0,0,1,.783-.565,2.346,2.346,0,0,1,.912-.258.312.312,0,0,1,.1-.014h.1a1.874,1.874,0,0,1,.725.146,1.776,1.776,0,0,1,.631.458l.117-.466h2.279c-.047.188-.1.375-.146.567s-.1.38-.146.567q-.152.559-.3,1.126t-.286,1.141a.086.086,0,0,1-.012.039.162.162,0,0,0-.012.07.622.622,0,0,0-.023.085.49.49,0,0,0-.012.1.18.18,0,0,0-.012.062v.062a.45.45,0,0,0,.018.124.1.1,0,0,0,.064.078.176.176,0,0,0,.053.023.089.089,0,0,0,.064-.008.256.256,0,0,0,.134-.039q.064-.039.134-.085a1.7,1.7,0,0,0,.257-.278,3.268,3.268,0,0,0,.234-.358,2.993,2.993,0,0,0,.181-.34c.051-.114.088-.208.111-.28.007-.022.016-.043.023-.063l.023-.062a.181.181,0,0,1,.012-.062l.023-.062.608.358A7.772,7.772,0,0,1-275.208,312.811Zm-2.712-3.873c-.027-.074-.1-.109-.2-.109a.508.508,0,0,0-.117.014.5.5,0,0,0-.117.048,1.43,1.43,0,0,0-.444.434,4.87,4.87,0,0,0-.4.668c-.086.166-.163.329-.228.489a3.721,3.721,0,0,0-.146.411c-.008.031-.021.084-.041.157s-.037.155-.053.247c-.016.074-.031.148-.047.226a2.312,2.312,0,0,0-.035.239,1.078,1.078,0,0,0-.029.2q-.006.107-.006.2a1.123,1.123,0,0,0,.058.388.212.212,0,0,0,.21.155.745.745,0,0,0,.6-.373,4.3,4.3,0,0,0,.45-.824,4.1,4.1,0,0,0,.175-.45q.07-.217.129-.388c.094-.321.164-.6.21-.838a3.227,3.227,0,0,0,.07-.606A.852.852,0,0,0-277.92,308.938Z" transform="translate(-0.595 0.96)"/>
      <path id="Path_391" data-name="Path 391" d="M-265.357,312.8a1.99,1.99,0,0,1-1.707.832c-.055,0-.111,0-.169-.009s-.119-.013-.181-.023a1.8,1.8,0,0,1-.52-.177,1.04,1.04,0,0,1-.415-.427,1.666,1.666,0,0,1-.164-.443,2.335,2.335,0,0,1-.047-.474c0-.072,0-.144.006-.211s.01-.137.018-.21a4.771,4.771,0,0,1,.1-.52q.064-.256.134-.489.012-.045.047-.171c.023-.081.051-.176.082-.28a1.364,1.364,0,0,1,.035-.14,1.07,1.07,0,0,0,.035-.155q.023-.124.041-.241a1.4,1.4,0,0,0,.018-.21.487.487,0,0,0-.041-.21.138.138,0,0,0-.134-.084.51.51,0,0,0-.4.255,3.448,3.448,0,0,0-.327.552c-.047.114-.09.224-.129.333s-.07.206-.094.287c-.062.239-.125.479-.187.723s-.125.484-.187.721-.136.494-.2.739-.125.484-.187.721h-2.314q.129-.466.251-.93t.251-.949c.078-.311.158-.62.24-.932s.162-.621.24-.93a1.76,1.76,0,0,0,.035-.18,1.105,1.105,0,0,0,.012-.146.339.339,0,0,0-.053-.217.182.182,0,0,0-.146-.063.363.363,0,0,0-.123.025.429.429,0,0,0-.123.069.8.8,0,0,0-.134.116,1.118,1.118,0,0,0-.123.163,4.71,4.71,0,0,0-.38.753,12.038,12.038,0,0,0-.438,1.313c-.1.392-.183.709-.245.946-.047.207-.094.4-.14.59s-.078.311-.094.373H-275.4l1.414-5.45h2.186l-.094.342a2.719,2.719,0,0,1,.6-.365,2.206,2.206,0,0,1,.672-.179h.14a1.736,1.736,0,0,1,.333.032,1.083,1.083,0,0,1,.321.109,1.269,1.269,0,0,1,.444.333,1.307,1.307,0,0,1,.281.584,2.635,2.635,0,0,1,.789-.761,1.721,1.721,0,0,1,.906-.264,1.618,1.618,0,0,1,.351.037,1.862,1.862,0,0,1,.351.118,1.383,1.383,0,0,1,.69.652,2.152,2.152,0,0,1,.234,1.008,2.98,2.98,0,0,1-.023.373,2.555,2.555,0,0,1-.082.389c-.016.062-.039.149-.07.263s-.062.234-.094.357l-.023.093c-.008.031-.016.062-.023.094-.031.144-.06.282-.088.41a1.636,1.636,0,0,0-.041.318v.04a.171.171,0,0,0,.012.054.052.052,0,0,0,.041.014h.076a.341.341,0,0,0,.117-.022.516.516,0,0,0,.117-.071,1.587,1.587,0,0,0,.327-.356,4.307,4.307,0,0,0,.292-.483c.078-.145.146-.281.2-.411a3.357,3.357,0,0,0,.134-.334l.584.373A8.1,8.1,0,0,1-265.357,312.8Z" transform="translate(-0.762 0.953)"/>
      <path id="Path_392" data-name="Path 392" d="M-257.611,310.775a.523.523,0,0,0-.029.087c-.132.351-.279.7-.438,1.039a3.855,3.855,0,0,1-.579.9,2.4,2.4,0,0,1-.731.55,2.118,2.118,0,0,1-.929.194,1.329,1.329,0,0,1-.877-.309,1.481,1.481,0,0,1-.456-1.011,4.117,4.117,0,0,1-.929.948,1.906,1.906,0,0,1-1.14.388,1,1,0,0,1-.929-.506,2.261,2.261,0,0,1-.3-1.171,3.146,3.146,0,0,1,.035-.467,3.979,3.979,0,0,1,.094-.449q.105-.39.2-.77c.066-.252.13-.5.193-.753s.127-.515.193-.769.134-.5.2-.753h2.221c-.078.291-.154.58-.228.87s-.146.58-.216.87-.154.58-.228.871-.15.578-.228.87c-.008.041-.018.084-.029.131a.546.546,0,0,0-.018.133.269.269,0,0,0,.041.154.162.162,0,0,0,.146.063.546.546,0,0,0,.286-.118,1.464,1.464,0,0,0,.368-.443,4.026,4.026,0,0,0,.438-.908c.121-.347.232-.7.333-1.062.039-.166.08-.335.123-.506s.088-.339.134-.5a1,1,0,0,1,.029-.116,1,1,0,0,0,.029-.115.21.21,0,0,1,.006-.054.1.1,0,0,1,.018-.04.058.058,0,0,1,.012-.031.077.077,0,0,1,.006-.03.1.1,0,0,0,.006-.032h2.209c-.078.279-.154.563-.228.846s-.146.567-.216.848-.142.576-.216.862-.15.565-.228.845a1.488,1.488,0,0,0-.047.225,1.616,1.616,0,0,0-.012.18.3.3,0,0,0,.041.177.129.129,0,0,0,.111.054.3.3,0,0,0,.152-.047c.055-.03.113-.067.175-.109q.058-.06.117-.124l.117-.123a2.566,2.566,0,0,0,.362-.568,6.052,6.052,0,0,0,.257-.66l.6.374C-257.59,310.726-257.6,310.751-257.611,310.775Z" transform="translate(-1.033 0.977)"/>
      <path id="Path_393" data-name="Path 393" d="M-251.267,308.974v.171a1.427,1.427,0,0,1-.263.908.74.74,0,0,1-.578.333h-.035a.662.662,0,0,1-.468-.216,1.308,1.308,0,0,1-.317-.7.577.577,0,0,0-.088-.21.117.117,0,0,0-.122-.054c-.079,0-.166.06-.264.179a3.032,3.032,0,0,0-.309.489,5.733,5.733,0,0,0-.48,1.071c-.132.395-.249.792-.35,1.2-.048.177-.091.347-.13.512s-.082.331-.129.5c-.016.062-.031.124-.046.188l-.048.185h-2.162l.971-3.6a.327.327,0,0,0,.023-.109v-.076a.232.232,0,0,0-.1-.225.368.368,0,0,0-.227-.04.825.825,0,0,0-.539.374,3.361,3.361,0,0,0-.386.7c-.023.052-.047.109-.069.169s-.043.119-.059.171l-.584-.311a6.423,6.423,0,0,1,.894-1.9,1.932,1.932,0,0,1,1.479-.908.908.908,0,0,1,.17-.016,1.106,1.106,0,0,1,.181.016,1.636,1.636,0,0,1,.742.256,1.559,1.559,0,0,1,.568.675,5.761,5.761,0,0,1,.544-.465,2.532,2.532,0,0,1,.59-.343,1.23,1.23,0,0,1,.274-.085,1.683,1.683,0,0,1,.263-.023.968.968,0,0,1,.345.063,1.106,1.106,0,0,1,.321.185,1.026,1.026,0,0,1,.241.342,1.763,1.763,0,0,1,.123.419A.814.814,0,0,1-251.267,308.974Z" transform="translate(-1.212 0.924)"/>
      <path id="Path_394" data-name="Path 394" d="M-244.465,312.811a2.012,2.012,0,0,1-1.724.816h-.057a1.431,1.431,0,0,1-.707-.226,1.252,1.252,0,0,1-.5-.69,2.738,2.738,0,0,1-.718.628,2.063,2.063,0,0,1-.825.289.309.309,0,0,1-.1.014h-.11a1.793,1.793,0,0,1-.79-.217,1.791,1.791,0,0,1-.671-.683,2.61,2.61,0,0,1-.322-.745,3.209,3.209,0,0,1-.1-.791,3.489,3.489,0,0,1,.286-1.383,3.6,3.6,0,0,1,.731-1.118,3,3,0,0,1,.784-.565,2.337,2.337,0,0,1,.912-.258.308.308,0,0,1,.1-.014h.1a1.867,1.867,0,0,1,.725.146,1.767,1.767,0,0,1,.631.458l.117-.466h2.279c-.047.188-.095.375-.146.567s-.1.38-.146.567q-.152.559-.3,1.126c-.1.378-.192.758-.286,1.141a.1.1,0,0,1-.011.039.146.146,0,0,0-.013.07.65.65,0,0,0-.022.085.436.436,0,0,0-.013.1.179.179,0,0,0-.011.062v.062a.415.415,0,0,0,.018.124.1.1,0,0,0,.064.078.161.161,0,0,0,.052.023.092.092,0,0,0,.065-.008.253.253,0,0,0,.133-.039c.043-.026.088-.054.135-.085a1.743,1.743,0,0,0,.256-.278,3,3,0,0,0,.234-.358,3.169,3.169,0,0,0,.182-.34c.05-.114.087-.208.11-.28.008-.022.016-.043.024-.063l.023-.062a.2.2,0,0,1,.011-.062l.023-.062.608.358A7.772,7.772,0,0,1-244.465,312.811Zm-2.711-3.873c-.028-.074-.1-.109-.2-.109a.508.508,0,0,0-.117.014.485.485,0,0,0-.118.048,1.441,1.441,0,0,0-.444.434,4.772,4.772,0,0,0-.4.668q-.13.248-.229.489a3.917,3.917,0,0,0-.146.411c-.007.031-.021.084-.041.157a2.362,2.362,0,0,0-.052.247c-.016.074-.032.148-.048.226a2.079,2.079,0,0,0-.034.239,1.075,1.075,0,0,0-.03.2c0,.071,0,.138,0,.2a1.122,1.122,0,0,0,.058.388.211.211,0,0,0,.209.155.747.747,0,0,0,.6-.373,4.292,4.292,0,0,0,.449-.824,4.329,4.329,0,0,0,.176-.45c.047-.145.089-.274.128-.388.094-.321.164-.6.21-.838a3.16,3.16,0,0,0,.071-.606A.877.877,0,0,0-247.176,308.938Z" transform="translate(-1.391 0.96)"/>
    </g>
  </g>
</svg>
