<svg xmlns="http://www.w3.org/2000/svg" xmlns:xlink="http://www.w3.org/1999/xlink" width="80" height="24" viewBox="0 0 80 24">
  <defs>
    <clipPath id="clip-NO.1">
      <rect width="80" height="24"/>
    </clipPath>
  </defs>
  <g id="NO.1" clip-path="url(#clip-NO.1)">
    <rect width="80" height="24" fill="#fff"/>
    <path id="Path_439" data-name="Path 439" d="M.822-7.843H4.278l4.511,5.35v-5.35h3.489v9.67H8.789L4.3-3.483v5.31H.822ZM14.272-3a4.473,4.473,0,0,1,1.634-3.687,7.062,7.062,0,0,1,4.552-1.319,7.211,7.211,0,0,1,4.609,1.3,4.39,4.39,0,0,1,1.618,3.631A5.005,5.005,0,0,1,25.978-.3a4.641,4.641,0,0,1-2.043,1.689,8.09,8.09,0,0,1-3.33.6,9.265,9.265,0,0,1-3.354-.521A4.769,4.769,0,0,1,15.1-.178,4.654,4.654,0,0,1,14.272-3Zm3.7.013a2.8,2.8,0,0,0,.674,2.1,2.556,2.556,0,0,0,1.835.64,2.562,2.562,0,0,0,1.847-.627,3.066,3.066,0,0,0,.654-2.249,2.6,2.6,0,0,0-.682-2,2.622,2.622,0,0,0-1.851-.63,2.513,2.513,0,0,0-1.8.64A2.81,2.81,0,0,0,17.974-2.989ZM28.033-.865h3.555V1.827H28.033ZM40.822-8.008V1.827H37.455V-4.618a10.823,10.823,0,0,1-1.581.811,14.266,14.266,0,0,1-1.916.594v-2.2A8.96,8.96,0,0,0,36.6-6.478a4.605,4.605,0,0,0,1.471-1.53Z" transform="translate(19.178 15.008)" fill="#c50000"/>
  </g>
</svg>
