<svg xmlns="http://www.w3.org/2000/svg" xmlns:xlink="http://www.w3.org/1999/xlink" width="80" height="24" viewBox="0 0 80 24">
  <defs>
    <clipPath id="clip-noral">
      <rect width="80" height="24"/>
    </clipPath>
  </defs>
  <g id="noral" clip-path="url(#clip-noral)">
    <rect width="80" height="24" fill="#fff"/>
    <g id="Group_82" data-name="Group 82" transform="translate(326.557 -656.887)">
      <path id="Path_356" data-name="Path 356" d="M-316.557,663.118h3.273l4.271,6.383v-6.383h3.3v11.538h-3.3l-4.248-6.336v6.336h-3.3Z" fill="#df2935"/>
      <path id="Path_357" data-name="Path 357" d="M-303.822,668.895a6.06,6.06,0,0,1,1.548-4.425,5.749,5.749,0,0,1,4.309-1.583,5.851,5.851,0,0,1,4.364,1.554,5.948,5.948,0,0,1,1.532,4.359,7.276,7.276,0,0,1-.67,3.335,4.836,4.836,0,0,1-1.934,2.027,6.269,6.269,0,0,1-3.153.725,7.119,7.119,0,0,1-3.176-.625,4.832,4.832,0,0,1-2.038-1.979A6.692,6.692,0,0,1-303.822,668.895Zm3.505.016a3.962,3.962,0,0,0,.638,2.525,2.141,2.141,0,0,0,1.737.767,2.138,2.138,0,0,0,1.749-.752,4.374,4.374,0,0,0,.619-2.7,3.654,3.654,0,0,0-.646-2.4,2.185,2.185,0,0,0-1.753-.754,2.109,2.109,0,0,0-1.7.767A3.974,3.974,0,0,0-300.317,668.911Z" fill="#df2935"/>
      <path id="Path_358" data-name="Path 358" d="M-290.135,674.656V663.118h5.841a8.376,8.376,0,0,1,2.484.283,2.649,2.649,0,0,1,1.385,1.05,3.236,3.236,0,0,1,.526,1.871,3.243,3.243,0,0,1-.4,1.655,3.175,3.175,0,0,1-1.107,1.131,4.189,4.189,0,0,1-1.23.456,3.468,3.468,0,0,1,.912.425,3.631,3.631,0,0,1,.56.606,4.481,4.481,0,0,1,.491.716l1.7,3.345h-3.96l-1.873-3.526a2.683,2.683,0,0,0-.635-.89,1.453,1.453,0,0,0-.858-.268h-.31v4.683Zm3.52-6.863h1.478a5.188,5.188,0,0,0,.928-.157.927.927,0,0,0,.569-.362,1.079,1.079,0,0,0,.22-.669,1.07,1.07,0,0,0-.348-.858,2.077,2.077,0,0,0-1.307-.3h-1.54Z" fill="#df2935"/>
      <path id="Path_359" data-name="Path 359" d="M-270.884,672.751h-3.978l-.554,1.9h-3.578l4.263-11.538h3.823l4.262,11.538h-3.67Zm-.726-2.495-1.252-4.148-1.24,4.148Z" fill="#df2935"/>
      <path id="Path_360" data-name="Path 360" d="M-265.532,663.118h3.505v8.7h5.47v2.841h-8.975Z" fill="#df2935"/>
    </g>
  </g>
</svg>
