<svg xmlns="http://www.w3.org/2000/svg" xmlns:xlink="http://www.w3.org/1999/xlink" width="80" height="24" viewBox="0 0 80 24">
  <defs>
    <clipPath id="clip-NPR">
      <rect width="80" height="24"/>
    </clipPath>
  </defs>
  <g id="NPR" clip-path="url(#clip-NPR)">
    <rect width="80" height="24" fill="#fff"/>
    <g id="Group_64" data-name="Group 64" transform="translate(314.081 -313.759)">
      <path id="Path_262" data-name="Path 262" d="M-304.081,318.759h5.48l7.155,7.745v-7.745h5.534v14h-5.534l-7.115-7.688v7.688h-5.52Z" transform="translate(0 0)" fill="#0016df"/>
      <path id="Path_263" data-name="Path 263" d="M-294.114,318.759h9.758a8.322,8.322,0,0,1,4.775,1.118,3.659,3.659,0,0,1,1.588,3.18,3.8,3.8,0,0,1-1.732,3.313A9.378,9.378,0,0,1-285,327.563h-3.214v5.2h-5.9Zm5.9,5.968h1.438a4.747,4.747,0,0,0,2.384-.434,1.289,1.289,0,0,0,.688-1.113,1.369,1.369,0,0,0-.6-1.118,3.9,3.9,0,0,0-2.243-.458h-1.67Z" transform="translate(12.077 0)" fill="#0016df"/>
      <path id="Path_264" data-name="Path 264" d="M-285.4,332.759v-14h9.784a19,19,0,0,1,4.16.344,4.568,4.568,0,0,1,2.32,1.275,3.175,3.175,0,0,1,.88,2.269,3.124,3.124,0,0,1-.672,2.01,4.835,4.835,0,0,1-1.856,1.371,8.819,8.819,0,0,1-2.061.554,6.956,6.956,0,0,1,1.528.515,5.339,5.339,0,0,1,.938.738,5.811,5.811,0,0,1,.825.869l2.842,4.057h-6.633l-3.138-4.278a3.549,3.549,0,0,0-1.064-1.079,3.1,3.1,0,0,0-1.438-.324h-.518v5.682Zm5.9-8.327h2.475a11.635,11.635,0,0,0,1.555-.192,1.689,1.689,0,0,0,.951-.438,1.091,1.091,0,0,0,.369-.812,1.155,1.155,0,0,0-.582-1.041,4.56,4.56,0,0,0-2.19-.362H-279.5Z" transform="translate(22.632 0)" fill="#0016df"/>
    </g>
  </g>
</svg>
