<svg xmlns="http://www.w3.org/2000/svg" xmlns:xlink="http://www.w3.org/1999/xlink" width="80" height="24" viewBox="0 0 80 24">
  <defs>
    <clipPath id="clip-npw">
      <rect width="80" height="24"/>
    </clipPath>
  </defs>
  <g id="npw" clip-path="url(#clip-npw)">
    <rect width="80" height="24" fill="#fff"/>
    <g id="Group_47" data-name="Group 47" transform="translate(173.275 -125.143)">
      <path id="Path_178" data-name="Path 178" d="M-149.139,145.143h-3.414l-4.81-10.752-2.5,10.752h-3.41l3.715-16h3.424l4.825,10.705,2.486-10.705h3.4Z" fill="#2e3190"/>
      <path id="Path_179" data-name="Path 179" d="M-141.752,145.143h-3.67l3.727-16h7.24a9.235,9.235,0,0,1,3.054.406,3.623,3.623,0,0,1,1.781,1.355,3.859,3.859,0,0,1,.653,2.257,5.545,5.545,0,0,1-.522,2.353,5.456,5.456,0,0,1-1.281,1.837,5.493,5.493,0,0,1-1.633,1.043,9.637,9.637,0,0,1-2.355.539,30.788,30.788,0,0,1-3.233.107h-2.345Zm2.028-8.753h1.127a14.618,14.618,0,0,0,3.875-.328,3.169,3.169,0,0,0,1.529-1.047,2.514,2.514,0,0,0,.557-1.583,1.52,1.52,0,0,0-.281-.951,1.634,1.634,0,0,0-.8-.54,9.588,9.588,0,0,0-2.306-.17h-2.621Z" fill="#2e3190"/>
      <path id="Path_180" data-name="Path 180" d="M-111.888,145.143h-3.705l-.4-11.7-6.486,11.7h-3.777l-.667-16h3.583l.157,11.2,6.108-11.2h3.973l.413,11.076,5.87-11.076h3.545Z" fill="#2e3190"/>
    </g>
  </g>
</svg>
