<svg xmlns="http://www.w3.org/2000/svg" xmlns:xlink="http://www.w3.org/1999/xlink" width="80" height="24" viewBox="0 0 80 24">
  <defs>
    <clipPath id="clip-nsk">
      <rect width="80" height="24"/>
    </clipPath>
  </defs>
  <g id="nsk" clip-path="url(#clip-nsk)">
    <rect width="80" height="24" fill="#fff"/>
    <g id="Group_90" data-name="Group 90">
      <path id="Path_57" data-name="Path 57" d="M-15.978,19.97l-1.69-1.929-2.86-3.534L-22.6,11.8l-1.168-1.622,0-.119.021-.026,1.383-1.487,2.076-2.118,2.274-2.2.121-.164h-7.8l-.325.59-.356.518-.215.349-1,1.278-1.966,2.355-.679.693-.037-.025-.014-.047-.032-1.227.1-2.551.128-1.562-.011-.371h-5.927s.582,13.55,0,15.9h6.163l-.123-2.629.021-.454.046-.092,2.037-2.25.186-.142s.942.358,3.6,5.58Z" transform="translate(85.978)" fill="#df1156" stroke="#fff" stroke-width="1" fill-rule="evenodd"/>
      <path id="Path_58" data-name="Path 58" d="M-36.877,14.857l-.077.968-.2.749-.345.784-.341.531-.455.51-.532.4-.569.332-.644.273-.931.249-1.3.2-1.564.106L-46.562,20l-8.751,0-.017-5.374.46.09.722.13,1.638.206,2.781.188,4.353.2,2.727-.015.492-.05.024-.012.027-.007.01-.013.013-.007.007-.024v-.021l-.118-.087-.7-.2-3.327-.663-2.358-.423-1.687-.369-1.461-.428L-52.9,12.65l-.69-.363-.627-.464-.612-.634-.462-.678-.219-.449-.227-.868-.027-.837.1-.725.164-.6.3-.656.544-.742.565-.488.51-.312.673-.291,1.085-.308,1.058-.161.7-.041L-47.818,4l8.94,0V9.04l-2.683-.331-2.263-.142-4.362-.112-1.794.044-.12.026-.023.014-.029.005-.007.012-.023.027.007.033.1.06,1.539.29,3.562.551,1.523.311,1.484.387,1.255.408,1.184.5.66.364.6.436.438.4.439.61.283.648.164.734.062.535Z" transform="translate(85.978)" fill="#df1156" stroke="#fff" stroke-width="1" fill-rule="evenodd"/>
      <path id="Path_59" data-name="Path 59" d="M-56.872,4H-63.15l.179,2.558.108,2.5.045,2-.019.183C-65.079,9.039-67.9,4-67.9,4h-7.678a62.716,62.716,0,0,1-.4,16h6.368s-.607-7.894-.082-8.486l.612.746,2.311,3.164,2.285,3.3.712,1.149h7.034S-57.82,10.241-56.872,4Z" transform="translate(85.978)" fill="#df1156" stroke="#fff" stroke-width="1" fill-rule="evenodd"/>
    </g>
  </g>
</svg>
