<svg xmlns="http://www.w3.org/2000/svg" xmlns:xlink="http://www.w3.org/1999/xlink" width="80" height="24" viewBox="0 0 80 24">
  <defs>
    <clipPath id="clip-os">
      <rect width="80" height="24"/>
    </clipPath>
  </defs>
  <g id="os" clip-path="url(#clip-os)">
    <rect width="80" height="24" fill="#fff"/>
    <g id="Group_86" data-name="Group 86" transform="translate(324.433 -330.587)">
      <path id="Path_382" data-name="Path 382" d="M-304.433,342.6a7.114,7.114,0,0,1,2.655-5.9q2.653-2.11,7.393-2.111,4.855,0,7.484,2.075a6.975,6.975,0,0,1,2.63,5.809,7.917,7.917,0,0,1-1.148,4.449,7.5,7.5,0,0,1-3.318,2.7,13.335,13.335,0,0,1-5.409.965,15.24,15.24,0,0,1-5.447-.834,7.729,7.729,0,0,1-3.5-2.639A7.375,7.375,0,0,1-304.433,342.6Zm6.014.02a4.441,4.441,0,0,0,1.094,3.366,4.187,4.187,0,0,0,2.978,1.025,4.2,4.2,0,0,0,3-1q1.06-1,1.06-3.6a4.118,4.118,0,0,0-1.108-3.192,4.3,4.3,0,0,0-3.006-1.009,4.116,4.116,0,0,0-2.92,1.023A4.457,4.457,0,0,0-298.419,342.618Z" transform="translate(0 0)"/>
      <path id="Path_383" data-name="Path 383" d="M-294.566,345.205l5.721-.285a3.072,3.072,0,0,0,.757,1.688,3.565,3.565,0,0,0,2.655.94,3.47,3.47,0,0,0,1.984-.481,1.358,1.358,0,0,0,.7-1.113,1.332,1.332,0,0,0-.664-1.077,8.914,8.914,0,0,0-3.078-.9,14.976,14.976,0,0,1-5.64-1.879,3.506,3.506,0,0,1-1.7-2.986,3.511,3.511,0,0,1,.868-2.253,5.707,5.707,0,0,1,2.616-1.668,15.09,15.09,0,0,1,4.784-.607,11.773,11.773,0,0,1,5.687,1.1,4.592,4.592,0,0,1,2.328,3.509l-5.667.263a2.293,2.293,0,0,0-.949-1.518,3.611,3.611,0,0,0-2-.475,2.866,2.866,0,0,0-1.579.353,1.023,1.023,0,0,0-.53.861.823.823,0,0,0,.437.665,5.747,5.747,0,0,0,2.018.569,30.138,30.138,0,0,1,5.647,1.367A5.736,5.736,0,0,1-277.689,343a3.7,3.7,0,0,1,.775,2.291,4.22,4.22,0,0,1-1.035,2.743,6.355,6.355,0,0,1-2.892,1.906,14.4,14.4,0,0,1-4.684.648q-4.964,0-6.874-1.52A5.531,5.531,0,0,1-294.566,345.205Z" transform="translate(12.482 0)"/>
    </g>
  </g>
</svg>
