<svg xmlns="http://www.w3.org/2000/svg" xmlns:xlink="http://www.w3.org/1999/xlink" width="80" height="24" viewBox="0 0 80 24">
  <defs>
    <clipPath id="clip-PEKTO">
      <rect width="80" height="24"/>
    </clipPath>
  </defs>
  <g id="PEKTO" clip-path="url(#clip-PEKTO)">
    <rect width="80" height="24" fill="#fff"/>
    <g id="Group_65" data-name="Group 65" transform="translate(314.11 -345.562)">
      <path id="Path_265" data-name="Path 265" d="M-304.11,350.708h5.994a3.754,3.754,0,0,1,2.933,1.081,4.436,4.436,0,0,1,.975,3.075,4.549,4.549,0,0,1-1.064,3.2,4.2,4.2,0,0,1-3.243,1.155h-1.974v5.023h-3.622Zm3.622,5.771h.883a2.041,2.041,0,0,0,1.465-.419,1.454,1.454,0,0,0,.423-1.076,1.637,1.637,0,0,0-.367-1.08,1.724,1.724,0,0,0-1.378-.444h-1.026Z" transform="translate(0 0.084)" fill="#f71634"/>
      <path id="Path_266" data-name="Path 266" d="M-295.439,350.708h9.665v2.89h-6.05v2.153h5.611v2.761h-5.611v2.668h6.225v3.065h-9.841Z" transform="translate(3.11 0.084)" fill="#f71634"/>
      <path id="Path_267" data-name="Path 267" d="M-286.755,350.708h3.606v5.116l3.778-5.116h4.8l-4.259,5.111,4.45,8.427h-4.44l-2.46-5.567-1.864,2.263v3.3h-3.606Z" transform="translate(6.224 0.084)" fill="#f71634"/>
      <path id="Path_268" data-name="Path 268" d="M-277.374,350.708h10.961v3.343h-3.678v10.2H-273.7v-10.2h-3.678Z" transform="translate(9.588 0.084)" fill="#f71634"/>
      <path id="Path_269" data-name="Path 269" d="M-268.849,357.571a7.659,7.659,0,0,1,1.592-5.162,5.538,5.538,0,0,1,4.435-1.847,5.628,5.628,0,0,1,4.489,1.814,7.5,7.5,0,0,1,1.577,5.084,9.476,9.476,0,0,1-.689,3.893,5.407,5.407,0,0,1-1.99,2.364,5.848,5.848,0,0,1-3.244.845,6.6,6.6,0,0,1-3.267-.73,5.321,5.321,0,0,1-2.1-2.309A8.658,8.658,0,0,1-268.849,357.571Zm3.607.019a5.091,5.091,0,0,0,.656,2.946,2.1,2.1,0,0,0,1.787.9,2.094,2.094,0,0,0,1.8-.876,5.644,5.644,0,0,0,.636-3.149,4.675,4.675,0,0,0-.664-2.794,2.137,2.137,0,0,0-1.8-.881,2.071,2.071,0,0,0-1.751.9A5.107,5.107,0,0,0-265.242,357.59Z" transform="translate(12.646)" fill="#f71634"/>
    </g>
  </g>
</svg>
