<svg xmlns="http://www.w3.org/2000/svg" xmlns:xlink="http://www.w3.org/1999/xlink" width="80" height="24" viewBox="0 0 80 24">
  <defs>
    <clipPath id="clip-PERFECT">
      <rect width="80" height="24"/>
    </clipPath>
  </defs>
  <g id="PERFECT" clip-path="url(#clip-PERFECT)">
    <rect width="80" height="24" fill="#fff"/>
    <g id="Group_67" data-name="Group 67" transform="translate(314.11 -360.536)">
      <path id="Path_278" data-name="Path 278" d="M-304.11,366.683h5.719a3.806,3.806,0,0,1,2.8.927,3.562,3.562,0,0,1,.931,2.637A3.662,3.662,0,0,1-295.677,373a4.274,4.274,0,0,1-3.094.99h-1.883v4.31h-3.456Zm3.456,4.95h.843a2.1,2.1,0,0,0,1.4-.361,1.181,1.181,0,0,0,.4-.922,1.32,1.32,0,0,0-.35-.927,1.766,1.766,0,0,0-1.314-.38h-.979Z" transform="translate(0 0.052)" fill="#4360ef"/>
      <path id="Path_279" data-name="Path 279" d="M-286.858,374.105h-6.2a2.146,2.146,0,0,0,.4,1.157,1.441,1.441,0,0,0,1.169.546,1.7,1.7,0,0,0,.866-.238,2.064,2.064,0,0,0,.539-.53l3.046.292a4.459,4.459,0,0,1-1.686,1.818,5.9,5.9,0,0,1-2.832.55,5.6,5.6,0,0,1-2.522-.47,3.786,3.786,0,0,1-1.523-1.5,4.669,4.669,0,0,1-.6-2.412,4.332,4.332,0,0,1,1.211-3.192,4.5,4.5,0,0,1,3.346-1.219,5.742,5.742,0,0,1,2.735.546,3.61,3.61,0,0,1,1.526,1.584,5.987,5.987,0,0,1,.525,2.7ZM-290,372.561a2.216,2.216,0,0,0-.482-1.34,1.368,1.368,0,0,0-1.029-.4,1.379,1.379,0,0,0-1.177.61,2.289,2.289,0,0,0-.358,1.133Z" transform="translate(2.343 0.835)" fill="#4360ef"/>
      <path id="Path_280" data-name="Path 280" d="M-287.874,369.1h2.893v1.379a3.28,3.28,0,0,1,.862-1.232,1.767,1.767,0,0,1,1.1-.337,3.156,3.156,0,0,1,1.5.443l-.957,2.3a2.357,2.357,0,0,0-.866-.238,1.059,1.059,0,0,0-.942.523,5.506,5.506,0,0,0-.478,2.756v2.82h-3.106Z" transform="translate(4.809 0.835)" fill="#4360ef"/>
      <path id="Path_281" data-name="Path 281" d="M-278.945,369.934h1.474v2.36h-1.474v6.052h-3.1v-6.052H-283.2v-2.36h1.154v-.38a6.823,6.823,0,0,1,.106-1.133,2.317,2.317,0,0,1,.4-1.01,2.067,2.067,0,0,1,.82-.634,3.854,3.854,0,0,1,1.545-.242,20.111,20.111,0,0,1,2.362.2l-.341,1.948a5.532,5.532,0,0,0-.9-.095.968.968,0,0,0-.6.146.826.826,0,0,0-.258.464A4.482,4.482,0,0,0-278.945,369.934Z" transform="translate(6.194)" fill="#4360ef"/>
      <path id="Path_282" data-name="Path 282" d="M-269.063,374.105h-6.2a2.146,2.146,0,0,0,.4,1.157,1.441,1.441,0,0,0,1.169.546,1.7,1.7,0,0,0,.866-.238,2.063,2.063,0,0,0,.539-.53l3.046.292a4.467,4.467,0,0,1-1.686,1.818,5.9,5.9,0,0,1-2.832.55,5.6,5.6,0,0,1-2.522-.47,3.786,3.786,0,0,1-1.523-1.5,4.669,4.669,0,0,1-.6-2.412,4.332,4.332,0,0,1,1.211-3.192,4.5,4.5,0,0,1,3.346-1.219,5.742,5.742,0,0,1,2.735.546,3.611,3.611,0,0,1,1.526,1.584,5.987,5.987,0,0,1,.525,2.7Zm-3.145-1.544a2.216,2.216,0,0,0-.482-1.34,1.368,1.368,0,0,0-1.029-.4,1.379,1.379,0,0,0-1.177.61,2.289,2.289,0,0,0-.358,1.133Z" transform="translate(7.614 0.835)" fill="#4360ef"/>
      <path id="Path_283" data-name="Path 283" d="M-264,374.216l2.94.349a4.374,4.374,0,0,1-.8,1.66,3.719,3.719,0,0,1-1.415,1.088,5.349,5.349,0,0,1-2.192.388,7.756,7.756,0,0,1-2.137-.249,3.671,3.671,0,0,1-1.47-.807,4.032,4.032,0,0,1-.964-1.31,4.777,4.777,0,0,1-.35-1.994,4.891,4.891,0,0,1,.425-2.162,3.9,3.9,0,0,1,.852-1.135A3.885,3.885,0,0,1-268,369.3a5.9,5.9,0,0,1,2.316-.388,5.17,5.17,0,0,1,3.011.735,3.879,3.879,0,0,1,1.454,2.155l-2.909.4a1.413,1.413,0,0,0-.5-.812,1.576,1.576,0,0,0-.97-.273,1.54,1.54,0,0,0-1.242.573,2.681,2.681,0,0,0-.474,1.736,2.316,2.316,0,0,0,.472,1.573,1.523,1.523,0,0,0,1.2.538,1.6,1.6,0,0,0,1.021-.324A1.955,1.955,0,0,0-264,374.216Z" transform="translate(9.988 0.835)" fill="#4360ef"/>
      <path id="Path_284" data-name="Path 284" d="M-258.254,366.683v3.2h1.7v2.36h-1.7v2.981a1.677,1.677,0,0,0,.1.711.558.558,0,0,0,.533.269,3.3,3.3,0,0,0,.957-.206l.228,2.225a9.666,9.666,0,0,1-2.143.261,3.591,3.591,0,0,1-1.7-.308,1.845,1.845,0,0,1-.809-.937,5.724,5.724,0,0,1-.262-2.037v-2.959h-1.139v-2.36h1.139v-1.544Z" transform="translate(12.328 0.052)" fill="#4360ef"/>
    </g>
  </g>
</svg>
