<svg xmlns="http://www.w3.org/2000/svg" xmlns:xlink="http://www.w3.org/1999/xlink" width="80" height="24" viewBox="0 0 80 24">
  <defs>
    <clipPath id="clip-ROSTER">
      <rect width="80" height="24"/>
    </clipPath>
  </defs>
  <g id="ROSTER" clip-path="url(#clip-ROSTER)">
    <rect width="80" height="24" fill="#fff"/>
    <g id="Group_78" data-name="Group 78" transform="translate(314.064 -592.007)">
      <path id="Path_335" data-name="Path 335" d="M-304.064,609.758v-11.6h4.955a6.025,6.025,0,0,1,2.107.285,2.328,2.328,0,0,1,1.175,1.056,3.7,3.7,0,0,1,.446,1.879,3.774,3.774,0,0,1-.34,1.667,3.015,3.015,0,0,1-.94,1.136,3.232,3.232,0,0,1-1.044.458,2.757,2.757,0,0,1,.774.428,3.41,3.41,0,0,1,.475.611,4.63,4.63,0,0,1,.417.72l1.44,3.364h-3.359l-1.589-3.546a2.735,2.735,0,0,0-.539-.9,1.108,1.108,0,0,0-.728-.269h-.263v4.711Zm2.986-6.9h1.254a3.8,3.8,0,0,0,.787-.158.782.782,0,0,0,.482-.365,1.213,1.213,0,0,0,.187-.673,1.181,1.181,0,0,0-.295-.862,1.552,1.552,0,0,0-1.11-.3h-1.306Z" transform="translate(0 0.052)" fill="#ff9f1c"/>
      <path id="Path_336" data-name="Path 336" d="M-295.3,604.014a6.742,6.742,0,0,1,1.313-4.424,4.488,4.488,0,0,1,3.656-1.583,4.55,4.55,0,0,1,3.7,1.556,6.6,6.6,0,0,1,1.3,4.357,8.408,8.408,0,0,1-.568,3.337,4.593,4.593,0,0,1-1.641,2.026,4.681,4.681,0,0,1-2.674.724,5.254,5.254,0,0,1-2.694-.625,4.486,4.486,0,0,1-1.729-1.979A7.672,7.672,0,0,1-295.3,604.014Zm2.972.016a4.5,4.5,0,0,0,.542,2.525,1.71,1.71,0,0,0,1.473.769,1.7,1.7,0,0,0,1.483-.752,4.984,4.984,0,0,0,.525-2.7,4.127,4.127,0,0,0-.548-2.394,1.738,1.738,0,0,0-1.486-.757,1.688,1.688,0,0,0-1.444.767A4.516,4.516,0,0,0-292.332,604.031Z" transform="translate(1.051)" fill="#ff9f1c"/>
      <path id="Path_337" data-name="Path 337" d="M-285.437,605.97l2.829-.213a2.94,2.94,0,0,0,.374,1.266,1.474,1.474,0,0,0,1.313.7,1.3,1.3,0,0,0,.981-.359,1.172,1.172,0,0,0,.344-.835,1.157,1.157,0,0,0-.328-.808,3.433,3.433,0,0,0-1.522-.673,5.97,5.97,0,0,1-2.789-1.409,3.11,3.11,0,0,1-.84-2.24,3.508,3.508,0,0,1,.429-1.69,3.032,3.032,0,0,1,1.294-1.251,5.107,5.107,0,0,1,2.365-.455,4.217,4.217,0,0,1,2.812.827,3.823,3.823,0,0,1,1.151,2.633l-2.8.2a1.965,1.965,0,0,0-.469-1.14,1.342,1.342,0,0,0-.988-.355,1.052,1.052,0,0,0-.781.265.884.884,0,0,0-.262.646.7.7,0,0,0,.216.5,2.2,2.2,0,0,0,1,.427,10.983,10.983,0,0,1,2.792,1.025,3.2,3.2,0,0,1,1.227,1.286,3.8,3.8,0,0,1,.383,1.718,4.237,4.237,0,0,1-.512,2.057,3.429,3.429,0,0,1-1.43,1.429,4.919,4.919,0,0,1-2.316.486,4.231,4.231,0,0,1-3.4-1.14A4.968,4.968,0,0,1-285.437,605.97Z" transform="translate(2.235)" fill="#ff9f1c"/>
      <path id="Path_338" data-name="Path 338" d="M-276.911,598.154h9.036v2.865h-3.032v8.739h-2.972v-8.739h-3.032Z" transform="translate(3.257 0.052)" fill="#ff9f1c"/>
      <path id="Path_339" data-name="Path 339" d="M-267.648,598.154h7.967v2.477h-4.987v1.844h4.625v2.367h-4.625v2.287h5.132v2.629h-8.112Z" transform="translate(4.369 0.052)" fill="#ff9f1c"/>
      <path id="Path_340" data-name="Path 340" d="M-258.941,609.758v-11.6h4.955a6.02,6.02,0,0,1,2.107.285A2.328,2.328,0,0,1-250.7,599.5a3.7,3.7,0,0,1,.446,1.879,3.774,3.774,0,0,1-.34,1.667,3.015,3.015,0,0,1-.94,1.136,3.231,3.231,0,0,1-1.044.458,2.757,2.757,0,0,1,.774.428,3.412,3.412,0,0,1,.475.611,4.63,4.63,0,0,1,.417.72l1.44,3.364h-3.359l-1.589-3.546a2.735,2.735,0,0,0-.539-.9,1.108,1.108,0,0,0-.728-.269h-.263v4.711Zm2.986-6.9h1.254a3.8,3.8,0,0,0,.787-.158.782.782,0,0,0,.482-.365,1.213,1.213,0,0,0,.187-.673,1.181,1.181,0,0,0-.295-.862,1.552,1.552,0,0,0-1.11-.3h-1.306Z" transform="translate(5.413 0.052)" fill="#ff9f1c"/>
    </g>
  </g>
</svg>
