<svg xmlns="http://www.w3.org/2000/svg" xmlns:xlink="http://www.w3.org/1999/xlink" width="80" height="24" viewBox="0 0 80 24">
  <defs>
    <clipPath id="clip-roster">
      <rect width="80" height="24"/>
    </clipPath>
  </defs>
  <g id="roster" clip-path="url(#clip-roster)">
    <rect width="80" height="24" fill="#fff"/>
    <g id="Group_56" data-name="Group 56" transform="translate(-350.769 -156)">
      <path id="Path_223" data-name="Path 223" d="M363.861,169.356h-.776v6.431h-2.316V160.213c.229-.019.478-.041.748-.061s.547-.038.831-.053.572-.027.864-.038.571-.015.837-.015a3.721,3.721,0,0,1,4.188,4.266,7.135,7.135,0,0,1-.182,1.707,5.279,5.279,0,0,1-.482,1.272,3.69,3.69,0,0,1-.687.907,4.956,4.956,0,0,1-.809.625q.508,1.2.969,2.27a19.132,19.132,0,0,0,.914,1.867,5.722,5.722,0,0,0,.931,1.265,1.451,1.451,0,0,0,1.02.465h.077v.99a3.22,3.22,0,0,1-.632.2,3.86,3.86,0,0,1-.8.076,4.445,4.445,0,0,1-.77-.061,1.988,1.988,0,0,1-.654-.236,2.385,2.385,0,0,1-.6-.51,5.293,5.293,0,0,1-.6-.884q-.311-.549-.665-1.349T364.492,171Zm-.377-1.539a2.757,2.757,0,0,0,.936-.16,1.957,1.957,0,0,0,.7-.4,2.152,2.152,0,0,0,.266-.3,1.737,1.737,0,0,0,.238-.487,4.16,4.16,0,0,0,.166-.785,9.521,9.521,0,0,0,.061-1.189,5.58,5.58,0,0,0-.138-1.341,2.211,2.211,0,0,0-.41-.876,1.542,1.542,0,0,0-.671-.472,2.736,2.736,0,0,0-.93-.145q-.123,0-.3.015a2.909,2.909,0,0,0-.321.046v6.1Z" fill="#ff6000"/>
      <path id="Path_224" data-name="Path 224" d="M382.088,167.924a14.33,14.33,0,0,1-.36,3.352,7.614,7.614,0,0,1-1.081,2.545,4.931,4.931,0,0,1-1.8,1.615,5.3,5.3,0,0,1-2.5.564,5.09,5.09,0,0,1-2.5-.579,4.775,4.775,0,0,1-1.717-1.638,7.624,7.624,0,0,1-.992-2.545,15.947,15.947,0,0,1-.316-3.314,15.149,15.149,0,0,1,.327-3.292,7.46,7.46,0,0,1,1-2.491,4.582,4.582,0,0,1,1.723-1.577,5.312,5.312,0,0,1,2.5-.549,5.4,5.4,0,0,1,2.5.549,4.845,4.845,0,0,1,1.784,1.577,7.454,7.454,0,0,1,1.075,2.491A13.813,13.813,0,0,1,382.088,167.924Zm-2.438.015a15.6,15.6,0,0,0-.188-2.56,6.768,6.768,0,0,0-.588-1.92,3.075,3.075,0,0,0-1.019-1.211,2.592,2.592,0,0,0-1.485-.419,4.461,4.461,0,0,0-1.4.213,2.44,2.44,0,0,0-1.025.609,3.3,3.3,0,0,0-.549,1.715,29.2,29.2,0,0,0-.171,3.573,18.941,18.941,0,0,0,.155,2.545,7.387,7.387,0,0,0,.515,1.966,3.105,3.105,0,0,0,.958,1.272,2.419,2.419,0,0,0,1.5.449,4.472,4.472,0,0,0,1.524-.221,3.111,3.111,0,0,0,1.014-.586,1.469,1.469,0,0,0,.332-.678,8.68,8.68,0,0,0,.238-1.242c.063-.488.111-1.033.144-1.638S379.65,168.579,379.65,167.939Z" fill="#ff6000"/>
      <path id="Path_225" data-name="Path 225" d="M391.262,171.215a4.9,4.9,0,0,1-.315,1.707,5.107,5.107,0,0,1-.9,1.539,4.614,4.614,0,0,1-1.4,1.112,3.913,3.913,0,0,1-1.839.427,6.314,6.314,0,0,1-1.014-.076,4.607,4.607,0,0,1-.87-.229,6.078,6.078,0,0,1-.786-.358,8.542,8.542,0,0,1-.754-.465l.565-2.316a3.959,3.959,0,0,0,.66.48,8.3,8.3,0,0,0,.886.465,7.434,7.434,0,0,0,.958.358,3.169,3.169,0,0,0,.887.145,2.791,2.791,0,0,0,1.385-.274,1.165,1.165,0,0,0,.415-.686,5,5,0,0,0,.161-1.4,1.963,1.963,0,0,0-.238-1.013,2.521,2.521,0,0,0-.626-.709,4.98,4.98,0,0,0-.887-.549q-.5-.245-1.013-.518a8.84,8.84,0,0,1-1.014-.632,4,4,0,0,1-.887-.884,4.384,4.384,0,0,1-.626-1.265,5.87,5.87,0,0,1-.238-1.79,4.316,4.316,0,0,1,.271-1.448,4.526,4.526,0,0,1,.793-1.386,4.362,4.362,0,0,1,1.279-1.037A3.587,3.587,0,0,1,387.85,160a10.054,10.054,0,0,1,1.5.107q.714.106,1.391.274l-.355,2.316a7.024,7.024,0,0,0-.715-.289,8.329,8.329,0,0,0-.8-.237q-.409-.1-.8-.16a4.438,4.438,0,0,0-.687-.061,4.518,4.518,0,0,0-.67.054,1.244,1.244,0,0,0-.571.221.985.985,0,0,0-.321.579,4.231,4.231,0,0,0-.1.99,1.894,1.894,0,0,0,.238.991,2.408,2.408,0,0,0,.626.685,5.527,5.527,0,0,0,.887.534q.5.245,1.019.526a9.152,9.152,0,0,1,1.02.64,3.863,3.863,0,0,1,.886.9,4.555,4.555,0,0,1,.626,1.3A6.227,6.227,0,0,1,391.262,171.215Z" fill="#ff6000"/>
      <path id="Path_226" data-name="Path 226" d="M395.44,175.787V161.844l-3.491-.076.111-1.585h9.186l-.111,1.539-3.38.122v13.943Z" fill="#ff6000"/>
      <path id="Path_227" data-name="Path 227" d="M409.578,175.787h-6.836v-15.6h6.592l-.11,1.585-4.167.076v5.074l3.923.061-.111,1.448-3.812.122v5.577l4.632.122Z" fill="#ff6000"/>
      <path id="Path_228" data-name="Path 228" d="M414.642,169.356h-.776v6.431H411.55V160.213c.229-.019.479-.041.748-.061s.547-.038.831-.053.573-.027.865-.038.57-.015.836-.015a3.722,3.722,0,0,1,4.189,4.266,7.08,7.08,0,0,1-.183,1.707,5.28,5.28,0,0,1-.482,1.272,3.69,3.69,0,0,1-.687.907,4.957,4.957,0,0,1-.809.625q.508,1.2.969,2.27a18.889,18.889,0,0,0,.915,1.867,5.722,5.722,0,0,0,.93,1.265,1.451,1.451,0,0,0,1.02.465h.077v.99a3.231,3.231,0,0,1-.631.2,3.877,3.877,0,0,1-.8.076,4.444,4.444,0,0,1-.77-.061,1.988,1.988,0,0,1-.654-.236,2.386,2.386,0,0,1-.6-.51,5.3,5.3,0,0,1-.6-.884q-.311-.549-.665-1.349T415.273,171Zm-.377-1.539a2.756,2.756,0,0,0,.936-.16,1.948,1.948,0,0,0,.7-.4,2.089,2.089,0,0,0,.266-.3,1.71,1.71,0,0,0,.238-.487,4.16,4.16,0,0,0,.166-.785,9.521,9.521,0,0,0,.061-1.189,5.578,5.578,0,0,0-.138-1.341,2.21,2.21,0,0,0-.41-.876,1.537,1.537,0,0,0-.671-.472,2.731,2.731,0,0,0-.93-.145c-.082,0-.181.005-.3.015a2.93,2.93,0,0,0-.322.046v6.1Z" fill="#ff6000"/>
    </g>
  </g>
</svg>
