<svg xmlns="http://www.w3.org/2000/svg" xmlns:xlink="http://www.w3.org/1999/xlink" width="80" height="24" viewBox="0 0 80 24">
  <defs>
    <clipPath id="clip-shimatsu">
      <rect width="80" height="24"/>
    </clipPath>
  </defs>
  <g id="shimatsu" clip-path="url(#clip-shimatsu)">
    <rect width="80" height="24" fill="#fff"/>
    <g id="Group_66" data-name="Group 66" transform="translate(314.485 -374.399)">
      <path id="Path_270" data-name="Path 270" d="M-298.164,385.423a2.036,2.036,0,0,1,.943.186,1.339,1.339,0,0,1,.545.516,2.089,2.089,0,0,1,.251.77,7.07,7.07,0,0,1,.061.962,6.469,6.469,0,0,1-.065.952,1.979,1.979,0,0,1-.254.744,1.312,1.312,0,0,1-.542.489,2.076,2.076,0,0,1-.925.177h-6v-1.925h5.971a.381.381,0,0,0,.247-.073.431.431,0,0,0,.133-.2,1.118,1.118,0,0,0,.054-.291c.007-.111.011-.229.011-.355h-4.946a2.033,2.033,0,0,1-.917-.177,1.331,1.331,0,0,1-.548-.493,2.045,2.045,0,0,1-.269-.76,6.029,6.029,0,0,1-.071-.962,9.272,9.272,0,0,1,.05-1.014,1.972,1.972,0,0,1,.233-.77,1.227,1.227,0,0,1,.545-.494,2.254,2.254,0,0,1,.978-.177h5.956v1.955h-6.315c0,.1,0,.211.008.318a1.612,1.612,0,0,0,.039.3.554.554,0,0,0,.1.23.254.254,0,0,0,.208.088Z" transform="translate(0 -0.018)"/>
      <path id="Path_271" data-name="Path 271" d="M-288.295,382.519v2.84h4.8v-2.84h1.383v7.7h-1.4v-2.9h-4.767v2.9h-1.391v-7.7Z" transform="translate(-5.963 -0.016)"/>
      <path id="Path_272" data-name="Path 272" d="M-274.4,382.519v7.7h-1.477v-7.7Z" transform="translate(-11.52 -0.016)"/>
      <path id="Path_273" data-name="Path 273" d="M-270.894,390.218h-1.276v-5.639a2.935,2.935,0,0,1,.1-.745,2.571,2.571,0,0,1,.269-.66,1.667,1.667,0,0,1,.4-.473.8.8,0,0,1,.505-.182.791.791,0,0,1,.516.2,2.193,2.193,0,0,1,.43.5,4.009,4.009,0,0,1,.34.666,6.616,6.616,0,0,1,.24.7l1.1,3.9,1.125-3.9a7.146,7.146,0,0,1,.237-.7,3.822,3.822,0,0,1,.337-.666,2.193,2.193,0,0,1,.43-.5.8.8,0,0,1,.523-.2.88.88,0,0,1,.527.172,1.434,1.434,0,0,1,.4.457,2.571,2.571,0,0,1,.258.662,3.178,3.178,0,0,1,.093.77v5.639h-1.283v-5.639l-1.269,4.026q-.129.417-.254.755a2.837,2.837,0,0,1-.28.572,1.169,1.169,0,0,1-.358.359.931.931,0,0,1-.491.124.73.73,0,0,1-.459-.16,1.755,1.755,0,0,1-.38-.417,3.123,3.123,0,0,1-.3-.583c-.088-.218-.166-.438-.233-.66l-1.254-4.016Z" transform="translate(-13.013 -0.016)"/>
      <path id="Path_274" data-name="Path 274" d="M-251.059,384.219V390.2h-1.34v-1.977h-2.588l-1.355,1.977h-2.1l4.953-7.075a1.391,1.391,0,0,1,1.089-.728,1.36,1.36,0,0,1,.5.094,1.132,1.132,0,0,1,.43.3,1.483,1.483,0,0,1,.3.556,2.827,2.827,0,0,1,.111.849Zm-1.34.24-1.448,2.111h1.448Z" transform="translate(-18.541)"/>
      <path id="Path_275" data-name="Path 275" d="M-245.014,382.531h7.519V384.5h-3.082v5.722h-1.333v-5.7h-3.1Z" transform="translate(-23.948 -0.018)"/>
      <path id="Path_276" data-name="Path 276" d="M-225.1,385.423a2.036,2.036,0,0,1,.943.186,1.339,1.339,0,0,1,.545.516,2.09,2.09,0,0,1,.251.77,7.165,7.165,0,0,1,.061.962,6.549,6.549,0,0,1-.065.952,1.979,1.979,0,0,1-.254.744,1.311,1.311,0,0,1-.541.489,2.078,2.078,0,0,1-.925.177h-6v-1.925h5.97a.383.383,0,0,0,.248-.073.431.431,0,0,0,.133-.2,1.118,1.118,0,0,0,.054-.291c.007-.111.011-.229.011-.355h-4.946a2.032,2.032,0,0,1-.917-.177,1.328,1.328,0,0,1-.548-.493,2.035,2.035,0,0,1-.269-.76,5.956,5.956,0,0,1-.072-.962,9.262,9.262,0,0,1,.05-1.014,1.963,1.963,0,0,1,.233-.77,1.228,1.228,0,0,1,.545-.494,2.251,2.251,0,0,1,.978-.177h5.956v1.955h-6.314c0,.1,0,.211.007.318a1.661,1.661,0,0,0,.039.3.547.547,0,0,0,.1.23.254.254,0,0,0,.208.088Z" transform="translate(-29.423 -0.018)"/>
      <path id="Path_277" data-name="Path 277" d="M-210.446,382.519h1.376v5.368a3.7,3.7,0,0,1-.121.994,2.255,2.255,0,0,1-.341.728,1.477,1.477,0,0,1-.53.453,1.528,1.528,0,0,1-.692.156h-4.093a1.447,1.447,0,0,1-.681-.161,1.6,1.6,0,0,1-.534-.463,2.273,2.273,0,0,1-.351-.734,3.477,3.477,0,0,1-.125-.973v-5.368h1.369v5.036a1.7,1.7,0,0,0,.054.463.243.243,0,0,0,.262.182h4.086a.3.3,0,0,0,.179-.047.286.286,0,0,0,.1-.12.463.463,0,0,0,.036-.172q0-.1,0-.2Z" transform="translate(-35.415 -0.016)"/>
    </g>
  </g>
</svg>
