<svg xmlns="http://www.w3.org/2000/svg" xmlns:xlink="http://www.w3.org/1999/xlink" width="80" height="24" viewBox="0 0 80 24">
  <defs>
    <clipPath id="clip-shimahide">
      <rect width="80" height="24"/>
    </clipPath>
  </defs>
  <g id="shimahide" clip-path="url(#clip-shimahide)">
    <rect width="80" height="24" fill="#fff"/>
    <g id="Group_1" data-name="Group 1" transform="translate(-350.769)">
      <path id="Path_1" data-name="Path 1" d="M366.566,11.23h-2.427v-.523a3.035,3.035,0,0,0-.071-.853c-.048-.12-.167-.179-.357-.179a.387.387,0,0,0-.343.164.846.846,0,0,0-.117.491,2.666,2.666,0,0,0,.058.656,1.031,1.031,0,0,0,.344.456,7.331,7.331,0,0,0,1.185.723,4.357,4.357,0,0,1,1.564,1.183,2.874,2.874,0,0,1,.373,1.611,4.342,4.342,0,0,1-.285,1.788,1.957,1.957,0,0,1-.952.927,3.645,3.645,0,0,1-1.61.326,4.118,4.118,0,0,1-1.785-.352,2,2,0,0,1-1.021-.947,4.524,4.524,0,0,1-.278-1.812V14.42h2.426v.613a3.44,3.44,0,0,0,.092,1.015.355.355,0,0,0,.363.235.475.475,0,0,0,.407-.157,1.246,1.246,0,0,0,.115-.662,1.592,1.592,0,0,0-.148-.869,12.863,12.863,0,0,0-1.6-1.036,3.61,3.61,0,0,1-1.47-1.326,3.451,3.451,0,0,1-.265-1.412,3.913,3.913,0,0,1,.285-1.712,1.89,1.89,0,0,1,.966-.851,3.9,3.9,0,0,1,1.583-.3,4.208,4.208,0,0,1,1.522.245,2.324,2.324,0,0,1,.963.647,1.766,1.766,0,0,1,.406.745,5.762,5.762,0,0,1,.072,1.074Z" fill="#df1b22"/>
      <path id="Path_2" data-name="Path 2" d="M370.245,6V8.662a2.456,2.456,0,0,1,.762-.529,2.252,2.252,0,0,1,.878-.175,1.93,1.93,0,0,1,1.225.394,1.583,1.583,0,0,1,.616.911,10.418,10.418,0,0,1,.113,1.878v6.684H371.1V11a4.5,4.5,0,0,0-.078-1.088.329.329,0,0,0-.349-.241.336.336,0,0,0-.339.246,3.622,3.622,0,0,0-.088.987v6.917h-2.738V6Z" fill="#df1b22"/>
      <path id="Path_3" data-name="Path 3" d="M377.6,6V7.543H374.78V6Zm0,2.133v9.692H374.78V8.133Z" fill="#df1b22"/>
      <path id="Path_4" data-name="Path 4" d="M381.288,8.133l-.047.923A2.312,2.312,0,0,1,382,8.232a1.867,1.867,0,0,1,1-.274,1.928,1.928,0,0,1,1.729,1.1,2.554,2.554,0,0,1,.779-.824,1.77,1.77,0,0,1,.962-.274,1.8,1.8,0,0,1,1.156.364,1.626,1.626,0,0,1,.587.9,8.1,8.1,0,0,1,.129,1.72v6.888h-2.658V11.508a8.707,8.707,0,0,0-.077-1.538.349.349,0,0,0-.364-.3.358.358,0,0,0-.374.291,7.69,7.69,0,0,0-.087,1.542v6.317h-2.657V11.668a12.4,12.4,0,0,0-.064-1.71.329.329,0,0,0-.355-.283.4.4,0,0,0-.312.149.592.592,0,0,0-.142.365c-.008.144-.013.449-.013.918v6.718h-2.658V8.133Z" fill="#df1b22"/>
      <path id="Path_5" data-name="Path 5" d="M391.732,11.887h-2.569v-.65A4.862,4.862,0,0,1,389.4,9.5a2.338,2.338,0,0,1,.965-1.077,4.218,4.218,0,0,1,3.979.062,2.063,2.063,0,0,1,.847,1.3,22.1,22.1,0,0,1,.142,3.173v4.865h-2.663v-.867a1.889,1.889,0,0,1-.647.782,1.71,1.71,0,0,1-.948.26,2.221,2.221,0,0,1-1.318-.434q-.6-.435-.6-1.9v-.8a2.455,2.455,0,0,1,.319-1.48,4.378,4.378,0,0,1,1.579-.92,4.4,4.4,0,0,0,1.444-.767,2.2,2.2,0,0,0,.094-.8,2.949,2.949,0,0,0-.1-.989.36.36,0,0,0-.351-.23c-.184,0-.3.064-.345.193a4.224,4.224,0,0,0-.068,1Zm.867,1.329a2.145,2.145,0,0,0-.763.868,3.767,3.767,0,0,0-.1,1.009,3.145,3.145,0,0,0,.092.971.353.353,0,0,0,.362.219.328.328,0,0,0,.335-.172,2.913,2.913,0,0,0,.078-.9Z" fill="#df1b22"/>
      <path id="Path_6" data-name="Path 6" d="M399.018,6V8.662a2.426,2.426,0,0,1,.763-.529,2.248,2.248,0,0,1,.878-.175,1.933,1.933,0,0,1,1.224.394,1.59,1.59,0,0,1,.617.911,10.471,10.471,0,0,1,.111,1.878v6.684h-2.739V11a4.524,4.524,0,0,0-.077-1.088.331.331,0,0,0-.35-.241.334.334,0,0,0-.338.246,3.53,3.53,0,0,0-.089.987v6.917H396.28V6Z" fill="#df1b22"/>
      <path id="Path_7" data-name="Path 7" d="M406.373,6V7.543h-2.819V6Zm0,2.133v9.692h-2.819V8.133Z" fill="#df1b22"/>
      <path id="Path_8" data-name="Path 8" d="M413.584,6V17.825h-2.737v-.7a2.863,2.863,0,0,1-.827.659,1.98,1.98,0,0,1-.91.22,1.751,1.751,0,0,1-1.1-.364,1.592,1.592,0,0,1-.6-.835,6.446,6.446,0,0,1-.132-1.549V10.721a6.644,6.644,0,0,1,.132-1.587,1.559,1.559,0,0,1,.606-.822,1.846,1.846,0,0,1,1.132-.354,2.168,2.168,0,0,1,.932.2,2.354,2.354,0,0,1,.77.593V6Zm-2.737,4.573a1.988,1.988,0,0,0-.085-.714.332.332,0,0,0-.336-.184.335.335,0,0,0-.329.164,1.977,1.977,0,0,0-.084.734v4.745a2.35,2.35,0,0,0,.082.779.307.307,0,0,0,.31.186.346.346,0,0,0,.354-.209,3.469,3.469,0,0,0,.088-1.019Z" fill="#df1b22"/>
      <path id="Path_9" data-name="Path 9" d="M420.769,13.151h-3.543v2.094a2.5,2.5,0,0,0,.087.848.338.338,0,0,0,.34.19.406.406,0,0,0,.416-.252,2.99,2.99,0,0,0,.105-.976V13.778h2.6v.716a6.75,6.75,0,0,1-.105,1.38,2.884,2.884,0,0,1-.491,1.031,2.424,2.424,0,0,1-.979.82A3.545,3.545,0,0,1,417.7,18a4.041,4.041,0,0,1-1.531-.272,2.439,2.439,0,0,1-1.034-.741,2.766,2.766,0,0,1-.511-1.037,7.171,7.171,0,0,1-.143-1.645V11.479a5.109,5.109,0,0,1,.319-2,2.283,2.283,0,0,1,1.044-1.126,3.461,3.461,0,0,1,1.667-.391,3.508,3.508,0,0,1,1.9.471,2.557,2.557,0,0,1,1.052,1.248,6.309,6.309,0,0,1,.3,2.188Zm-2.745-1.577v-.71a3.768,3.768,0,0,0-.075-.97.3.3,0,0,0-.3-.219c-.188,0-.307.063-.352.186a4.211,4.211,0,0,0-.066,1v.71Z" fill="#df1b22"/>
    </g>
  </g>
</svg>
