<svg xmlns="http://www.w3.org/2000/svg" xmlns:xlink="http://www.w3.org/1999/xlink" width="80" height="24" viewBox="0 0 80 24">
  <defs>
    <clipPath id="clip-smart">
      <rect width="80" height="24"/>
    </clipPath>
  </defs>
  <g id="smart" clip-path="url(#clip-smart)">
    <rect width="80" height="24" fill="#fff"/>
    <path id="Path_454" data-name="Path 454" d="M7.472.849A1.2,1.2,0,0,0,6.949-.2,7.046,7.046,0,0,0,5.071-.969a13.862,13.862,0,0,1-2.146-.8,3.254,3.254,0,0,1-2.161-2.9,2.675,2.675,0,0,1,.577-1.686A3.746,3.746,0,0,1,3-7.512,6.721,6.721,0,0,1,5.435-7.93a6.1,6.1,0,0,1,2.417.454A3.8,3.8,0,0,1,9.5-6.194a3.164,3.164,0,0,1,.589,1.879H7.48a1.518,1.518,0,0,0-.546-1.25,2.4,2.4,0,0,0-1.546-.443A2.558,2.558,0,0,0,3.9-5.637a1.148,1.148,0,0,0-.531.986A1.114,1.114,0,0,0,4-3.7,7.334,7.334,0,0,0,5.83-2.98,8.2,8.2,0,0,1,9.072-1.444,2.936,2.936,0,0,1,10.091.835,2.734,2.734,0,0,1,8.847,3.21,5.793,5.793,0,0,1,5.5,4.07a6.956,6.956,0,0,1-2.665-.493A4.171,4.171,0,0,1,1,2.228,3.259,3.259,0,0,1,.368.242H2.994q0,1.929,2.5,1.929a2.611,2.611,0,0,0,1.453-.346A1.1,1.1,0,0,0,7.472.849Zm7.793-8.614L18.519.706l3.238-8.471h3.432V3.913H22.563V.72l.263-5.514L19.41,3.913h-1.8L14.2-4.78l.263,5.5V3.913H11.857V-7.765ZM34.617,1.506H30.039l-.868,2.407H26.4L31.116-7.765h2.417L38.274,3.913H35.5ZM30.744-.444h3.168L32.324-4.815Zm13.4.079H42.07V3.913H39.459V-7.765h4.71a5.645,5.645,0,0,1,3.459.921,3.075,3.075,0,0,1,1.22,2.607,3.384,3.384,0,0,1-.562,1.993,3.765,3.765,0,0,1-1.7,1.271L49.329,3.8v.114h-2.8ZM42.07-2.308h2.107A2.261,2.261,0,0,0,45.7-2.772a1.591,1.591,0,0,0,.538-1.271,1.681,1.681,0,0,0-.511-1.3,2.232,2.232,0,0,0-1.557-.471h-2.1Zm18.3-3.507H56.487V3.913H53.876V-5.815H50.049v-1.95H60.368Z" transform="translate(9.632 13.93)" fill="#5b00aa"/>
  </g>
</svg>
