<svg xmlns="http://www.w3.org/2000/svg" xmlns:xlink="http://www.w3.org/1999/xlink" width="80" height="24" viewBox="0 0 80 24">
  <defs>
    <clipPath id="clip-STOCK_IRAN_">
      <rect width="80" height="24"/>
    </clipPath>
  </defs>
  <g id="STOCK_IRAN_" data-name="STOCK IRAN " clip-path="url(#clip-STOCK_IRAN_)">
    <rect width="80" height="24" fill="#fff"/>
    <path id="Path_436" data-name="Path 436" d="M.381-2.7l2.455-.142A1.658,1.658,0,0,0,3.161-2a1.412,1.412,0,0,0,1.139.47,1.33,1.33,0,0,0,.852-.24.7.7,0,0,0,.3-.557.692.692,0,0,0-.285-.538,3.458,3.458,0,0,0-1.322-.449,5.854,5.854,0,0,1-2.421-.939A1.833,1.833,0,0,1,.695-5.744a1.924,1.924,0,0,1,.373-1.127A2.448,2.448,0,0,1,2.19-7.7a5.616,5.616,0,0,1,2.054-.3,4.461,4.461,0,0,1,2.441.551,2.338,2.338,0,0,1,1,1.755L5.252-5.57a1.183,1.183,0,0,0-.407-.76,1.381,1.381,0,0,0-.857-.237,1.094,1.094,0,0,0-.678.177.528.528,0,0,0-.228.43.422.422,0,0,0,.188.332,2.22,2.22,0,0,0,.866.285A11.469,11.469,0,0,1,6.56-4.66,2.5,2.5,0,0,1,7.625-3.8a2.054,2.054,0,0,1,.333,1.145,2.325,2.325,0,0,1-.444,1.372,2.742,2.742,0,0,1-1.242.953,5.373,5.373,0,0,1-2.011.325A4.373,4.373,0,0,1,1.31-.768,2.9,2.9,0,0,1,.381-2.7ZM8.67-7.876h7.844v1.91H13.883V-.14H11.3V-5.966H8.67ZM16.959-4A3.822,3.822,0,0,1,18.1-6.953a4.492,4.492,0,0,1,3.173-1.055,4.578,4.578,0,0,1,3.213,1.037,3.748,3.748,0,0,1,1.128,2.905,4.468,4.468,0,0,1-.493,2.224A3.386,3.386,0,0,1,23.7-.491a5.01,5.01,0,0,1-2.321.483,5.71,5.71,0,0,1-2.339-.417,3.425,3.425,0,0,1-1.5-1.319A4.124,4.124,0,0,1,16.959-4Zm2.581.011a2.455,2.455,0,0,0,.47,1.683,1.651,1.651,0,0,0,1.279.512,1.651,1.651,0,0,0,1.287-.5,2.7,2.7,0,0,0,.456-1.8,2.267,2.267,0,0,0-.476-1.6,1.689,1.689,0,0,0-1.29-.5,1.625,1.625,0,0,0-1.253.512A2.463,2.463,0,0,0,19.54-3.992Zm13.023.686,2.262.633A3.736,3.736,0,0,1,34.106-1.2a3.089,3.089,0,0,1-1.216.892,4.871,4.871,0,0,1-1.849.3,5.745,5.745,0,0,1-2.225-.367,3.438,3.438,0,0,1-1.49-1.289A4.12,4.12,0,0,1,26.7-4.027a3.843,3.843,0,0,1,1.1-2.951,4.393,4.393,0,0,1,3.119-1.031,4.494,4.494,0,0,1,2.481.591A3.483,3.483,0,0,1,34.744-5.6l-2.279.47a1.749,1.749,0,0,0-.251-.517,1.459,1.459,0,0,0-.53-.422,1.623,1.623,0,0,0-.7-.148,1.551,1.551,0,0,0-1.344.654,2.611,2.611,0,0,0-.353,1.523,2.728,2.728,0,0,0,.422,1.763,1.5,1.5,0,0,0,1.185.477,1.5,1.5,0,0,0,1.119-.385A2.309,2.309,0,0,0,32.563-3.306Zm3.526-4.57h2.581v2.923l2.7-2.923H44.8l-3.048,2.92L44.942-.14H41.764L40-3.322,38.669-2.028V-.14H36.089Zm13.7,0h2.586V-.14H49.79ZM54.262-.14V-7.876h4.3a6.72,6.72,0,0,1,1.829.19,1.941,1.941,0,0,1,1.02.7A2.024,2.024,0,0,1,61.8-5.729a2.029,2.029,0,0,1-.3,1.111,2.238,2.238,0,0,1-.815.757,3.282,3.282,0,0,1-.906.306,2.669,2.669,0,0,1,.672.285,2.5,2.5,0,0,1,.413.407,3.039,3.039,0,0,1,.361.481L62.476-.14H59.56L58.181-2.5a1.82,1.82,0,0,0-.467-.6,1.144,1.144,0,0,0-.632-.179h-.228V-.14Zm2.592-4.6h1.088a4.174,4.174,0,0,0,.684-.106.691.691,0,0,0,.419-.243.681.681,0,0,0,.162-.449.687.687,0,0,0-.256-.575,1.648,1.648,0,0,0-.963-.2H56.854ZM68.437-1.417h-2.93L65.1-.14H62.465L65.6-7.876h2.815L71.557-.14h-2.7ZM67.9-3.09,66.98-5.871,66.067-3.09Zm4.493-4.786H74.8L77.949-3.6v-4.28h2.433V-.14H77.949L74.821-4.388V-.14H72.394Z" transform="translate(-0.381 16.008)" fill="#009e1a"/>
  </g>
</svg>
