<svg xmlns="http://www.w3.org/2000/svg" xmlns:xlink="http://www.w3.org/1999/xlink" width="80" height="24" viewBox="0 0 80 24">
  <defs>
    <clipPath id="clip-STOCK_CHINA">
      <rect width="80" height="24"/>
    </clipPath>
  </defs>
  <g id="STOCK_CHINA" data-name="STOCK CHINA" clip-path="url(#clip-STOCK_CHINA)">
    <rect width="80" height="24" fill="#fff"/>
    <path id="Path_437" data-name="Path 437" d="M.381-2.7l2.17-.142A1.787,1.787,0,0,0,2.839-2a1.184,1.184,0,0,0,1.007.47,1.081,1.081,0,0,0,.753-.24.732.732,0,0,0,.264-.557.723.723,0,0,0-.252-.538,2.838,2.838,0,0,0-1.168-.449A4.854,4.854,0,0,1,1.3-4.251,1.929,1.929,0,0,1,.658-5.744a2.1,2.1,0,0,1,.33-1.127A2.211,2.211,0,0,1,1.98-7.7a4.442,4.442,0,0,1,1.815-.3,3.582,3.582,0,0,1,2.158.551A2.414,2.414,0,0,1,6.837-5.7l-2.15.132a1.232,1.232,0,0,0-.36-.76,1.12,1.12,0,0,0-.758-.237.885.885,0,0,0-.6.177.552.552,0,0,0-.2.43.438.438,0,0,0,.166.332,1.818,1.818,0,0,0,.765.285,9.26,9.26,0,0,1,2.143.683,2.289,2.289,0,0,1,.942.858,2.254,2.254,0,0,1,.295,1.145,2.538,2.538,0,0,1-.393,1.372,2.489,2.489,0,0,1-1.1.953,4.257,4.257,0,0,1-1.778.325A3.546,3.546,0,0,1,1.2-.768,3.064,3.064,0,0,1,.381-2.7ZM7.709-7.876h6.934v1.91H12.316V-.14H10.035V-5.966H7.709ZM15.036-4a4.1,4.1,0,0,1,1.007-2.95,3.693,3.693,0,0,1,2.8-1.055,3.756,3.756,0,0,1,2.84,1.037,4.02,4.02,0,0,1,1,2.905,4.956,4.956,0,0,1-.436,2.224A3.189,3.189,0,0,1,20.991-.491a4,4,0,0,1-2.052.483,4.537,4.537,0,0,1-2.067-.417,3.179,3.179,0,0,1-1.327-1.319A4.55,4.55,0,0,1,15.036-4Zm2.281.011a2.686,2.686,0,0,0,.415,1.683,1.378,1.378,0,0,0,1.131.512A1.377,1.377,0,0,0,20-2.3a2.969,2.969,0,0,0,.4-1.8,2.473,2.473,0,0,0-.42-1.6,1.408,1.408,0,0,0-1.141-.5,1.359,1.359,0,0,0-1.108.512A2.7,2.7,0,0,0,17.317-3.992Zm11.512.686,2,.633A3.952,3.952,0,0,1,30.194-1.2a2.779,2.779,0,0,1-1.075.892,3.86,3.86,0,0,1-1.634.3,4.555,4.555,0,0,1-1.967-.367A3.179,3.179,0,0,1,24.2-1.664a4.536,4.536,0,0,1-.554-2.363,4.132,4.132,0,0,1,.974-2.951,3.611,3.611,0,0,1,2.757-1.031,3.615,3.615,0,0,1,2.193.591A3.478,3.478,0,0,1,30.758-5.6l-2.014.47a1.85,1.85,0,0,0-.222-.517,1.332,1.332,0,0,0-.468-.422,1.3,1.3,0,0,0-.619-.148,1.324,1.324,0,0,0-1.188.654,2.885,2.885,0,0,0-.312,1.523,3,3,0,0,0,.373,1.763,1.253,1.253,0,0,0,1.047.477,1.24,1.24,0,0,0,.99-.385A2.435,2.435,0,0,0,28.829-3.306Zm3.117-4.57h2.281v2.923l2.39-2.923h3.034l-2.694,2.92L39.772-.14H36.963L35.406-3.322,34.228-2.028V-.14H31.946Zm16.936,4.57,2,.633A3.952,3.952,0,0,1,50.247-1.2a2.779,2.779,0,0,1-1.075.892,3.86,3.86,0,0,1-1.634.3,4.555,4.555,0,0,1-1.967-.367,3.179,3.179,0,0,1-1.317-1.289A4.536,4.536,0,0,1,43.7-4.027a4.132,4.132,0,0,1,.974-2.951,3.611,3.611,0,0,1,2.757-1.031,3.615,3.615,0,0,1,2.193.591A3.478,3.478,0,0,1,50.811-5.6l-2.014.47a1.85,1.85,0,0,0-.222-.517,1.332,1.332,0,0,0-.468-.422,1.3,1.3,0,0,0-.619-.148,1.324,1.324,0,0,0-1.188.654,2.885,2.885,0,0,0-.312,1.523,3,3,0,0,0,.373,1.763,1.253,1.253,0,0,0,1.047.477,1.24,1.24,0,0,0,.99-.385A2.435,2.435,0,0,0,48.882-3.306ZM52-7.876H54.28v2.707h2.493V-7.876h2.291V-.14H56.773V-3.27H54.28V-.14H52Zm8.672,0h2.286V-.14H60.671Zm3.938,0h2.13l2.78,4.28v-4.28h2.15V-.14h-2.15L66.754-4.388V-.14H64.609ZM77.623-1.417h-2.59L74.673-.14H72.344l2.775-7.736h2.488L80.381-.14H77.992ZM77.15-3.09l-.815-2.781L75.529-3.09Z" transform="translate(-0.381 16.008)" fill="red"/>
  </g>
</svg>
