<svg xmlns="http://www.w3.org/2000/svg" xmlns:xlink="http://www.w3.org/1999/xlink" width="80" height="24" viewBox="0 0 80 24">
  <defs>
    <clipPath id="clip-stym">
      <rect width="80" height="24"/>
    </clipPath>
  </defs>
  <g id="stym" clip-path="url(#clip-stym)">
    <rect width="80" height="24" fill="#fff"/>
    <g id="Group_9" data-name="Group 9" transform="translate(0)">
      <g id="Group_8" data-name="Group 8">
        <path id="Path_40" data-name="Path 40" d="M10,14.724l3.052-.161a3.33,3.33,0,0,0,.494,1.952,3.265,3.265,0,0,0,2.592.822,3.652,3.652,0,0,0,2.265-.556,1.674,1.674,0,0,0,.708-1.348,1.454,1.454,0,0,0-.575-1.163,11.192,11.192,0,0,0-2.213-1.13,21.615,21.615,0,0,1-2.649-1.3,3.794,3.794,0,0,1-1.3-1.351A3.873,3.873,0,0,1,11.89,8.53a4.189,4.189,0,0,1,1.429-3.241A5.927,5.927,0,0,1,17.433,4a6.381,6.381,0,0,1,4.245,1.276,4.7,4.7,0,0,1,1.648,3.4l-3.067.138a2.484,2.484,0,0,0-.812-1.7,3.048,3.048,0,0,0-2.036-.59,2.994,2.994,0,0,0-1.893.465,1.451,1.451,0,0,0-.571,1.173,1.371,1.371,0,0,0,.519,1.1,10.414,10.414,0,0,0,2.307,1.215,12.718,12.718,0,0,1,3.416,1.871,3.579,3.579,0,0,1,1.094,2.712,4.508,4.508,0,0,1-1.628,3.493A6.555,6.555,0,0,1,16.118,20a8.49,8.49,0,0,1-3.483-.666,4.119,4.119,0,0,1-2.065-1.867A5.513,5.513,0,0,1,10,14.724Z" fill="#b00"/>
        <path id="Path_41" data-name="Path 41" d="M30.792,19.736H27.583L30.3,6.851H25.736l.536-2.587H38.534l-.541,2.587h-4.5Z" fill="#b00"/>
        <path id="Path_42" data-name="Path 42" d="M45.115,19.736H41.923l1.259-6.029L38.9,4.264h3.4l1.933,4.371c.455,1.05.77,1.806.92,2.268.268-.456.566-.945.915-1.457L47.549,7.4l2.194-3.137h3.714l-7.132,9.744Z" fill="#b00"/>
        <path id="Path_43" data-name="Path 43" d="M60.741,19.736H57.709L57.143,6.811,54.669,19.736h-2.89L55.03,4.264h4.562l.48,10.838L65.377,4.264H70L66.732,19.736h-2.91L66.884,6.905Z" fill="#b00"/>
      </g>
    </g>
  </g>
</svg>
