<svg xmlns="http://www.w3.org/2000/svg" xmlns:xlink="http://www.w3.org/1999/xlink" width="80" height="24" viewBox="0 0 80 24">
  <defs>
    <clipPath id="clip-tahailand">
      <rect width="80" height="24"/>
    </clipPath>
  </defs>
  <g id="tahailand" clip-path="url(#clip-tahailand)">
    <rect width="80" height="24" fill="#fff"/>
    <g id="Group_70" data-name="Group 70" transform="translate(314.702 -455.261)">
      <path id="Path_296" data-name="Path 296" d="M-304.7,462.261h7.062v2.469h-2.37v7.531h-2.323V464.73h-2.37Z" transform="translate(0 0)" fill="#26237a"/>
      <path id="Path_297" data-name="Path 297" d="M-295.421,462.261h2.323v3.5h2.539v-3.5h2.334v10h-2.334v-4.045H-293.1v4.045h-2.323Z" transform="translate(-1.157 0)" fill="#26237a"/>
      <path id="Path_298" data-name="Path 298" d="M-280.922,470.61h-2.637l-.367,1.651H-286.3l2.827-10h2.534l2.826,10h-2.434Zm-.481-2.162-.83-3.595-.822,3.595Z" transform="translate(-2.294 0)" fill="#26237a"/>
      <path id="Path_299" data-name="Path 299" d="M-276,462.261h2.328v10H-276Z" transform="translate(-3.578 0)" fill="#26237a"/>
      <path id="Path_300" data-name="Path 300" d="M-271.433,462.261h2.324V469.8h3.626v2.462h-5.95Z" transform="translate(-4.147 0)" fill="#26237a"/>
      <path id="Path_301" data-name="Path 301" d="M-258.914,470.61h-2.637l-.367,1.651h-2.372l2.826-10h2.535l2.825,10h-2.433Zm-.481-2.162-.831-3.595-.821,3.595Z" transform="translate(-5.037 0)" fill="#26237a"/>
      <path id="Path_302" data-name="Path 302" d="M-254.077,462.261h2.169l2.832,5.532v-5.532h2.19v10h-2.19l-2.816-5.491v5.491h-2.185Z" transform="translate(-6.31 0)" fill="#26237a"/>
      <path id="Path_303" data-name="Path 303" d="M-244.064,462.261h3.452a3.252,3.252,0,0,1,1.649.368,2.933,2.933,0,0,1,1.038,1.058,5.057,5.057,0,0,1,.6,1.6,9.806,9.806,0,0,1,.185,1.937,8.759,8.759,0,0,1-.275,2.485,4.361,4.361,0,0,1-.762,1.481,2.428,2.428,0,0,1-1.046.8,4.171,4.171,0,0,1-1.385.272h-3.452Zm2.324,2.264v5.464h.569a1.877,1.877,0,0,0,1.036-.215,1.411,1.411,0,0,0,.481-.75,6.153,6.153,0,0,0,.175-1.737,4.245,4.245,0,0,0-.39-2.176,1.436,1.436,0,0,0-1.292-.587Z" transform="translate(-7.558 0)" fill="#26237a"/>
    </g>
  </g>
</svg>
