<svg xmlns="http://www.w3.org/2000/svg" xmlns:xlink="http://www.w3.org/1999/xlink" width="80" height="24" viewBox="0 0 80 24">
  <defs>
    <clipPath id="clip-TAIWAN">
      <rect width="80" height="24"/>
    </clipPath>
  </defs>
  <g id="TAIWAN" clip-path="url(#clip-TAIWAN)">
    <rect width="80" height="24" fill="#fff"/>
    <g id="Group_69" data-name="Group 69" transform="translate(314.702 -407.502)">
      <path id="Path_290" data-name="Path 290" d="M-304.7,413.5h9.3v2.963h-3.122V425.5h-3.061v-9.037H-304.7Z" fill="#4bc9f1"/>
      <path id="Path_291" data-name="Path 291" d="M-290.024,423.521H-293.5l-.483,1.981h-3.125l3.724-12h3.339l3.723,12h-3.205Zm-.635-2.594-1.093-4.314-1.082,4.314Z" transform="translate(1.164)" fill="#4bc9f1"/>
      <path id="Path_292" data-name="Path 292" d="M-286.808,413.5h3.068v12h-3.068Z" transform="translate(2.743)" fill="#4bc9f1"/>
      <path id="Path_293" data-name="Path 293" d="M-283.128,413.5h2.907l1.047,6.718,1.532-6.718h2.9l1.536,6.71,1.048-6.71h2.892l-2.184,12h-3l-1.737-7.555-1.731,7.555h-3Z" transform="translate(3.307)" fill="#4bc9f1"/>
      <path id="Path_294" data-name="Path 294" d="M-264.021,423.521H-267.5l-.483,1.981H-271.1l3.724-12h3.339l3.723,12h-3.205Zm-.634-2.594-1.093-4.314-1.083,4.314Z" transform="translate(5.15)" fill="#4bc9f1"/>
      <path id="Path_295" data-name="Path 295" d="M-260.892,413.5h2.859l3.73,6.638V413.5h2.886v12H-254.3l-3.71-6.59v6.59h-2.879Z" transform="translate(6.716)" fill="#4bc9f1"/>
    </g>
  </g>
</svg>
