<svg xmlns="http://www.w3.org/2000/svg" xmlns:xlink="http://www.w3.org/1999/xlink" width="80" height="24" viewBox="0 0 80 24">
  <defs>
    <clipPath id="clip-TAYOMI">
      <rect width="80" height="24"/>
    </clipPath>
  </defs>
  <g id="TAYOMI" clip-path="url(#clip-TAYOMI)">
    <rect width="80" height="24" fill="#fff"/>
    <g id="Group_44" data-name="Group 44" transform="translate(-350.769 -30.207)">
      <path id="Path_157" data-name="Path 157" d="M360.769,37.384h9.786v2.572h-3.283V47.8h-3.22V39.956h-3.283Z" fill="#333"/>
      <path id="Path_158" data-name="Path 158" d="M377.428,46.083h-3.654l-.508,1.719h-3.287l3.916-10.418h3.511L381.321,47.8H377.95Zm-.667-2.253-1.15-3.745-1.138,3.745Z" fill="#333"/>
      <path id="Path_159" data-name="Path 159" d="M380.056,37.384h3.576l2.1,3.515,2.1-3.515h3.557l-4.051,6.055V47.8h-3.227V43.439Z" fill="#333"/>
      <path id="Path_160" data-name="Path 160" d="M391.149,42.6a4.931,4.931,0,0,1,5.38-5.394,5.448,5.448,0,0,1,4.008,1.4,5.264,5.264,0,0,1,1.407,3.912,6.417,6.417,0,0,1-.615,3,4.378,4.378,0,0,1-1.777,1.818,5.858,5.858,0,0,1-2.9.651,6.647,6.647,0,0,1-2.916-.562,4.382,4.382,0,0,1-1.873-1.776A5.893,5.893,0,0,1,391.149,42.6Zm3.219.013a3.5,3.5,0,0,0,.587,2.268,2.218,2.218,0,0,0,3.2.013,3.853,3.853,0,0,0,.568-2.423,3.215,3.215,0,0,0-.593-2.149,2.031,2.031,0,0,0-1.61-.679,1.956,1.956,0,0,0-1.563.689A3.508,3.508,0,0,0,394.368,42.614Z" fill="#333"/>
      <path id="Path_161" data-name="Path 161" d="M403.642,37.384h4.234l1.633,6.339,1.621-6.339h4.231V47.8h-2.637V39.857L410.693,47.8h-2.387l-2.027-7.945V47.8h-2.637Z" fill="#333"/>
      <path id="Path_162" data-name="Path 162" d="M417.543,37.384h3.226V47.8h-3.226Z" fill="#333"/>
    </g>
  </g>
</svg>
