<svg xmlns="http://www.w3.org/2000/svg" xmlns:xlink="http://www.w3.org/1999/xlink" width="80" height="24" viewBox="0 0 80 24">
  <defs>
    <clipPath id="clip-btk">
      <rect width="80" height="24"/>
    </clipPath>
  </defs>
  <g id="btk" clip-path="url(#clip-btk)">
    <rect width="80" height="24" fill="#fff"/>
    <path id="Path_434" data-name="Path 434" d="M.252-7.874H17.716v3.951H11.857V8.126H6.112V-3.923H.252Zm20.076,0H31.083a6.494,6.494,0,0,1,4.128,1.146A3.5,3.5,0,0,1,36.651-3.89a3.3,3.3,0,0,1-1.027,2.434,4.728,4.728,0,0,1-2,1.07,5.449,5.449,0,0,1,2.949,1.424,3.568,3.568,0,0,1,.945,2.538,3.9,3.9,0,0,1-.672,2.237A4.673,4.673,0,0,1,35,7.384a6.829,6.829,0,0,1-2.181.524q-1.94.218-2.575.218H20.329Zm5.8,6.276h2.5A3.226,3.226,0,0,0,30.493-2a1.356,1.356,0,0,0,.526-1.151,1.285,1.285,0,0,0-.526-1.091,3.174,3.174,0,0,0-1.833-.393H26.124Zm0,6.286h2.93a3.619,3.619,0,0,0,2.093-.453,1.44,1.44,0,0,0,.609-1.217,1.338,1.338,0,0,0-.6-1.141,3.794,3.794,0,0,0-2.112-.431H26.124ZM40.544-7.874h5.745v6.046l6.018-6.046h7.641L53.163-1.835l7.089,9.961H53.177l-3.92-6.58L46.289,4.222v3.9H40.544Z" transform="translate(9.748 11.874)" fill="#0090ff"/>
  </g>
</svg>
