<svg xmlns="http://www.w3.org/2000/svg" xmlns:xlink="http://www.w3.org/1999/xlink" width="80" height="24" viewBox="0 0 80 24">
  <defs>
    <clipPath id="clip-tecno_star">
      <rect width="80" height="24"/>
    </clipPath>
  </defs>
  <g id="tecno_star" data-name="tecno star" clip-path="url(#clip-tecno_star)">
    <rect width="80" height="24" fill="#fff"/>
    <g id="Group_84" data-name="Group 84" transform="translate(314.702 -439.14)">
      <path id="Path_368" data-name="Path 368" d="M-304.7,446.286h5.655v2.389h-1.9v7.281h-1.86v-7.281h-1.9Z" transform="translate(0 0.018)" fill="#26237a"/>
      <path id="Path_369" data-name="Path 369" d="M-295.439,446.286h4.986v2.065h-3.121v1.538h2.895v1.972h-2.895v1.906h3.212v2.19h-5.077Z" transform="translate(-2.77 0.018)" fill="#26237a"/>
      <path id="Path_370" data-name="Path 370" d="M-282.851,452.018l1.63.791a6.525,6.525,0,0,1-.517,1.841,2.848,2.848,0,0,1-.877,1.115,2.234,2.234,0,0,1-1.332.376,2.64,2.64,0,0,1-1.6-.458,3.568,3.568,0,0,1-1.074-1.612,8.207,8.207,0,0,1-.451-2.953,7.071,7.071,0,0,1,.794-3.688,2.5,2.5,0,0,1,2.249-1.289,2.261,2.261,0,0,1,1.788.738,4.937,4.937,0,0,1,.967,2.27l-1.643.586a3.107,3.107,0,0,0-.18-.646,1.444,1.444,0,0,0-.382-.528.781.781,0,0,0-.505-.185c-.422,0-.745.274-.969.817a5.257,5.257,0,0,0-.254,1.9,5.436,5.436,0,0,0,.3,2.2.939.939,0,0,0,.854.6.877.877,0,0,0,.807-.482A3.991,3.991,0,0,0-282.851,452.018Z" transform="translate(-5.271)" fill="#26237a"/>
      <path id="Path_371" data-name="Path 371" d="M-277.415,446.286h1.737l2.268,5.35v-5.35h1.754v9.67h-1.754l-2.255-5.309v5.309h-1.75Z" transform="translate(-8.16 0.018)" fill="#26237a"/>
      <path id="Path_372" data-name="Path 372" d="M-267.771,451.146a6.974,6.974,0,0,1,.822-3.687,2.563,2.563,0,0,1,2.288-1.319,2.585,2.585,0,0,1,2.317,1.3,6.834,6.834,0,0,1,.813,3.632,9.1,9.1,0,0,1-.355,2.781,3.809,3.809,0,0,1-1.027,1.689,2.414,2.414,0,0,1-1.674.6,2.655,2.655,0,0,1-1.686-.521,3.617,3.617,0,0,1-1.082-1.649A8.268,8.268,0,0,1-267.771,451.146Zm1.861.013a4.789,4.789,0,0,0,.339,2.1,1.025,1.025,0,0,0,.922.639,1.016,1.016,0,0,0,.929-.626,5.344,5.344,0,0,0,.328-2.249,4.375,4.375,0,0,0-.343-2,1.036,1.036,0,0,0-.93-.629,1.017,1.017,0,0,0-.9.639A4.8,4.8,0,0,0-265.91,451.16Z" transform="translate(-11.044)" fill="#26237a"/>
      <path id="Path_373" data-name="Path 373" d="M-253.9,452.776l1.771-.179a3.09,3.09,0,0,0,.234,1.056.9.9,0,0,0,.822.586.712.712,0,0,0,.614-.3,1.163,1.163,0,0,0,.215-.7,1.152,1.152,0,0,0-.205-.673,1.965,1.965,0,0,0-.953-.561,3.549,3.549,0,0,1-1.745-1.174,3.123,3.123,0,0,1-.526-1.867,3.7,3.7,0,0,1,.269-1.408,2.285,2.285,0,0,1,.809-1.042,2.536,2.536,0,0,1,1.48-.379,2.218,2.218,0,0,1,1.76.689,3.725,3.725,0,0,1,.721,2.194l-1.754.164a1.945,1.945,0,0,0-.294-.95.73.73,0,0,0-.618-.3.57.57,0,0,0-.489.221.876.876,0,0,0-.164.537.688.688,0,0,0,.135.417,1.255,1.255,0,0,0,.625.356,5.934,5.934,0,0,1,1.747.854,2.5,2.5,0,0,1,.768,1.072,4.055,4.055,0,0,1,.24,1.431,4.5,4.5,0,0,1-.32,1.716,2.61,2.61,0,0,1-.9,1.19,2.448,2.448,0,0,1-1.45.406,2.3,2.3,0,0,1-2.127-.95A5.016,5.016,0,0,1-253.9,452.776Z" transform="translate(-15.192)" fill="#26237a"/>
      <path id="Path_374" data-name="Path 374" d="M-245.376,446.286h5.655v2.389h-1.9v7.281h-1.86v-7.281h-1.9Z" transform="translate(-17.742 0.018)" fill="#26237a"/>
      <path id="Path_375" data-name="Path 375" d="M-233.477,454.36h-2.112l-.294,1.6h-1.9l2.263-9.67h2.03l2.262,9.67h-1.948Zm-.386-2.09-.665-3.476-.657,3.476Z" transform="translate(-20.013 0.018)" fill="#26237a"/>
      <path id="Path_376" data-name="Path 376" d="M-227.552,455.956v-9.67h3.1a2.933,2.933,0,0,1,1.318.238,1.708,1.708,0,0,1,.735.881,3.928,3.928,0,0,1,.279,1.566,4.051,4.051,0,0,1-.214,1.389,2.48,2.48,0,0,1-.587.946,1.833,1.833,0,0,1-.653.383,1.685,1.685,0,0,1,.484.357,2.822,2.822,0,0,1,.3.509,4.266,4.266,0,0,1,.261.6l.9,2.8h-2.1l-.995-2.955a2.468,2.468,0,0,0-.336-.745.6.6,0,0,0-.456-.224h-.164v3.924Zm1.869-5.751h.784a1.852,1.852,0,0,0,.493-.132.53.53,0,0,0,.3-.3,1.281,1.281,0,0,0,.117-.561,1.193,1.193,0,0,0-.185-.718.811.811,0,0,0-.694-.251h-.817Z" transform="translate(-23.072 0.018)" fill="#26237a"/>
    </g>
  </g>
</svg>
