<svg xmlns="http://www.w3.org/2000/svg" xmlns:xlink="http://www.w3.org/1999/xlink" width="80" height="24" viewBox="0 0 80 24">
  <defs>
    <clipPath id="clip-TERAX">
      <rect width="80" height="24"/>
    </clipPath>
  </defs>
  <g id="TERAX" clip-path="url(#clip-TERAX)">
    <rect width="80" height="24" fill="#fff"/>
    <g id="Group_60" data-name="Group 60" transform="translate(-174.484 -156)">
      <path id="Path_243" data-name="Path 243" d="M182.484,160H193.22v3.951h-3.6V176h-3.532V163.951h-3.6Z" fill="#54a800"/>
      <path id="Path_244" data-name="Path 244" d="M194.811,160h9.466v3.416h-5.926v2.543h5.5v3.263h-5.5v3.155h6.1V176h-9.637Z" fill="#54a800"/>
      <path id="Path_245" data-name="Path 245" d="M206.4,176V160h5.887a6.265,6.265,0,0,1,2.5.393,2.958,2.958,0,0,1,1.4,1.457,5.761,5.761,0,0,1,.531,2.592,5.921,5.921,0,0,1-.406,2.3,4.071,4.071,0,0,1-1.116,1.567,3.61,3.61,0,0,1-1.24.633,3.2,3.2,0,0,1,.919.589,4.783,4.783,0,0,1,.565.841,6.781,6.781,0,0,1,.495.995l1.71,4.636H213.65l-1.888-4.889a3.888,3.888,0,0,0-.639-1.234,1.208,1.208,0,0,0-.866-.371h-.311V176Zm3.548-9.517h1.489a3.958,3.958,0,0,0,.935-.218.964.964,0,0,0,.574-.5,1.9,1.9,0,0,0,.222-.928,1.794,1.794,0,0,0-.351-1.19,1.676,1.676,0,0,0-1.318-.414h-1.551Z" fill="#54a800"/>
      <path id="Path_246" data-name="Path 246" d="M225.8,173.359h-4.01L221.232,176h-3.606l4.3-16h3.853l4.3,16h-3.7Zm-.733-3.46-1.262-5.752-1.248,5.752Z" fill="#54a800"/>
      <path id="Path_247" data-name="Path 247" d="M230.413,160H234.3l2.024,4.922L238.3,160h3.852l-3.558,7.749L242.484,176h-3.969l-2.258-5.141L234,176h-3.945L234,167.662Z" fill="#54a800"/>
    </g>
  </g>
</svg>
