<svg xmlns="http://www.w3.org/2000/svg" xmlns:xlink="http://www.w3.org/1999/xlink" width="80" height="24" viewBox="0 0 80 24">
  <defs>
    <clipPath id="clip-TLG">
      <rect width="80" height="24"/>
    </clipPath>
  </defs>
  <g id="TLG" clip-path="url(#clip-TLG)">
    <rect width="80" height="24" fill="#fff"/>
    <path id="Path_222" data-name="Path 222" d="M-435.714,228.462" transform="translate(504.714 -223)"/>
    <g id="Group_71" data-name="Group 71" transform="translate(314.702 -474.916)">
      <path id="Path_304" data-name="Path 304" d="M-304.7,480.063h18.992v3.343h-6.372v10.2h-6.248v-10.2H-304.7Z" transform="translate(0 0.085)" fill="#df0000"/>
      <path id="Path_305" data-name="Path 305" d="M-295.433,480.063h6.25v10.2h9.751V493.6h-16Z" transform="translate(12.551 0.085)" fill="#df0000"/>
      <path id="Path_306" data-name="Path 306" d="M-277.025,488.781v-2.816h9.656v5.771a24.362,24.362,0,0,1-4.9,1.723,24.429,24.429,0,0,1-5.054.457,17.573,17.573,0,0,1-5.871-.821,7.553,7.553,0,0,1-3.517-2.448,5.968,5.968,0,0,1-1.248-3.73,5.836,5.836,0,0,1,1.365-3.857,8.419,8.419,0,0,1,4-2.489,18.806,18.806,0,0,1,5.532-.656,22.8,22.8,0,0,1,5.014.407,7.251,7.251,0,0,1,2.759,1.261,5.3,5.3,0,0,1,1.648,2.165l-6.029.72a2.48,2.48,0,0,0-1.262-1.173,5.477,5.477,0,0,0-2.269-.407,5.158,5.158,0,0,0-3.274.957,3.6,3.6,0,0,0-1.222,3.023,3.705,3.705,0,0,0,1.236,3.141,5.555,5.555,0,0,0,3.439.941,9.554,9.554,0,0,0,2-.2,13.759,13.759,0,0,0,2.18-.692v-1.275Z" transform="translate(22.667 0)" fill="#df0000"/>
    </g>
  </g>
</svg>
