<svg xmlns="http://www.w3.org/2000/svg" xmlns:xlink="http://www.w3.org/1999/xlink" width="80" height="24" viewBox="0 0 80 24">
  <defs>
    <clipPath id="clip-TP">
      <rect width="80" height="24"/>
    </clipPath>
  </defs>
  <g id="TP" clip-path="url(#clip-TP)">
    <rect width="80" height="24" fill="#fff"/>
    <g id="Group_72" data-name="Group 72" transform="translate(324.702 -492.943)">
      <path id="Path_307" data-name="Path 307" d="M-304.7,496.943h19.5v3.951h-6.544v12.049h-6.416V500.894H-304.7Z" transform="translate(0 0)"/>
      <path id="Path_308" data-name="Path 308" d="M-295.444,496.943h10.665a8.787,8.787,0,0,1,5.219,1.276,4.248,4.248,0,0,1,1.736,3.634,4.41,4.41,0,0,1-1.893,3.789q-1.889,1.363-5.77,1.363H-289v5.938h-6.445Zm6.445,6.821h1.571a4.974,4.974,0,0,0,2.606-.5,1.48,1.48,0,0,0,.752-1.27,1.586,1.586,0,0,0-.653-1.278,4.118,4.118,0,0,0-2.451-.523H-289Z" transform="translate(13.122 0)"/>
    </g>
  </g>
</svg>
