<svg xmlns="http://www.w3.org/2000/svg" xmlns:xlink="http://www.w3.org/1999/xlink" width="80" height="24" viewBox="0 0 80 24">
  <defs>
    <clipPath id="clip-trust_tech">
      <rect width="80" height="24"/>
    </clipPath>
  </defs>
  <g id="trust_tech" data-name="trust tech" clip-path="url(#clip-trust_tech)">
    <rect width="80" height="24" fill="#fff"/>
    <g id="Group_59" data-name="Group 59" transform="translate(-260.571 -189.231)">
      <path id="Path_235" data-name="Path 235" d="M273.537,207.4l-.237,1.589a2.972,2.972,0,0,1-.994.182,1.62,1.62,0,0,1-1.735-1.739,15.936,15.936,0,0,1,.2-1.729l1.018-6.626h-1.128l.229-1.5h1.128l.433-2.8,1.633-1.342-.639,4.145h1.4l-.237,1.5h-1.4l-.97,6.3q-.182,1.2-.181,1.439a.824.824,0,0,0,.146.526.576.576,0,0,0,.477.182A2.594,2.594,0,0,0,273.537,207.4Z" fill="#0071bb"/>
      <path id="Path_236" data-name="Path 236" d="M274.688,208.973l1.751-11.4H277.7l-.355,2.33a7.645,7.645,0,0,1,1.266-1.954,1.791,1.791,0,0,1,1.265-.634,2.017,2.017,0,0,1,1.049.419l-.583,1.8a1.138,1.138,0,0,0-.813-.365q-.748,0-1.537,1.138a10.466,10.466,0,0,0-1.239,4.092l-.709,4.574Z" fill="#0071bb"/>
      <path id="Path_237" data-name="Path 237" d="M285.784,206.911q-1.506,2.32-3.083,2.32a1.9,1.9,0,0,1-1.566-.757,2.9,2.9,0,0,1-.6-1.853,18.931,18.931,0,0,1,.268-2.469l1.009-6.583h1.428l-1.12,7.291a9.848,9.848,0,0,0-.142,1.418,1.569,1.569,0,0,0,.288,1,1.023,1.023,0,0,0,.848.36,2.031,2.031,0,0,0,1.171-.4,3.522,3.522,0,0,0,.986-1.074,6.372,6.372,0,0,0,.674-1.6,18.263,18.263,0,0,0,.4-2.072l.757-4.929h1.428l-1.751,11.4h-1.317Z" fill="#0071bb"/>
      <path id="Path_238" data-name="Path 238" d="M289.183,205.075l1.428-.118a4.725,4.725,0,0,0,.189,1.428,1.9,1.9,0,0,0,.7.967,1.947,1.947,0,0,0,1.187.375,1.834,1.834,0,0,0,1.42-.515,1.738,1.738,0,0,0,.473-1.213,1.767,1.767,0,0,0-.284-.956,4.469,4.469,0,0,0-1.424-1.112,12.422,12.422,0,0,1-1.447-.928,2.866,2.866,0,0,1-.8-1.037,3.3,3.3,0,0,1-.269-1.369,3.555,3.555,0,0,1,.789-2.319,2.69,2.69,0,0,1,2.208-.967,2.941,2.941,0,0,1,2.4.994,4.086,4.086,0,0,1,.855,2.614l-1.395.129a2.585,2.585,0,0,0-.537-1.632,1.758,1.758,0,0,0-1.427-.6,1.461,1.461,0,0,0-1.152.461,1.482,1.482,0,0,0-.41,1,1.4,1.4,0,0,0,.355.945,5.629,5.629,0,0,0,1.223.859,7.96,7.96,0,0,1,2.066,1.525,3.479,3.479,0,0,1,.678,2.169,3.88,3.88,0,0,1-.382,1.664,3.016,3.016,0,0,1-1.168,1.305,3.66,3.66,0,0,1-4.317-.488A4.105,4.105,0,0,1,289.183,205.075Z" fill="#0071bb"/>
      <path id="Path_239" data-name="Path 239" d="M300.256,208.973l2.137-13.949H298.6l.276-1.793h9.1l-.276,1.793h-3.762L301.8,208.973Z" fill="#662d90"/>
      <path id="Path_240" data-name="Path 240" d="M311.66,205.1l1.388.193a6.093,6.093,0,0,1-1.376,2.674,3.268,3.268,0,0,1-2.567,1.267,2.782,2.782,0,0,1-1.708-.585,3.6,3.6,0,0,1-1.183-1.7,7.415,7.415,0,0,1-.406-2.545,10.589,10.589,0,0,1,.635-3.625,6.011,6.011,0,0,1,1.644-2.609,3.32,3.32,0,0,1,2.185-.854,2.788,2.788,0,0,1,2.393,1.267,5.9,5.9,0,0,1,.895,3.458,13.724,13.724,0,0,1-.11,1.718h-6.167c-.021.223-.032.422-.032.6a4.552,4.552,0,0,0,.54,2.443,1.561,1.561,0,0,0,1.321.843,2.134,2.134,0,0,0,1.444-.656A4.289,4.289,0,0,0,311.66,205.1Zm-4.149-2.825h4.7c.005-.2.008-.343.008-.429a3.925,3.925,0,0,0-.537-2.239,1.615,1.615,0,0,0-1.38-.779,2.2,2.2,0,0,0-1.668.859A5.738,5.738,0,0,0,307.511,202.272Z" fill="#0071bb"/>
      <path id="Path_241" data-name="Path 241" d="M320.272,204.817l1.427.2a7.018,7.018,0,0,1-1.526,3.174,3.042,3.042,0,0,1-2.251,1.036,2.6,2.6,0,0,1-2.213-1.2,5.765,5.765,0,0,1-.847-3.361,12.634,12.634,0,0,1,.544-3.672,6.031,6.031,0,0,1,1.557-2.744,3.314,3.314,0,0,1,2.315-.94,2.543,2.543,0,0,1,2.137,1.037,4.41,4.41,0,0,1,.789,2.743l-1.4.129a2.836,2.836,0,0,0-.461-1.7,1.419,1.419,0,0,0-1.195-.612,1.905,1.905,0,0,0-1.491.741,5.409,5.409,0,0,0-.989,2.25,12.507,12.507,0,0,0-.359,2.905,4.075,4.075,0,0,0,.473,2.19,1.374,1.374,0,0,0,1.167.73,1.793,1.793,0,0,0,1.329-.719A5.187,5.187,0,0,0,320.272,204.817Z" fill="#0071bb"/>
      <path id="Path_242" data-name="Path 242" d="M322.567,208.973l2.413-15.742h1.427l-.922,6.045a6.559,6.559,0,0,1,1.482-1.508,2.523,2.523,0,0,1,1.412-.457,1.924,1.924,0,0,1,1.617.747,3.142,3.142,0,0,1,.575,1.97,17.25,17.25,0,0,1-.252,2.212l-1.033,6.733h-1.428l1.065-6.905a17.659,17.659,0,0,0,.229-1.89,1.414,1.414,0,0,0-.284-.912.988.988,0,0,0-.82-.355,2.353,2.353,0,0,0-1.475.553,3.657,3.657,0,0,0-1.1,1.514,14.67,14.67,0,0,0-.73,3.1l-.749,4.9Z" fill="#0071bb"/>
    </g>
  </g>
</svg>
