<svg xmlns="http://www.w3.org/2000/svg" xmlns:xlink="http://www.w3.org/1999/xlink" width="80" height="24" viewBox="0 0 80 24">
  <defs>
    <clipPath id="clip-TURKERY">
      <rect width="80" height="24"/>
    </clipPath>
  </defs>
  <g id="TURKERY" clip-path="url(#clip-TURKERY)">
    <rect width="80" height="24" fill="#fff"/>
    <g id="Group_73" data-name="Group 73" transform="translate(314.702 -505.74)">
      <path id="Path_309" data-name="Path 309" d="M-304.7,511.74h8.685v2.914h-2.914v8.885h-2.857v-8.885H-304.7Z" transform="translate(0)" fill="#f75c02"/>
      <path id="Path_310" data-name="Path 310" d="M-289.416,511.74h2.851v7.03a7.407,7.407,0,0,1-.256,1.973,4.562,4.562,0,0,1-.8,1.626,3.264,3.264,0,0,1-1.144.977,4.649,4.649,0,0,1-2,.394,9.815,9.815,0,0,1-1.473-.121,3.254,3.254,0,0,1-1.334-.479,3.63,3.63,0,0,1-.981-1.016,4.1,4.1,0,0,1-.609-1.359,8.848,8.848,0,0,1-.265-1.995v-7.03h2.851v7.2a2.41,2.41,0,0,0,.419,1.508,1.39,1.39,0,0,0,1.164.543,1.387,1.387,0,0,0,1.157-.536,2.4,2.4,0,0,0,.42-1.515Z" transform="translate(0.709)" fill="#f75c02"/>
      <path id="Path_311" data-name="Path 311" d="M-285.4,523.538v-11.8h4.762a5.5,5.5,0,0,1,2.025.29,2.285,2.285,0,0,1,1.129,1.074,3.93,3.93,0,0,1,.428,1.911,4.028,4.028,0,0,1-.327,1.7,3.043,3.043,0,0,1-.9,1.155,3.026,3.026,0,0,1-1,.466,2.616,2.616,0,0,1,.744.435,3.447,3.447,0,0,1,.456.621,4.835,4.835,0,0,1,.4.732l1.383,3.419h-3.228l-1.527-3.606a2.816,2.816,0,0,0-.518-.909,1.031,1.031,0,0,0-.7-.273h-.252v4.788Zm2.871-7.018h1.2a3.466,3.466,0,0,0,.757-.161.754.754,0,0,0,.463-.371,1.287,1.287,0,0,0,.18-.684,1.239,1.239,0,0,0-.283-.876,1.434,1.434,0,0,0-1.066-.306h-1.255Z" transform="translate(1.475)" fill="#f75c02"/>
      <path id="Path_312" data-name="Path 312" d="M-276.091,511.74h2.857V516.2l2.994-4.459h3.8l-3.375,4.453,3.526,7.345h-3.519l-1.949-4.852-1.477,1.974v2.878h-2.857Z" transform="translate(2.187)" fill="#f75c02"/>
      <path id="Path_313" data-name="Path 313" d="M-266.112,511.74h7.657v2.519h-4.793v1.875h4.447v2.407h-4.447v2.326h4.932v2.672h-7.8Z" transform="translate(2.949)" fill="#f75c02"/>
      <path id="Path_314" data-name="Path 314" d="M-258.308,511.74h3.173l1.863,3.979,1.867-3.979h3.157l-3.6,6.857v4.941h-2.863V518.6Z" transform="translate(3.546)" fill="#f75c02"/>
    </g>
  </g>
</svg>
