<svg xmlns="http://www.w3.org/2000/svg" xmlns:xlink="http://www.w3.org/1999/xlink" width="80" height="24" viewBox="0 0 80 24">
  <defs>
    <clipPath id="clip-VALEO">
      <rect width="80" height="24"/>
    </clipPath>
  </defs>
  <g id="VALEO" clip-path="url(#clip-VALEO)">
    <rect width="80" height="24" fill="#fff"/>
    <g id="Group_25" data-name="Group 25" transform="translate(-172.484 -30.593)">
      <path id="Path_101" data-name="Path 101" d="M221.773,46.1c-3.084-.244-6.923-.445-11.118-.445a97.309,97.309,0,0,0-20.283,1.915A10.868,10.868,0,0,0,185.847,44l-.03.064a17.317,17.317,0,0,1,3.825,6.525c9.269-3.659,20.907-4.336,29.694-4.336.84,0,1.641.01,2.417.021l.02-.179Z" fill="#387489" fill-rule="evenodd"/>
      <path id="Path_102" data-name="Path 102" d="M197.108,34.593a37.934,37.934,0,0,1-4.041,7.624h-.031a39.182,39.182,0,0,1-.686-7.624h-4.91a35.579,35.579,0,0,0,2.319,10.828h4.727a61.492,61.492,0,0,0,7.106-10.828Zm42.042,5.541c0-2.094-1.955-2.94-5.233-2.94-3.961,0-6.374,1.259-6.374,5.531,0,2.093,1.955,2.94,5.234,2.94,3.961,0,6.373-1.227,6.373-5.531Zm-32.831-2.876c-2.958,0-4.559.39-5.856,1.353a5.177,5.177,0,0,0-1.89,4.22c0,1.48.533,2.706,3.171,2.706a8.526,8.526,0,0,0,3.233-.708h.045l-.106.592h4.011l1.433-8.11c-1.175-.032-2.531-.053-4.041-.053Zm16.667,6.281a16.366,16.366,0,0,0,2.9-.317l-.52,1.967a24.616,24.616,0,0,1-3.92.3c-4.282,0-5.473-1.291-5.473-2.983,0-4.325,2.683-5.308,6.374-5.308,2.9,0,4.694.973,4.694,2.834a6.516,6.516,0,0,1-.406,2.052h-6.375c0,.931.438,1.459,2.728,1.459Zm-8.619,1.882H210.13l1.922-10.828h4.241l-1.926,10.828Zm20.252-3.892C234.3,43.58,233.856,44,233.006,44c-.78,0-1.084-.392-1.084-1.248a9.262,9.262,0,0,1,.152-1.427c.321-2.052.764-2.475,1.614-2.475.779,0,1.083.391,1.083,1.248a9.389,9.389,0,0,1-.152,1.427Zm-29.551,1.735a2.6,2.6,0,0,1-1.144.3c-.869,0-.991-.508-.991-1.11a6.255,6.255,0,0,1,.579-2.464,2.088,2.088,0,0,1,2.09-.973,2.018,2.018,0,0,1,.214.011l-.748,4.24Zm17.857-2.877a2.37,2.37,0,0,0,.138-.76c0-.572-.52-.8-1.069-.8-.9,0-1.37.369-1.583,1.564Z" fill="#97c83c" fill-rule="evenodd"/>
    </g>
  </g>
</svg>
