<svg xmlns="http://www.w3.org/2000/svg" xmlns:xlink="http://www.w3.org/1999/xlink" width="80" height="24" viewBox="0 0 80 24">
  <defs>
    <clipPath id="clip-VIGOR">
      <rect width="80" height="24"/>
    </clipPath>
  </defs>
  <g id="VIGOR" clip-path="url(#clip-VIGOR)">
    <rect width="80" height="24" fill="#fff"/>
    <g id="Group_55" data-name="Group 55" transform="translate(-350.769 -125.143)">
      <path id="Path_217" data-name="Path 217" d="M420.731,131.773c-.087,1.736.249,3.7-.331,5.524.644,2.286.2,4.893.369,7.508-.916.562-1.79.129-2.755.319v-5.495c-.322-.366-.589-.923-.862-.938-1.559-.086-3.12-.042-4.759-.042v6.269h-2.729V129.329a4.416,4.416,0,0,1,.815-.155c2.78-.012,5.561.033,8.341-.031C419.692,129.123,420.353,129.689,420.731,131.773Zm-8.3.44v3.214h5.478v-3.2C416.065,132.185,414.3,132.205,412.428,132.213Z" fill="#333"/>
      <path id="Path_218" data-name="Path 218" d="M401.386,145.087a29.621,29.621,0,0,0-3.625.035c-1.079.133-2.052-1.113-2.222-4.806-.1-2.132-.073-4.318,0-6.462.1-3.194.842-4.671,2.249-4.683,2.489-.021,4.978.043,7.466-.021,1.361-.035,2.19,2.175,2.2,5.116.006,1.825.013,3.65,0,5.474-.032,3.692-1.076,5.521-2.328,5.378A32.719,32.719,0,0,0,401.386,145.087Zm-3.075-3.967c.314.321.566.791.821.8q2.352.106,4.705,0c.255-.011.506-.488.815-.808.045-2.794.108-5.486-.055-8.355-.409-.214-.744-.529-1.082-.542-1.354-.052-2.709-.005-4.064-.008-.446,0-.849.185-1.14,1.259Z" fill="#333"/>
      <path id="Path_219" data-name="Path 219" d="M392.7,129.4v2.664a5.7,5.7,0,0,1-.853.134q-3.422.018-6.844.006c-.467,0-.943-.1-1.251,1.25v7.585c.212.265.476.872.744.884,1.811.086,3.623.045,5.545.045v-6.12c.934-.53,1.765-.216,2.649-.272v9.295a2.3,2.3,0,0,1-.666.208c-2.994.014-5.988.024-8.982,0-1.263-.011-2.061-1.85-2.088-4.784q-.03-3.241,0-6.486c.025-2.733.776-4.6,1.922-4.621,3.172-.045,6.344-.008,9.516,0C392.455,129.189,392.52,129.276,392.7,129.4Z" fill="#333"/>
      <path id="Path_220" data-name="Path 220" d="M366.372,140.283c1.14-3.882,2.182-7.428,3.226-10.982h2.727c-1.625,5.526-3.1,10.834-4.686,15.786a6.6,6.6,0,0,0-1.546.022c-.809.209-1.341-.549-1.755-2.14-.811-3.113-1.664-6.164-2.5-9.238-.267-.979-.545-1.941-.8-2.935-.1-.4-.157-.873-.267-1.5h2.6Z" fill="#333"/>
      <path id="Path_221" data-name="Path 221" d="M378.111,145H375.63c-.257-1.857-.279-13.462-.026-15.693h2.4C378.225,130.912,378.294,140.139,378.111,145Z" fill="#333"/>
    </g>
  </g>
</svg>
