<svg xmlns="http://www.w3.org/2000/svg" xmlns:xlink="http://www.w3.org/1999/xlink" width="80" height="24" viewBox="0 0 80 24">
  <defs>
    <clipPath id="clip-wild_turkey">
      <rect width="80" height="24"/>
    </clipPath>
  </defs>
  <g id="wild_turkey" data-name="wild turkey" clip-path="url(#clip-wild_turkey)">
    <rect width="80" height="24" fill="#fff"/>
    <path id="Path_451" data-name="Path 451" d="M5.841-2.2l.9-5.615H8.113L6.631.074H5.243L4.15-5.208,3.061.074H1.673L.187-7.82H1.562l.9,5.605L3.572-7.82H4.739ZM10.324.074H8.944V-7.82h1.38Zm2.657-1.308h2.927V.074H11.6V-7.82h1.38ZM16.7.074V-7.82h2.059a2.765,2.765,0,0,1,1.58.468,3.1,3.1,0,0,1,1.087,1.333,4.718,4.718,0,0,1,.391,1.965v.367a4.716,4.716,0,0,1-.385,1.955A3.092,3.092,0,0,1,20.348-.4,2.776,2.776,0,0,1,18.77.074ZM18.078-6.5v5.267h.667a1.406,1.406,0,0,0,1.234-.623,3.192,3.192,0,0,0,.44-1.782v-.42A3.235,3.235,0,0,0,20-5.881a1.405,1.405,0,0,0-1.238-.62Zm12.631,0H28.657V.074h-1.38V-6.5H25.255V-7.82h5.453ZM36.563-7.82v5.2a2.92,2.92,0,0,1-.688,2.047A2.418,2.418,0,0,1,34,.18a2.436,2.436,0,0,1-1.861-.731,2.87,2.87,0,0,1-.706-2.011V-7.82h1.38V-2.61a1.679,1.679,0,0,0,.315,1.132A1.106,1.106,0,0,0,34-1.123q1.163,0,1.183-1.444V-7.82Zm3.607,5h-1.1V.074h-1.38V-7.82h2.489A2.525,2.525,0,0,1,42.01-7.2a2.336,2.336,0,0,1,.645,1.762,2.771,2.771,0,0,1-.3,1.347,2.127,2.127,0,0,1-.9.859L42.909,0V.074H41.427Zm-1.1-1.313h1.114a1.031,1.031,0,0,0,.8-.314,1.232,1.232,0,0,0,.285-.859,1.316,1.316,0,0,0-.27-.879,1.019,1.019,0,0,0-.823-.319h-1.11ZM45.8-3.093l-.716.912V.074H43.7V-7.82h1.38v3.578l.606-.98L47.4-7.82h1.695L46.717-4.314,49.161.074H47.519Zm7.91-.256H51.061v2.115h3.107V.074H49.681V-7.82H54.16V-6.5h-3.1v1.878H53.71Zm3.578-.912L58.68-7.82h1.507L57.992-2.789V.074h-1.4V-2.789l-2.2-5.031H55.9Z" transform="translate(9.813 15.82)" fill="red"/>
  </g>
</svg>
