<svg xmlns="http://www.w3.org/2000/svg" xmlns:xlink="http://www.w3.org/1999/xlink" width="80" height="24" viewBox="0 0 80 24">
  <defs>
    <clipPath id="clip-wild">
      <rect width="80" height="24"/>
    </clipPath>
  </defs>
  <g id="wild" clip-path="url(#clip-wild)">
    <rect width="80" height="24" fill="#fff"/>
    <g id="Group_75" data-name="Group 75" transform="translate(314.984 -539.548)">
      <path id="Path_320" data-name="Path 320" d="M-304.984,544.548h4.515l1.626,7.838,2.38-7.838h4.5l2.388,7.828,1.626-7.828h4.492l-3.392,14h-4.66l-2.7-8.814-2.688,8.814h-4.66Z" transform="translate(0)" fill="#820263"/>
      <path id="Path_321" data-name="Path 321" d="M-291.993,544.548h4.764v14h-4.764Z" transform="translate(10.277)" fill="#820263"/>
      <path id="Path_322" data-name="Path 322" d="M-287.429,544.548h4.754V555.1h7.421v3.447h-12.174Z" transform="translate(13.888)" fill="#820263"/>
      <path id="Path_323" data-name="Path 323" d="M-279.39,544.548h7.064a9.2,9.2,0,0,1,3.373.517,5.453,5.453,0,0,1,2.126,1.48,5.937,5.937,0,0,1,1.218,2.244,9.564,9.564,0,0,1,.378,2.712,8.645,8.645,0,0,1-.562,3.481,5.791,5.791,0,0,1-1.558,2.072,5.251,5.251,0,0,1-2.14,1.113,12.077,12.077,0,0,1-2.834.381h-7.064Zm4.755,3.172v7.649h1.164a5.324,5.324,0,0,0,2.119-.3,2.109,2.109,0,0,0,.987-1.05,6.047,6.047,0,0,0,.356-2.43,4.4,4.4,0,0,0-.8-3.048,3.575,3.575,0,0,0-2.644-.82Z" transform="translate(20.247)" fill="#820263"/>
    </g>
  </g>
</svg>
