<svg xmlns="http://www.w3.org/2000/svg" xmlns:xlink="http://www.w3.org/1999/xlink" width="80" height="24" viewBox="0 0 80 24">
  <defs>
    <clipPath id="clip-winxx">
      <rect width="80" height="24"/>
    </clipPath>
  </defs>
  <g id="winxx" clip-path="url(#clip-winxx)">
    <rect width="80" height="24" fill="#fff"/>
    <path id="Path_403" data-name="Path 403" d="M16.343-7.283v.32a1.456,1.456,0,0,0-.737.164,1.613,1.613,0,0,0-.54.614,10.079,10.079,0,0,0-.54,1.445l-3.24,9.456h-.343L8.3-2.784l-2.631,7.5H5.356L1.9-5.025q-.386-1.09-.489-1.289A1.132,1.132,0,0,0,.946-6.8a1.692,1.692,0,0,0-.8-.16v-.32h4.3v.32H4.242a1.031,1.031,0,0,0-.694.208.641.641,0,0,0-.24.5,6.021,6.021,0,0,0,.377,1.393L5.973,1.723,7.9-3.874l-.343-.986-.274-.787a4.3,4.3,0,0,0-.4-.761,1.048,1.048,0,0,0-.274-.277,1.536,1.536,0,0,0-.429-.225,1.843,1.843,0,0,0-.514-.052v-.32h4.525v.32H9.881a1.006,1.006,0,0,0-.7.208.731.731,0,0,0-.223.562,5.6,5.6,0,0,0,.386,1.54l2.228,6.376L13.78-4.74a5.478,5.478,0,0,0,.377-1.488.626.626,0,0,0-.124-.372.66.66,0,0,0-.313-.242,2.478,2.478,0,0,0-.848-.121v-.32ZM21.9,4.128v.32H16.917v-.32h.411A1.235,1.235,0,0,0,18.374,3.7a2.657,2.657,0,0,0,.206-1.332V-5.207a3.92,3.92,0,0,0-.111-1.177.777.777,0,0,0-.351-.372,1.612,1.612,0,0,0-.788-.208h-.411v-.32H21.9v.32h-.42a1.225,1.225,0,0,0-1.037.424,2.564,2.564,0,0,0-.214,1.332V2.372a3.92,3.92,0,0,0,.111,1.177.771.771,0,0,0,.36.372,1.565,1.565,0,0,0,.78.208Zm.2-11.412h3.154l7.1,8.8V-5.25a2.347,2.347,0,0,0-.24-1.35,1.264,1.264,0,0,0-1-.363h-.4v-.32h4.045v.32H34.34a1.176,1.176,0,0,0-1.046.45,2.647,2.647,0,0,0-.189,1.263V4.639H32.8L25.136-4.809V2.415a2.42,2.42,0,0,0,.231,1.35,1.28,1.28,0,0,0,1,.363h.411v.32H22.736v-.32h.4a1.186,1.186,0,0,0,1.054-.45,2.647,2.647,0,0,0,.189-1.263V-5.743a5.322,5.322,0,0,0-.767-.787,2.8,2.8,0,0,0-.767-.355,2.707,2.707,0,0,0-.754-.078ZM42.165-2.049l2.494,3.755A10.361,10.361,0,0,0,46.2,3.674a2.139,2.139,0,0,0,1.273.454v.32H42.482v-.32a2.235,2.235,0,0,0,.737-.1.7.7,0,0,0,.3-.238.55.55,0,0,0,.116-.324,1.094,1.094,0,0,0-.077-.4,6.8,6.8,0,0,0-.471-.761L41.111-.708,38.677,2.441a4.748,4.748,0,0,0-.463.671.834.834,0,0,0-.077.35.56.56,0,0,0,.231.459,1.623,1.623,0,0,0,.883.208v.32H35.129v-.32a2.5,2.5,0,0,0,.754-.182,4.36,4.36,0,0,0,1.011-.606,7.111,7.111,0,0,0,1.1-1.168l2.742-3.5L38.445-4.7a6.794,6.794,0,0,0-1.585-1.8,2.831,2.831,0,0,0-1.5-.454v-.32h5.374v.32a1.7,1.7,0,0,0-.938.225.563.563,0,0,0-.253.441,1.964,1.964,0,0,0,.411.934l1.783,2.691L43.8-5.311a4.536,4.536,0,0,0,.441-.64.825.825,0,0,0,.081-.355.522.522,0,0,0-.1-.32.688.688,0,0,0-.326-.255,2.954,2.954,0,0,0-.814-.082v-.32H47.2v.32a2.412,2.412,0,0,0-.8.156,3.2,3.2,0,0,0-.848.536A9.643,9.643,0,0,0,44.47-5.025Zm12.675,0,2.494,3.755a10.362,10.362,0,0,0,1.538,1.968,2.139,2.139,0,0,0,1.273.454v.32H55.157v-.32a2.235,2.235,0,0,0,.737-.1.7.7,0,0,0,.3-.238.55.55,0,0,0,.116-.324,1.094,1.094,0,0,0-.077-.4,6.8,6.8,0,0,0-.471-.761L53.786-.708,51.352,2.441a4.748,4.748,0,0,0-.463.671.834.834,0,0,0-.077.35.56.56,0,0,0,.231.459,1.623,1.623,0,0,0,.883.208v.32H47.8v-.32a2.5,2.5,0,0,0,.754-.182,4.361,4.361,0,0,0,1.011-.606,7.111,7.111,0,0,0,1.1-1.168l2.742-3.5L51.121-4.7a6.794,6.794,0,0,0-1.585-1.8,2.831,2.831,0,0,0-1.5-.454v-.32h5.374v.32a1.7,1.7,0,0,0-.938.225.563.563,0,0,0-.253.441,1.964,1.964,0,0,0,.411.934l1.783,2.691,2.065-2.639a4.536,4.536,0,0,0,.441-.64A.825.825,0,0,0,57-6.306a.522.522,0,0,0-.1-.32.688.688,0,0,0-.326-.255,2.954,2.954,0,0,0-.814-.082v-.32h4.122v.32a2.412,2.412,0,0,0-.8.156,3.2,3.2,0,0,0-.848.536,9.643,9.643,0,0,0-1.088,1.246Z" transform="translate(9.855 13.283)"/>
  </g>
</svg>
