<svg xmlns="http://www.w3.org/2000/svg" xmlns:xlink="http://www.w3.org/1999/xlink" width="80" height="24" viewBox="0 0 80 24">
  <defs>
    <clipPath id="clip-YENMAK">
      <rect width="80" height="24"/>
    </clipPath>
  </defs>
  <g id="YENMAK" clip-path="url(#clip-YENMAK)">
    <rect width="80" height="24" fill="#fff"/>
    <g id="Group_76" data-name="Group 76" transform="translate(314.966 -552.592)">
      <path id="Path_324" data-name="Path 324" d="M-304.966,558.592h3.016l1.771,4.048,1.774-4.048h3l-3.417,6.974v5.026h-2.722v-5.026Z" transform="translate(0 0)" fill="#820263"/>
      <path id="Path_325" data-name="Path 325" d="M-294.771,558.592h7.279v2.562h-4.556v1.907h4.226v2.448h-4.226v2.366h4.688v2.717h-7.411Z" transform="translate(0.236 0)" fill="#820263"/>
      <path id="Path_326" data-name="Path 326" d="M-286.081,558.592h2.535l3.31,6.638v-6.638h2.56v12h-2.56L-283.527,564v6.589h-2.554Z" transform="translate(0.438 0)" fill="#820263"/>
      <path id="Path_327" data-name="Path 327" d="M-276.132,558.592h3.572l1.377,7.3,1.367-7.3h3.57v12h-2.224V561.44l-1.714,9.151H-272.2l-1.711-9.151v9.151h-2.224Z" transform="translate(0.668 0)" fill="#820263"/>
      <path id="Path_328" data-name="Path 328" d="M-259.354,568.611h-3.083l-.429,1.981h-2.773l3.3-12h2.962l3.3,12h-2.844Zm-.563-2.594-.97-4.314-.961,4.314Z" transform="translate(0.911 0)" fill="#820263"/>
      <path id="Path_329" data-name="Path 329" d="M-255.431,558.592h2.716v4.535l2.845-4.535h3.612l-3.208,4.529,3.352,7.471h-3.345l-1.853-4.934-1.4,2.006v2.928h-2.716Z" transform="translate(1.148 0)" fill="#820263"/>
    </g>
  </g>
</svg>
