<svg xmlns="http://www.w3.org/2000/svg" xmlns:xlink="http://www.w3.org/1999/xlink" width="80" height="24" viewBox="0 0 80 24">
  <defs>
    <clipPath id="clip-ysk">
      <rect width="80" height="24"/>
    </clipPath>
  </defs>
  <g id="ysk" clip-path="url(#clip-ysk)">
    <rect width="80" height="24" fill="#fff"/>
    <g id="Group_6" data-name="Group 6" transform="translate(85.978 -61.451)">
      <path id="Path_26" data-name="Path 26" d="M-63.449,81.388h-6.9v-.54c0-2.12.008-4.24-.01-6.359a1.424,1.424,0,0,0-.229-.744c-1.663-2.564-3.345-5.12-5.021-7.679-.116-.178-.223-.359-.371-.6h1.438c2.12,0,4.239.007,6.358-.007a.676.676,0,0,1,.69.332c1.3,2.148,2.62,4.29,3.926,6.437a.92.92,0,0,1,.142.457q.013,4.247.006,8.493A1.6,1.6,0,0,1-63.449,81.388Z" fill="#26237a"/>
      <path id="Path_27" data-name="Path 27" d="M-41.221,65.451h7.313V81.388h-7.313Z" fill="#26237a"/>
      <path id="Path_28" data-name="Path 28" d="M-49.265,81.451c.546-.568.549-.722.09-1.218q-3.644-3.932-7.292-7.861a3.614,3.614,0,0,1-1.063-3.94c.667-1.753,2.793-2.968,5.3-2.958-.65.508-.265.909.133,1.339q3.693,3.984,7.359,7.985c2.29,2.5.7,5.766-3.175,6.518C-48.313,81.394-48.736,81.4-49.265,81.451Z" fill="#26237a"/>
      <path id="Path_29" data-name="Path 29" d="M-32.312,81.349V65.463h9.249l-9.149,7.593,9.149,8.293Z" fill="#26237a"/>
      <path id="Path_30" data-name="Path 30" d="M-65.806,65.477h8l-4.552,5.7Z" fill="#26237a"/>
      <path id="Path_31" data-name="Path 31" d="M-57.521,74.71c2.038,2.271,3.979,4.433,5.967,6.65h-5.967Z" fill="#26237a"/>
      <path id="Path_32" data-name="Path 32" d="M-44.134,71.929-49.9,65.5h5.764Z" fill="#26237a"/>
      <path id="Path_33" data-name="Path 33" d="M-15.978,79.332c-.005,1.1-1.136,1.964-2.577,1.968-1.462,0-2.614-.875-2.608-1.993.006-1.1,1.141-1.962,2.582-1.967C-17.117,77.334-15.973,78.209-15.978,79.332Zm-.336-.024A2.07,2.07,0,0,0-18.582,77.6a2.055,2.055,0,0,0-2.239,1.729,2.052,2.052,0,0,0,2.267,1.7A2.04,2.04,0,0,0-16.314,79.308Z" fill="#26237a"/>
      <g id="Group_5" data-name="Group 5">
        <path id="Path_34" data-name="Path 34" d="M-17.514,80.26a.037.037,0,0,1-.006.021.048.048,0,0,1-.026.015.217.217,0,0,1-.056.01c-.024,0-.056,0-.1,0s-.063,0-.085,0a.263.263,0,0,1-.053-.01.071.071,0,0,1-.031-.019.1.1,0,0,1-.019-.031l-.239-.466a1.446,1.446,0,0,0-.088-.146.5.5,0,0,0-.107-.114.474.474,0,0,0-.147-.075.663.663,0,0,0-.2-.027H-18.9v.842a.029.029,0,0,1-.009.021.071.071,0,0,1-.029.015l-.052.009c-.022,0-.05,0-.083,0s-.061,0-.083,0l-.054-.009a.066.066,0,0,1-.028-.015.032.032,0,0,1-.008-.021V78.43a.087.087,0,0,1,.041-.083.174.174,0,0,1,.088-.024h.552c.066,0,.12,0,.164,0l.117.008a1.181,1.181,0,0,1,.266.063.632.632,0,0,1,.194.108.432.432,0,0,1,.117.151.427.427,0,0,1,.04.187.426.426,0,0,1-.036.178.414.414,0,0,1-.1.139.634.634,0,0,1-.159.1,1.1,1.1,0,0,1-.206.075.589.589,0,0,1,.116.054.559.559,0,0,1,.1.079.709.709,0,0,1,.086.106,1.438,1.438,0,0,1,.08.134l.233.435a.669.669,0,0,1,.036.078A.09.09,0,0,1-17.514,80.26Zm-.52-1.389a.294.294,0,0,0-.068-.2.409.409,0,0,0-.229-.115.846.846,0,0,0-.114-.016c-.042,0-.1,0-.165,0H-18.9v.666h.337a1.01,1.01,0,0,0,.236-.025.54.54,0,0,0,.166-.071.286.286,0,0,0,.1-.106A.286.286,0,0,0-18.034,78.871Z" fill="#26237a"/>
      </g>
    </g>
  </g>
</svg>
